<?xml version="1.0" standalone="no"?>
<!DOCTYPE svg PUBLIC "-//W3C//DTD SVG 20010904//EN"
 "http://www.w3.org/TR/2001/REC-SVG-20010904/DTD/svg10.dtd">
<svg version="1.0" xmlns="http://www.w3.org/2000/svg"
 width="1200.000000pt" height="1200.000000pt" viewBox="0 0 1200.000000 1200.000000"
 preserveAspectRatio="xMidYMid meet">
<g transform="translate(0.000000,1200.000000) scale(0.100000,-0.100000)"
fill="#000000" stroke="none">
<path d="M4060 10500 c-113 -20 -219 -101 -272 -208 -33 -66 -33 -66 -36 -322
l-3 -256 -277 -48 c-961 -166 -1183 -245 -1444 -513 -207 -213 -303 -445 -483
-1178 -436 -1772 -370 -3652 186 -5365 126 -388 366 -655 716 -796 320 -129
1443 -347 2183 -423 674 -70 1565 -91 2140 -51 915 63 1715 188 2522 395 326
83 499 175 680 361 183 190 241 311 383 804 267 932 380 1737 380 2725 0 960
-106 1743 -357 2643 -159 573 -224 709 -435 913 -260 251 -490 328 -1470 495
l-222 37 -3 256 c-3 257 -3 257 -36 323 -139 283 -535 283 -674 0 -33 -66 -33
-66 -36 -261 l-4 -194 -71 7 c-40 4 -142 13 -227 21 -765 71 -1579 73 -2340 4
-124 -11 -255 -23 -292 -26 l-66 -6 -4 194 c-3 185 -4 197 -29 249 -74 158
-243 249 -409 220z m2425 -1330 c325 -16 906 -66 992 -85 22 -5 22 -6 25 -283
3 -278 3 -278 36 -344 141 -287 544 -281 680 10 26 55 27 63 30 270 3 212 3
212 25 207 12 -2 114 -21 227 -40 662 -115 811 -158 921 -265 73 -72 106 -139
168 -345 175 -585 287 -1126 350 -1700 41 -366 46 -471 46 -970 0 -499 -5
-603 -46 -970 -63 -571 -176 -1117 -350 -1700 -62 -206 -95 -273 -168 -345
-96 -94 -185 -124 -701 -238 -1923 -428 -3863 -401 -5773 79 -231 58 -299 88
-377 168 -86 88 -128 200 -254 674 -410 1537 -410 3127 -1 4663 127 475 169
587 255 675 111 113 247 154 880 265 140 24 265 46 277 49 22 5 22 5 25 -208
3 -213 3 -213 36 -279 141 -287 544 -281 680 10 27 57 27 57 30 334 3 277 3
278 25 283 101 21 734 74 1057 88 175 8 719 6 905 -3z"/>
<path d="M5187 7120 c-296 -50 -413 -422 -201 -634 215 -215 585 -95 634 207
40 249 -183 468 -433 427z"/>
<path d="M6687 7120 c-296 -50 -413 -422 -201 -634 215 -215 585 -95 634 207
40 249 -183 468 -433 427z"/>
<path d="M8187 7120 c-296 -50 -413 -422 -201 -634 215 -215 585 -95 634 207
40 249 -183 468 -433 427z"/>
<path d="M3687 5620 c-296 -50 -413 -422 -201 -634 215 -215 585 -95 634 207
40 249 -183 468 -433 427z"/>
<path d="M5187 5620 c-296 -50 -413 -422 -201 -634 215 -215 585 -95 634 207
40 249 -183 468 -433 427z"/>
<path d="M6687 5620 c-296 -50 -413 -422 -201 -634 215 -215 585 -95 634 207
40 249 -183 468 -433 427z"/>
<path d="M8187 5620 c-296 -50 -413 -422 -201 -634 215 -215 585 -95 634 207
40 249 -183 468 -433 427z"/>
<path d="M3687 4120 c-296 -50 -413 -422 -201 -634 215 -215 585 -95 634 207
40 249 -183 468 -433 427z"/>
<path d="M5187 4120 c-296 -50 -413 -422 -201 -634 215 -215 585 -95 634 207
40 249 -183 468 -433 427z"/>
<path d="M6687 4120 c-296 -50 -413 -422 -201 -634 215 -215 585 -95 634 207
40 249 -183 468 -433 427z"/>
</g>
</svg>
