<?xml version="1.0" standalone="no"?>
<!DOCTYPE svg PUBLIC "-//W3C//DTD SVG 20010904//EN"
 "http://www.w3.org/TR/2001/REC-SVG-20010904/DTD/svg10.dtd">
<svg version="1.0" xmlns="http://www.w3.org/2000/svg"
 width="1200.000000pt" height="1200.000000pt" viewBox="0 0 1200.000000 1200.000000"
 preserveAspectRatio="xMidYMid meet">
<g transform="translate(0.000000,1200.000000) scale(0.100000,-0.100000)"
fill="#000000" stroke="none">
<path d="M5835 10873 c-1826 -73 -3435 -1123 -4226 -2758 -1066 -2206 -325
-4854 1736 -6200 1764 -1152 4071 -1035 5710 289 1338 1082 2008 2769 1774
4466 -286 2072 -1886 3745 -3943 4125 -265 48 -725 90 -925 83 -31 -1 -87 -3
-126 -5z m695 -782 c1651 -225 2979 -1367 3435 -2956 114 -397 150 -666 150
-1135 0 -312 -3 -375 -23 -520 -258 -1892 -1680 -3314 -3572 -3572 -244 -33
-798 -33 -1040 0 -1898 262 -3314 1679 -3572 3572 -20 145 -23 208 -23 520 0
392 12 523 76 835 368 1797 1882 3130 3724 3279 151 12 695 -3 845 -23z"/>
<path d="M5385 8239 c-492 -27 -1167 -102 -1344 -150 -286 -77 -590 -343 -706
-618 -91 -216 -183 -770 -206 -1248 -22 -442 31 -1034 127 -1411 82 -324 357
-652 693 -825 193 -100 296 -122 829 -177 859 -89 1872 -76 2752 35 199 25
270 45 331 95 21 17 100 55 176 86 175 70 267 128 368 229 203 205 297 382
355 666 121 588 140 1252 54 1849 -87 604 -166 812 -395 1037 -250 246 -402
298 -1084 373 -589 64 -1400 89 -1950 59z m1360 -764 c215 -16 602 -56 757
-78 l88 -12 -52 -70 c-72 -98 -322 -344 -448 -441 -257 -199 -547 -367 -856
-497 -229 -96 -216 -94 -331 -51 -410 154 -924 476 -1241 778 -91 87 -252 263
-252 277 0 17 687 87 1070 109 238 13 1020 4 1265 -15z m-2511 -1008 c408
-355 1008 -707 1508 -884 131 -46 135 -47 258 -47 110 0 135 3 210 28 623 206
1243 580 1678 1012 89 89 164 159 166 155 12 -19 48 -377 55 -550 17 -397 -34
-977 -105 -1192 -44 -136 -200 -292 -353 -354 -195 -79 -1324 -151 -1998 -127
-482 18 -1103 71 -1262 108 -77 19 -201 96 -272 171 -103 107 -129 163 -163
353 -87 475 -100 951 -41 1425 27 212 12 202 129 83 55 -57 141 -138 190 -181z"/>
</g>
</svg>
