<?xml version="1.0" standalone="no"?>
<!DOCTYPE svg PUBLIC "-//W3C//DTD SVG 20010904//EN"
 "http://www.w3.org/TR/2001/REC-SVG-20010904/DTD/svg10.dtd">
<svg version="1.0" xmlns="http://www.w3.org/2000/svg"
 width="1200.000000pt" height="1200.000000pt" viewBox="0 0 1200.000000 1200.000000"
 preserveAspectRatio="xMidYMid meet">
<g transform="translate(0.000000,1200.000000) scale(0.100000,-0.100000)"
fill="#000000" stroke="none">
<path d="M5435 10873 c-695 -20 -1356 -139 -1910 -342 -276 -102 -316 -140
-399 -380 -198 -569 -352 -1368 -431 -2231 -17 -192 -45 -578 -45 -632 0 -37
0 -37 -148 -84 -230 -73 -489 -171 -536 -204 -92 -62 -125 -124 -185 -340
-244 -876 -328 -2146 -220 -3325 41 -457 105 -847 199 -1221 89 -354 114 -390
341 -491 770 -340 1857 -425 2990 -233 116 20 116 20 200 -5 1196 -360 3260
-344 4389 34 397 133 556 233 605 381 40 121 122 772 160 1275 138 1829 11
3777 -331 5075 -87 328 -115 357 -498 507 -271 106 -612 196 -958 254 -101 17
-183 32 -184 32 0 1 -15 86 -33 189 -103 597 -269 1146 -379 1256 -134 134
-794 327 -1422 416 -308 44 -816 80 -1045 74 -38 -1 -110 -3 -160 -5z m845
-781 c428 -47 753 -112 1103 -219 117 -36 117 -36 138 -102 51 -164 179 -708
179 -761 0 -4 -136 -10 -302 -13 -796 -17 -1557 -158 -2173 -402 -169 -67
-235 -117 -286 -217 -27 -52 -106 -365 -159 -628 -22 -113 -43 -215 -46 -227
-4 -23 -4 -23 -247 -23 -344 0 -716 -25 -983 -64 -49 -8 -90 -13 -91 -12 -2 2
4 90 12 197 64 829 179 1519 347 2080 40 135 40 135 139 168 356 116 775 199
1174 231 72 5 148 12 170 14 129 13 850 -3 1025 -22z m1812 -1867 c338 -30
630 -81 901 -155 159 -44 366 -114 390 -133 27 -21 133 -518 191 -897 190
-1234 226 -2821 96 -4205 -20 -210 -66 -590 -76 -631 -11 -42 -417 -160 -754
-218 -712 -124 -1708 -142 -2490 -46 -390 49 -830 142 -830 176 0 7 -16 130
-34 271 -216 1612 -248 3202 -90 4473 45 360 162 1000 194 1061 15 27 398 140
675 198 555 117 1260 158 1827 106z m-3476 -1557 c-4 -46 -13 -157 -21 -248
-22 -257 -34 -487 -45 -840 -5 -179 -10 -326 -10 -327 0 -2 -275 -3 -610 -3
-593 0 -612 -1 -673 -21 -263 -88 -342 -422 -146 -618 24 -24 73 -58 109 -75
65 -31 65 -31 697 -34 l631 -3 6 -62 c3 -34 10 -172 16 -307 6 -135 13 -275
17 -312 l6 -68 -637 0 c-619 0 -638 -1 -699 -21 -263 -88 -342 -422 -146 -618
24 -24 73 -58 109 -75 65 -31 65 -31 751 -34 l686 -3 7 -82 c4 -45 25 -224 47
-397 60 -473 58 -417 13 -424 -218 -35 -681 -60 -959 -52 -443 13 -798 69
-1135 182 -136 45 -136 45 -158 137 -81 339 -137 724 -179 1217 -22 261 -25
1242 -5 1495 36 454 87 824 153 1125 52 234 24 200 217 264 600 197 1099 277
1786 284 l179 2 -7 -82z"/>
<path d="M6485 6731 c-46 -20 -91 -69 -103 -109 -4 -15 -7 -126 -7 -247 0
-241 2 -258 42 -306 53 -63 82 -69 333 -69 251 0 280 6 333 69 40 48 42 65 42
306 0 241 -2 258 -42 306 -53 63 -82 69 -333 69 -197 0 -230 -3 -265 -19z"/>
<path d="M7985 6731 c-46 -20 -91 -69 -103 -109 -4 -15 -7 -126 -7 -247 0
-241 2 -258 42 -306 53 -63 82 -69 333 -69 251 0 280 6 333 69 40 48 42 65 42
306 0 241 -2 258 -42 306 -53 63 -82 69 -333 69 -197 0 -230 -3 -265 -19z"/>
<path d="M6485 5231 c-46 -20 -91 -69 -103 -109 -4 -15 -7 -126 -7 -247 0
-241 2 -258 42 -306 53 -63 82 -69 333 -69 251 0 280 6 333 69 40 48 42 65 42
306 0 241 -2 258 -42 306 -53 63 -82 69 -333 69 -197 0 -230 -3 -265 -19z"/>
<path d="M7985 5231 c-46 -20 -91 -69 -103 -109 -4 -15 -7 -126 -7 -247 0
-241 2 -258 42 -306 53 -63 82 -69 333 -69 251 0 280 6 333 69 40 48 42 65 42
306 0 241 -2 258 -42 306 -53 63 -82 69 -333 69 -197 0 -230 -3 -265 -19z"/>
<path d="M6485 3731 c-46 -20 -91 -69 -103 -109 -4 -15 -7 -126 -7 -247 0
-241 2 -258 42 -306 53 -63 82 -69 333 -69 251 0 280 6 333 69 40 48 42 65 42
306 0 241 -2 258 -42 306 -53 63 -82 69 -333 69 -197 0 -230 -3 -265 -19z"/>
<path d="M7985 3731 c-46 -20 -91 -69 -103 -109 -4 -15 -7 -126 -7 -247 0
-241 2 -258 42 -306 53 -63 82 -69 333 -69 251 0 280 6 333 69 40 48 42 65 42
306 0 241 -2 258 -42 306 -53 63 -82 69 -333 69 -197 0 -230 -3 -265 -19z"/>
</g>
</svg>
