<?xml version="1.0" standalone="no"?>
<!DOCTYPE svg PUBLIC "-//W3C//DTD SVG 20010904//EN"
 "http://www.w3.org/TR/2001/REC-SVG-20010904/DTD/svg10.dtd">
<svg version="1.0" xmlns="http://www.w3.org/2000/svg"
 width="1200.000000pt" height="1200.000000pt" viewBox="0 0 1200.000000 1200.000000"
 preserveAspectRatio="xMidYMid meet">
<g transform="translate(0.000000,1200.000000) scale(0.100000,-0.100000)"
fill="#000000" stroke="none">
<path d="M5835 10873 c-1595 -64 -3026 -866 -3900 -2188 -1494 -2259 -864
-5285 1410 -6770 1764 -1152 4071 -1035 5710 289 1338 1082 2008 2769 1774
4466 -286 2072 -1886 3745 -3943 4125 -265 48 -725 90 -925 83 -31 -1 -87 -3
-126 -5z m695 -782 c1651 -225 2979 -1367 3435 -2956 114 -397 150 -666 150
-1135 0 -312 -3 -375 -23 -520 -258 -1892 -1680 -3314 -3572 -3572 -244 -33
-798 -33 -1040 0 -1897 262 -3314 1679 -3572 3572 -20 145 -23 208 -23 520 0
392 12 523 76 835 368 1797 1882 3130 3724 3279 151 12 695 -3 845 -23z"/>
<path d="M5501 9344 c-94 -33 -167 -99 -218 -196 -25 -48 -28 -62 -28 -158 0
-117 -9 -92 113 -320 378 -710 476 -1548 291 -2473 -54 -272 -38 -358 86 -476
121 -115 238 -129 461 -57 607 195 1259 196 1854 4 142 -46 161 -50 223 -45
135 11 254 93 314 215 40 82 41 229 2 313 -69 147 -182 210 -520 293 -282 69
-391 80 -779 80 -372 0 -561 -17 -866 -80 -31 -6 -31 -6 -23 53 54 396 56 948
3 1313 -71 496 -270 1070 -478 1384 -93 139 -281 204 -435 150z"/>
</g>
</svg>
