<?xml version="1.0" standalone="no"?>
<!DOCTYPE svg PUBLIC "-//W3C//DTD SVG 20010904//EN"
 "http://www.w3.org/TR/2001/REC-SVG-20010904/DTD/svg10.dtd">
<svg version="1.0" xmlns="http://www.w3.org/2000/svg"
 width="1200.000000pt" height="1200.000000pt" viewBox="0 0 1200.000000 1200.000000"
 preserveAspectRatio="xMidYMid meet">
<g transform="translate(0.000000,1200.000000) scale(0.100000,-0.100000)"
fill="#000000" stroke="none">
<path d="M4610 10490 c-615 -43 -1148 -134 -1675 -285 -476 -137 -509 -162
-590 -451 -419 -1485 -570 -3435 -414 -5344 60 -743 171 -1486 319 -2135 61
-266 113 -320 412 -434 316 -120 715 -209 1188 -265 112 -13 223 -23 639 -56
202 -16 980 -23 1251 -11 751 33 1388 116 1840 238 95 26 95 26 320 7 274 -23
780 -26 935 -6 436 57 834 242 928 429 71 142 194 673 256 1108 75 522 96 860
96 1520 0 656 -21 988 -95 1510 -56 388 -167 895 -224 1020 -47 104 -137 175
-346 273 -295 139 -811 242 -1211 242 -76 0 -76 0 -83 73 -64 686 -174 1354
-298 1806 -77 281 -126 332 -405 420 -535 168 -1070 272 -1678 327 -209 18
-965 28 -1165 14z m755 -750 c539 -27 1046 -111 1607 -267 167 -46 167 -46
192 -152 142 -602 235 -1471 288 -2696 17 -388 17 -1884 0 -2270 -31 -716 -67
-1191 -123 -1645 -30 -247 -14 -220 -154 -252 -224 -51 -810 -147 -822 -135
-2 3 1 51 7 107 42 412 -21 959 -155 1343 -76 217 -185 281 -575 343 -164 26
-596 26 -760 0 -320 -50 -455 -110 -525 -230 -67 -116 -152 -439 -191 -731
-20 -141 -26 -579 -11 -751 l7 -91 -175 23 c-348 46 -656 108 -886 180 -117
37 -117 37 -148 188 -294 1430 -376 3213 -221 4806 59 605 156 1197 281 1710
l50 206 207 57 c746 205 1443 290 2107 257z m3125 -2682 c275 -41 623 -146
633 -191 2 -12 20 -98 40 -192 240 -1145 217 -2944 -51 -3980 -18 -70 -18 -70
-83 -92 -190 -65 -534 -102 -880 -94 -65 1 -65 1 -48 139 60 474 108 1077 141
1787 26 541 13 2433 -18 2624 -5 33 -5 33 63 27 37 -4 129 -16 203 -28z
m-3019 -3728 c58 0 58 0 70 -42 62 -228 85 -612 55 -878 -10 -79 -18 -145 -19
-146 -8 -8 -465 -15 -549 -9 -105 7 -105 7 -117 93 -40 280 -14 738 55 964 6
20 123 28 328 22 66 -2 145 -4 177 -4z"/>
<path d="M3680 8620 c-300 -53 -415 -441 -190 -643 111 -100 168 -110 588
-105 370 5 388 8 490 103 91 84 117 145 117 275 0 130 -26 191 -117 275 -104
96 -117 99 -508 101 -184 1 -355 -1 -380 -6z"/>
<path d="M5730 8617 c-339 -76 -407 -533 -103 -695 91 -48 152 -54 509 -50
302 3 322 5 375 26 326 130 325 572 -2 705 -51 20 -71 22 -389 24 -237 1 -351
-2 -390 -10z"/>
<path d="M3680 7120 c-300 -53 -415 -441 -190 -643 111 -100 168 -110 588
-105 370 5 388 8 490 103 91 84 117 145 117 275 0 130 -26 191 -117 275 -104
96 -117 99 -508 101 -184 1 -355 -1 -380 -6z"/>
<path d="M5730 7117 c-339 -76 -407 -533 -103 -695 91 -48 152 -54 509 -50
303 3 322 5 376 26 325 130 323 572 -3 705 -51 20 -71 22 -389 24 -237 1 -351
-2 -390 -10z"/>
<path d="M3680 5620 c-300 -53 -415 -441 -190 -643 111 -100 168 -110 588
-105 370 5 388 8 490 103 91 84 117 145 117 275 0 130 -26 191 -117 275 -104
96 -117 99 -508 101 -184 1 -355 -1 -380 -6z"/>
<path d="M5730 5617 c-339 -76 -407 -533 -103 -695 91 -48 152 -54 509 -50
303 3 322 5 376 26 325 130 323 572 -3 705 -51 20 -71 22 -389 24 -237 1 -351
-2 -390 -10z"/>
</g>
</svg>
