<?xml version="1.0" standalone="no"?>
<!DOCTYPE svg PUBLIC "-//W3C//DTD SVG 20010904//EN"
 "http://www.w3.org/TR/2001/REC-SVG-20010904/DTD/svg10.dtd">
<svg version="1.0" xmlns="http://www.w3.org/2000/svg"
 width="1200.000000pt" height="1200.000000pt" viewBox="0 0 1200.000000 1200.000000"
 preserveAspectRatio="xMidYMid meet">
<g transform="translate(0.000000,1200.000000) scale(0.100000,-0.100000)"
fill="#000000" stroke="none">
<path d="M5475 10879 c-764 -37 -1489 -140 -2250 -320 -372 -87 -482 -135
-666 -286 -218 -179 -333 -398 -398 -758 -28 -156 -111 -674 -111 -694 0 -5
-35 -17 -78 -26 -82 -18 -257 -77 -306 -102 -52 -27 -127 -106 -160 -168 -29
-56 -31 -67 -31 -160 0 -160 66 -270 204 -338 61 -30 73 -32 169 -32 104 0
104 0 98 -40 -8 -54 -44 -492 -52 -638 -4 -72 -11 -120 -18 -122 -346 -90
-441 -142 -511 -282 -45 -88 -44 -240 1 -328 90 -172 268 -245 462 -189 22 6
22 6 22 -390 0 -272 -3 -396 -11 -396 -5 0 -41 5 -79 11 -300 46 -529 -264
-395 -536 33 -67 103 -138 170 -171 52 -25 231 -63 302 -64 44 0 49 -14 57
-160 7 -135 42 -570 51 -635 6 -40 6 -40 -67 -41 -220 -3 -378 -175 -366 -398
5 -100 29 -157 94 -227 78 -82 136 -106 398 -165 39 -9 39 -9 82 -284 105
-681 139 -803 285 -1010 180 -254 390 -379 811 -479 720 -173 1359 -269 2138
-323 245 -17 1114 -17 1360 0 763 53 1388 146 2100 314 398 93 552 167 737
354 173 176 258 354 317 667 419 2224 424 4681 15 6997 -67 378 -147 556 -332
744 -185 187 -339 261 -737 354 -1115 263 -2247 373 -3305 321z m955 -749
c760 -32 1461 -131 2205 -312 233 -56 266 -70 336 -135 92 -86 113 -166 209
-788 165 -1081 228 -1978 217 -3095 -7 -668 -24 -1000 -83 -1620 -65 -689
-211 -1648 -269 -1765 -30 -62 -108 -139 -168 -165 -67 -29 -433 -118 -722
-175 -1609 -316 -3183 -281 -4783 106 -237 57 -274 71 -342 135 -91 85 -103
125 -180 610 -53 334 -61 294 68 322 59 13 135 36 169 52 241 111 291 426 98
609 -102 97 -226 123 -390 83 -44 -11 -81 -18 -83 -17 -8 6 -72 744 -72 826 0
35 2 38 33 43 288 44 353 64 430 135 171 158 152 450 -37 580 -99 68 -181 81
-343 54 -56 -10 -106 -14 -110 -9 -10 10 -11 802 0 812 4 4 40 -2 80 -14 100
-29 127 -33 192 -22 254 41 394 305 283 532 -71 142 -165 196 -486 278 -44 11
-44 11 -37 98 26 356 61 721 69 729 3 3 20 0 38 -6 328 -118 628 214 471 522
-55 109 -166 182 -342 224 -85 20 -81 -10 -36 286 76 485 90 540 166 622 79
86 108 97 489 185 960 223 1978 320 2930 280z"/>
<path d="M6005 8390 c-620 -98 -1025 -573 -1025 -1205 0 -521 270 -936 727
-1115 54 -21 91 -41 83 -43 -8 -3 -62 -12 -120 -22 -694 -112 -1332 -436
-1570 -798 -299 -454 -74 -1059 486 -1305 644 -284 1811 -356 2667 -166 299
66 587 172 733 269 431 287 559 836 286 1220 -128 180 -310 326 -572 460 -294
149 -667 270 -985 320 -150 23 -150 23 -65 54 502 185 806 687 752 1241 -54
550 -400 948 -932 1071 -98 23 -368 34 -465 19z m318 -755 c203 -43 330 -216
330 -450 0 -250 -141 -424 -370 -457 -326 -47 -553 140 -553 457 0 332 252
523 593 450z m222 -2364 c477 -84 910 -260 1077 -439 44 -46 46 -52 38 -86
-20 -88 -85 -131 -310 -204 -609 -197 -1502 -212 -2193 -37 -380 96 -511 205
-396 330 175 190 720 396 1199 455 128 15 449 5 585 -19z"/>
</g>
</svg>
