<?xml version="1.0" standalone="no"?>
<!DOCTYPE svg PUBLIC "-//W3C//DTD SVG 20010904//EN"
 "http://www.w3.org/TR/2001/REC-SVG-20010904/DTD/svg10.dtd">
<svg version="1.0" xmlns="http://www.w3.org/2000/svg"
 width="1200.000000pt" height="1200.000000pt" viewBox="0 0 1200.000000 1200.000000"
 preserveAspectRatio="xMidYMid meet">
<g transform="translate(0.000000,1200.000000) scale(0.100000,-0.100000)"
fill="#000000" stroke="none">
<path d="M3631 11984 c-127 -46 -213 -148 -326 -388 -220 -467 -221 -974 0
-1441 99 -211 194 -333 291 -376 214 -95 460 22 519 246 30 118 12 207 -72
341 -241 383 -242 624 -2 1014 86 140 104 227 74 345 -28 107 -95 189 -198
242 -66 34 -215 43 -286 17z"/>
<path d="M5488 11976 c-116 -48 -189 -136 -299 -361 -265 -546 -223 -1179 111
-1678 145 -217 400 -257 580 -90 146 135 162 322 42 510 -241 380 -242 656 -4
1029 124 194 110 380 -40 519 -104 96 -260 125 -390 71z"/>
<path d="M7381 11984 c-127 -46 -213 -148 -326 -388 -220 -467 -221 -974 0
-1441 99 -211 194 -333 291 -376 214 -95 460 22 519 246 30 118 12 207 -72
341 -241 383 -242 624 -2 1014 86 140 104 227 74 345 -28 107 -95 189 -198
242 -66 34 -215 43 -286 17z"/>
<path d="M5405 9374 c-1010 -33 -2027 -206 -2896 -493 -333 -111 -368 -146
-458 -454 -180 -617 -226 -1485 -130 -2447 131 -1323 489 -2568 1008 -3505
430 -777 711 -1026 1326 -1175 966 -235 1811 -233 2770 6 435 109 703 281 943
606 309 417 623 1041 857 1705 3 8 45 -8 127 -46 785 -374 1519 -137 1917 619
295 561 446 1550 329 2160 -113 592 -482 981 -1044 1102 -156 33 -536 33 -689
0 -54 -12 -100 -20 -101 -19 -1 1 -7 61 -14 132 -42 469 -157 984 -249 1119
-66 96 -116 124 -364 205 -996 327 -2312 518 -3332 485z m975 -778 c732 -64
1477 -210 1990 -388 95 -33 95 -33 117 -128 153 -636 166 -1625 32 -2525 -164
-1106 -508 -2145 -958 -2895 -303 -503 -387 -563 -966 -680 -696 -142 -1338
-134 -2055 25 -472 105 -559 173 -854 665 -505 841 -881 2072 -1005 3285 -64
629 -53 1376 29 1860 18 107 68 346 75 353 5 6 220 76 345 112 602 174 1263
285 1970 330 221 14 1066 5 1280 -14z m3673 -1895 c218 -56 327 -177 392 -435
127 -504 -56 -1509 -343 -1887 -181 -238 -401 -290 -715 -169 -158 61 -340
165 -332 190 135 436 315 1681 315 2182 0 67 0 67 57 84 185 54 486 70 626 35z"/>
</g>
</svg>
