<?xml version="1.0" standalone="no"?>
<!DOCTYPE svg PUBLIC "-//W3C//DTD SVG 20010904//EN"
 "http://www.w3.org/TR/2001/REC-SVG-20010904/DTD/svg10.dtd">
<svg version="1.0" xmlns="http://www.w3.org/2000/svg"
 width="1200.000000pt" height="1200.000000pt" viewBox="0 0 1200.000000 1200.000000"
 preserveAspectRatio="xMidYMid meet">
<g transform="translate(0.000000,1200.000000) scale(0.100000,-0.100000)"
fill="#000000" stroke="none">
<path d="M5876 11985 c-105 -40 -187 -120 -228 -224 -20 -52 -22 -77 -26 -322
l-4 -265 -101 -23 c-289 -65 -630 -207 -972 -404 -215 -125 -257 -174 -326
-379 -149 -444 -78 -953 199 -1423 29 -50 29 -50 -35 -215 -146 -374 -324
-942 -428 -1360 -202 -818 -292 -1714 -235 -2355 8 -88 14 -175 15 -194 0 -39
51 -18 -390 -161 -365 -119 -547 -201 -617 -279 -137 -152 -138 -359 -1 -511
43 -48 147 -110 185 -110 31 0 22 -15 -87 -145 -781 -931 -1170 -1581 -1292
-2155 -35 -163 -40 -480 -10 -618 57 -259 143 -406 271 -463 147 -64 1203
-255 1914 -345 319 -40 343 -41 425 -13 189 63 294 256 247 454 -130 548 230
1372 790 1806 577 448 1084 449 1657 3 561 -437 920 -1255 794 -1805 -47 -204
55 -394 246 -458 81 -27 104 -27 394 9 713 88 1793 282 1943 348 130 58 215
203 273 464 30 138 25 455 -10 618 -122 576 -498 1203 -1291 2155 -116 139
-116 139 -58 157 266 84 342 438 135 629 -83 76 -302 167 -736 305 -142 45
-260 84 -262 86 -3 2 0 60 6 129 15 169 5 798 -15 999 -93 913 -317 1825 -680
2777 -47 123 -47 123 -8 180 293 433 381 996 230 1473 -69 217 -114 270 -336
399 -343 198 -687 340 -989 407 l-83 19 0 225 c0 124 -4 252 -10 284 -20 123
-102 235 -210 285 -68 32 -219 40 -284 16z m364 -1523 c180 -48 428 -158 700
-310 124 -70 125 -70 138 -119 23 -85 26 -228 7 -328 -18 -97 -70 -244 -89
-251 -6 -2 -74 9 -151 25 -552 116 -1215 112 -1733 -9 -46 -11 -90 -20 -98
-20 -37 0 -102 210 -111 355 -7 116 17 263 45 280 288 177 638 336 847 386
108 25 334 21 445 -9z m166 -1680 c163 -29 347 -73 360 -86 7 -6 43 -92 82
-191 431 -1104 646 -2041 677 -2945 6 -163 -6 -515 -18 -526 -2 -2 -37 3 -78
11 -870 184 -1899 187 -2811 9 -72 -14 -134 -22 -139 -17 -29 30 -36 736 -9
1003 69 691 230 1380 495 2119 78 218 192 511 206 527 19 23 329 89 539 114
131 15 569 4 696 -18z m-96 -4362 c525 -27 1250 -147 1338 -222 16 -14 42 -30
58 -37 16 -7 47 -34 69 -60 22 -27 173 -203 336 -392 1211 -1410 1549 -1934
1595 -2476 16 -192 23 -185 -244 -237 -353 -68 -1030 -176 -1106 -176 -21 0
-22 6 -34 144 -56 678 -308 1214 -806 1712 -849 847 -1884 927 -2798 214 -112
-87 -376 -352 -473 -474 -334 -421 -521 -901 -567 -1452 -11 -137 -13 -144
-34 -144 -77 0 -832 121 -1161 187 -182 36 -182 36 -189 90 -20 164 43 439
157 681 203 433 547 893 1469 1966 179 208 330 384 335 390 6 7 26 21 45 31
19 10 49 28 65 40 19 15 79 34 166 54 604 137 1195 191 1779 161z"/>
</g>
</svg>
