<?xml version="1.0" standalone="no"?>
<!DOCTYPE svg PUBLIC "-//W3C//DTD SVG 20010904//EN"
 "http://www.w3.org/TR/2001/REC-SVG-20010904/DTD/svg10.dtd">
<svg version="1.0" xmlns="http://www.w3.org/2000/svg"
 width="1200.000000pt" height="1200.000000pt" viewBox="0 0 1200.000000 1200.000000"
 preserveAspectRatio="xMidYMid meet">
<g transform="translate(0.000000,1200.000000) scale(0.100000,-0.100000)"
fill="#000000" stroke="none">
<path d="M5550 10630 c-1749 -124 -3019 -779 -3793 -1956 -1026 -1560 -1005
-3962 46 -5464 852 -1218 2289 -1850 4202 -1850 763 0 1384 88 1985 282 389
126 484 179 553 312 47 91 48 241 1 331 -102 195 -300 257 -524 165 -919 -379
-2405 -450 -3535 -169 -1733 431 -2727 1774 -2727 3684 1 1724 818 3032 2242
3588 1137 444 2821 451 3970 17 1285 -486 2072 -1544 2244 -3020 44 -370 49
-1430 8 -1586 -202 -776 -1274 -859 -1580 -123 -65 158 -62 74 -62 1728 0
1073 -3 1515 -11 1553 -63 295 -421 404 -633 192 -88 -87 -115 -182 -116 -397
l0 -108 -82 64 c-580 452 -1446 633 -2322 486 -1240 -208 -1989 -1102 -1989
-2374 0 -1285 768 -2172 2038 -2354 992 -142 1896 99 2453 655 l112 112 56
-87 c237 -363 592 -608 1021 -703 144 -32 463 -32 610 0 704 152 1202 708
1274 1420 17 165 6 1284 -15 1482 -198 1928 -1214 3249 -2941 3825 -444 149
-852 229 -1450 286 -145 14 -876 20 -1035 9z m810 -2996 c910 -101 1433 -663
1457 -1566 31 -1152 -702 -1788 -1978 -1719 -564 31 -939 171 -1224 456 -282
282 -422 645 -432 1125 -15 687 243 1205 742 1488 348 198 879 278 1435 216z"/>
</g>
</svg>
