<?xml version="1.0" standalone="no"?>
<!DOCTYPE svg PUBLIC "-//W3C//DTD SVG 20010904//EN"
 "http://www.w3.org/TR/2001/REC-SVG-20010904/DTD/svg10.dtd">
<svg version="1.0" xmlns="http://www.w3.org/2000/svg"
 width="1200.000000pt" height="1200.000000pt" viewBox="0 0 1200.000000 1200.000000"
 preserveAspectRatio="xMidYMid meet">
<g transform="translate(0.000000,1200.000000) scale(0.100000,-0.100000)"
fill="#000000" stroke="none">
<path d="M5755 10869 c-2010 -99 -3760 -1436 -4390 -3352 -319 -970 -319
-2064 0 -3034 544 -1655 1939 -2903 3641 -3256 1836 -382 3709 314 4864 1808
795 1027 1141 2356 954 3665 -245 1720 -1409 3193 -3029 3833 -508 201 -1010
309 -1570 337 -218 11 -247 11 -470 -1z m590 -759 c1275 -110 2423 -799 3117
-1870 283 -438 483 -930 583 -1435 103 -522 101 -1108 -6 -1634 -274 -1354
-1231 -2496 -2519 -3004 -148 -59 -390 -141 -395 -135 -1 2 1 37 6 78 36 337
60 819 62 1256 l2 362 98 11 c204 23 485 99 585 157 214 126 449 547 535 959
52 248 70 601 38 750 -26 121 -101 220 -204 269 -143 69 -817 206 -1012 206
-88 0 -92 13 -40 118 70 139 122 164 360 173 151 5 189 10 238 29 121 46 212
165 311 406 200 490 177 1029 -63 1520 -80 163 -144 234 -248 276 -114 46
-620 26 -927 -37 -1173 -237 -1971 -1146 -2085 -2373 -5 -57 -11 -105 -13
-107 -2 -2 -57 -11 -123 -20 -170 -23 -327 -59 -498 -115 -301 -100 -339 -133
-457 -400 -206 -468 -206 -882 0 -1350 116 -264 156 -300 441 -394 140 -47
314 -87 459 -106 172 -22 154 -8 146 -113 -14 -206 20 -938 63 -1362 10 -93
17 -171 16 -173 -11 -16 -452 156 -640 250 -1259 628 -2087 1798 -2272 3213
-26 201 -26 768 0 970 110 843 431 1573 971 2204 698 817 1752 1351 2811 1424
119 8 550 6 660 -3z m1102 -2321 c48 -169 52 -350 13 -529 -30 -141 -27 -136
-112 -143 -447 -38 -832 -402 -928 -876 -34 -168 -27 -591 12 -673 37 -79 98
-142 175 -180 61 -30 72 -32 231 -39 425 -21 546 -34 770 -81 120 -25 113 -10
83 -190 -33 -188 -95 -361 -175 -481 -37 -55 -37 -55 -124 -76 -141 -34 -214
-42 -447 -51 -263 -9 -301 -19 -395 -107 -119 -110 -116 -86 -112 -723 4 -552
-3 -806 -34 -1200 -17 -231 -51 -541 -60 -549 -10 -11 -732 -7 -743 4 -11 11
-53 372 -75 645 -31 379 -38 600 -34 1100 4 581 6 564 -112 673 -92 85 -134
97 -375 107 -271 12 -583 61 -630 100 -21 17 -73 189 -84 275 -13 103 1 211
41 332 36 110 31 105 139 137 144 41 326 67 542 76 268 11 340 40 429 170 53
77 65 141 77 410 11 242 26 370 61 519 145 616 555 1090 1130 1304 196 73 474
127 635 124 80 -2 80 -2 102 -78z"/>
</g>
</svg>
