<?xml version="1.0" standalone="no"?>
<!DOCTYPE svg PUBLIC "-//W3C//DTD SVG 20010904//EN"
 "http://www.w3.org/TR/2001/REC-SVG-20010904/DTD/svg10.dtd">
<svg version="1.0" xmlns="http://www.w3.org/2000/svg"
 width="1200.000000pt" height="1200.000000pt" viewBox="0 0 1200.000000 1200.000000"
 preserveAspectRatio="xMidYMid meet">
<g transform="translate(0.000000,1200.000000) scale(0.100000,-0.100000)"
fill="#000000" stroke="none">
<path d="M4460 9740 c-1521 -100 -2908 -639 -4075 -1584 -279 -226 -333 -290
-356 -422 -21 -121 -2 -172 182 -481 1059 -1776 2812 -3744 4304 -4833 182
-132 205 -143 400 -191 1834 -445 4707 -479 6682 -79 174 36 220 56 294 130
87 86 102 135 107 345 14 622 -108 1437 -314 2103 -825 2663 -3169 4631 -5914
4967 -373 45 -980 66 -1310 45z m440 -746 c0 -4 -27 -149 -59 -323 -186 -989
-352 -2182 -416 -2994 -7 -78 -10 -88 -29 -92 -11 -2 -48 -9 -81 -15 -109 -21
-258 -60 -383 -101 -68 -23 -127 -37 -132 -33 -31 34 -295 904 -395 1305 -171
680 -325 1553 -337 1908 -3 75 -3 75 57 93 306 96 796 192 1165 228 226 23
610 37 610 24z m970 -79 c347 -54 704 -142 1038 -254 289 -97 276 -89 242
-163 -395 -867 -1372 -2994 -1378 -3000 -4 -4 -45 4 -91 17 -101 30 -295 70
-411 85 -47 7 -87 14 -89 16 -20 20 129 1284 224 1901 66 423 231 1358 250
1411 6 17 38 15 215 -13z m-3540 -480 c0 -8 11 -103 25 -212 116 -913 331
-1837 646 -2778 67 -198 122 -365 123 -371 1 -11 -174 -156 -185 -152 -3 2
-66 70 -138 152 -699 791 -1403 1732 -1860 2488 -22 36 -22 36 111 136 351
263 710 482 1103 673 176 86 175 85 175 64z m5683 -266 c424 -243 866 -568
1180 -869 l68 -65 -217 -260 c-578 -692 -1152 -1322 -1776 -1950 l-278 -280
-67 67 c-87 85 -267 228 -376 298 -47 30 -86 59 -86 64 -1 11 1401 3076 1407
3076 2 0 68 -37 145 -81z m1926 -1704 c284 -375 530 -791 725 -1227 36 -81 66
-150 66 -153 0 -9 -329 -222 -520 -337 -514 -309 -1138 -625 -1720 -873 -269
-114 -700 -283 -758 -297 -8 -2 -27 35 -52 102 -22 58 -80 187 -131 288 l-91
183 374 377 c629 634 1197 1258 1762 1934 181 217 181 217 199 195 10 -12 75
-98 146 -192z m-4767 -1611 c1015 -131 1813 -944 1933 -1970 25 -213 32 -198
-82 -190 -151 11 -538 45 -633 57 -554 66 -853 114 -1215 195 -148 33 -137 27
-325 170 -373 283 -729 595 -1143 1004 -284 280 -276 241 -79 373 295 197 630
322 977 366 121 15 432 12 567 -5z m5837 -591 c111 -415 211 -1041 211 -1330
0 -60 16 -54 -265 -97 -625 -96 -1267 -151 -2045 -176 -347 -11 -887 -13 -979
-4 -61 7 -61 7 -61 88 0 81 0 81 163 140 983 356 2190 950 2892 1422 27 19 53
34 56 34 4 0 16 -35 28 -77z"/>
</g>
</svg>
