<?xml version="1.0" standalone="no"?>
<!DOCTYPE svg PUBLIC "-//W3C//DTD SVG 20010904//EN"
 "http://www.w3.org/TR/2001/REC-SVG-20010904/DTD/svg10.dtd">
<svg version="1.0" xmlns="http://www.w3.org/2000/svg"
 width="1200.000000pt" height="1200.000000pt" viewBox="0 0 1200.000000 1200.000000"
 preserveAspectRatio="xMidYMid meet">
<g transform="translate(0.000000,1200.000000) scale(0.100000,-0.100000)"
fill="#000000" stroke="none">
<path d="M6490 11613 c-786 -45 -1567 -194 -2330 -445 -396 -130 -395 -129
-674 -403 -95 -93 -107 -139 -125 -485 -37 -691 -222 -1599 -467 -2288 -427
-1202 -1053 -2104 -1911 -2754 -212 -161 -271 -288 -217 -469 45 -151 129
-218 355 -284 624 -181 1330 -327 2012 -414 82 -11 151 -21 153 -24 3 -2 27
-125 54 -273 75 -412 86 -464 114 -538 50 -132 136 -247 248 -331 89 -67 134
-88 351 -161 453 -154 950 -278 1456 -366 l74 -13 -109 -88 c-296 -239 -763
-723 -909 -942 -193 -291 80 -666 416 -569 75 21 148 74 205 147 517 659 1193
1177 1702 1303 221 54 559 60 789 14 495 -99 1159 -580 1676 -1213 188 -230
236 -262 397 -262 82 0 103 4 152 27 190 89 275 316 188 500 -93 199 -729 849
-1107 1132 -45 33 -79 64 -75 67 4 4 68 21 142 38 324 76 898 250 1015 308
185 93 323 252 384 444 36 111 180 923 245 1379 124 867 170 1481 170 2275 0
675 -30 1174 -113 1855 -11 85 -22 218 -26 295 -18 417 -101 978 -205 1397
-53 209 -65 233 -190 361 -175 180 -220 207 -518 308 -782 265 -1551 417
-2362 469 -147 9 -817 11 -960 3z m940 -754 c561 -32 1183 -142 1772 -313 174
-51 520 -165 530 -174 14 -14 176 -928 166 -937 -3 -4 -89 16 -189 44 -698
191 -1374 304 -2179 363 -233 17 -1067 17 -1305 0 -782 -56 -1492 -179 -2080
-361 -71 -22 -131 -39 -132 -37 -2 1 13 126 31 277 19 151 40 328 47 394 6 66
16 126 21 132 6 7 18 38 28 70 18 58 18 58 236 130 1047 344 2002 473 3054
412z m250 -1758 c792 -66 1514 -203 2161 -410 126 -41 126 -41 133 -117 25
-306 -34 -819 -146 -1258 -202 -797 -619 -1473 -1207 -1959 -165 -137 -161
-134 -394 -199 -1980 -543 -4166 -580 -6195 -102 l-113 26 143 147 c852 868
1457 1998 1768 3301 12 52 28 100 34 107 32 32 594 188 946 262 543 114 1012
174 1665 215 121 7 1084 -3 1205 -13z m2381 -3424 c-54 -574 -139 -1164 -272
-1890 l-52 -285 -196 -65 c-898 -300 -1694 -432 -2606 -431 -791 1 -1472 100
-2255 328 -185 54 -510 162 -521 173 -7 9 -92 463 -87 469 2 1 80 -2 173 -8
234 -14 1033 -14 1295 1 1085 60 2058 220 3018 495 223 65 254 79 382 176 439
335 817 758 1091 1219 26 45 45 68 47 58 2 -9 -6 -117 -17 -240z"/>
</g>
</svg>
