<?xml version="1.0" standalone="no"?>
<!DOCTYPE svg PUBLIC "-//W3C//DTD SVG 20010904//EN"
 "http://www.w3.org/TR/2001/REC-SVG-20010904/DTD/svg10.dtd">
<svg version="1.0" xmlns="http://www.w3.org/2000/svg"
 width="1200.000000pt" height="1200.000000pt" viewBox="0 0 1200.000000 1200.000000"
 preserveAspectRatio="xMidYMid meet">
<g transform="translate(0.000000,1200.000000) scale(0.100000,-0.100000)"
fill="#000000" stroke="none">
<path d="M1535 10493 c-891 -115 -1411 -1046 -1034 -1851 39 -84 39 -84 -12
-133 -200 -195 -121 -526 146 -608 52 -16 52 -16 28 -116 -340 -1471 -378
-3072 -107 -4575 81 -448 227 -1041 282 -1143 50 -93 154 -165 267 -186 77
-14 1091 -15 1166 -1 118 22 223 100 273 203 14 28 50 148 78 265 29 116 56
212 59 212 3 0 22 -60 43 -133 134 -463 165 -521 323 -601 320 -160 810 -344
1238 -464 927 -261 1950 -303 2910 -121 567 107 1172 306 1702 559 142 67 199
118 243 213 28 60 170 516 170 546 0 41 19 -20 67 -211 72 -292 116 -369 246
-432 88 -43 132 -46 687 -46 557 0 608 3 693 47 118 59 167 133 221 328 261
953 382 1822 393 2837 11 964 -68 1745 -265 2633 -38 170 -38 170 13 186 267
82 346 413 146 608 -51 49 -51 49 -12 133 358 767 -91 1655 -929 1834 -106 22
-298 29 -414 15 -890 -112 -1409 -1049 -1028 -1855 37 -79 37 -79 -10 -124
-99 -92 -142 -244 -104 -364 37 -115 145 -222 252 -249 24 -6 44 -13 44 -14 0
-2 -18 -84 -40 -182 -21 -98 -47 -220 -56 -270 -10 -51 -21 -93 -24 -93 -4 0
-35 48 -70 108 -710 1209 -1892 2171 -2792 2271 -124 14 -499 14 -642 1 -910
-87 -2106 -1059 -2818 -2292 -28 -49 -54 -88 -58 -88 -3 0 -12 30 -19 68 -6
37 -32 158 -56 268 -25 111 -45 204 -45 207 0 2 20 10 44 16 23 6 70 29 103
51 195 130 217 401 45 562 -49 46 -49 46 -31 79 347 648 61 1477 -618 1790
-202 94 -487 139 -698 112z m270 -758 c110 -23 189 -68 276 -154 354 -354 107
-951 -394 -951 -156 0 -279 52 -392 165 -394 394 -35 1055 510 940z m8686 -18
c237 -86 379 -285 379 -530 0 -310 -247 -557 -557 -557 -501 0 -749 598 -394
950 158 157 375 209 572 137z m-4871 -4295 l0 -3528 -97 8 c-622 52 -1274 219
-1904 489 -116 50 -116 50 -172 227 -257 813 -397 1592 -438 2437 -26 541 7
834 134 1210 382 1123 1481 2358 2359 2650 57 19 106 34 111 35 4 0 7 -1588 7
-3528z m884 3487 c918 -314 2065 -1638 2391 -2760 100 -345 120 -573 95 -1094
-41 -853 -179 -1621 -437 -2437 l-56 -178 -145 -61 c-621 -263 -1256 -425
-1879 -477 l-93 -8 0 3523 c0 3251 1 3523 16 3523 9 0 58 -14 108 -31z m-4547
-1179 c287 -1170 363 -2556 208 -3805 -49 -394 -127 -826 -208 -1155 l-33
-135 -236 -3 -236 -2 -36 147 c-195 807 -280 1550 -280 2463 -1 915 82 1661
275 2463 l41 167 236 -2 236 -3 33 -135z m8627 -7 c196 -812 280 -1553 280
-2473 0 -912 -83 -1654 -275 -2453 l-41 -167 -236 2 -236 3 -33 135 c-322
1315 -376 2846 -147 4230 49 300 146 762 179 858 3 9 60 12 239 12 l234 0 36
-147z"/>
</g>
</svg>
