<?xml version="1.0" standalone="no"?>
<!DOCTYPE svg PUBLIC "-//W3C//DTD SVG 20010904//EN"
 "http://www.w3.org/TR/2001/REC-SVG-20010904/DTD/svg10.dtd">
<svg version="1.0" xmlns="http://www.w3.org/2000/svg"
 width="1200.000000pt" height="1200.000000pt" viewBox="0 0 1200.000000 1200.000000"
 preserveAspectRatio="xMidYMid meet">
<g transform="translate(0.000000,1200.000000) scale(0.100000,-0.100000)"
fill="#000000" stroke="none">
<path d="M5365 10489 c-945 -42 -2025 -196 -2894 -413 -314 -79 -542 -225
-718 -460 -124 -167 -176 -303 -257 -676 -504 -2322 -499 -4658 15 -6997 58
-265 106 -345 247 -411 83 -39 221 -39 304 0 176 82 252 248 208 453 -253
1170 -358 2006 -391 3106 -37 1211 100 2595 377 3804 69 303 154 392 439 460
254 61 819 175 867 175 10 0 25 -34 47 -107 149 -489 400 -1048 684 -1521 44
-73 78 -134 76 -136 -2 -1 -35 -24 -74 -51 -1229 -857 -1643 -2453 -983 -3793
434 -882 1277 -1493 2268 -1643 220 -34 624 -34 840 -1 543 84 1031 295 1450
628 109 87 387 364 474 474 332 418 544 908 628 1450 32 212 32 629 -1 840
-65 423 -200 793 -416 1146 -208 340 -545 694 -857 902 -38 25 -68 49 -68 54
0 5 17 37 39 71 283 455 559 1062 711 1562 19 61 37 114 41 119 10 11 63 2
404 -66 627 -124 707 -153 810 -290 60 -80 75 -125 138 -423 173 -812 271
-1534 329 -2430 18 -272 18 -1409 0 -1680 -60 -927 -171 -1720 -354 -2540 -48
-216 -48 -277 -1 -377 120 -255 473 -293 638 -68 48 65 59 100 115 360 394
1822 478 3697 245 5510 -78 606 -247 1515 -326 1755 -121 365 -413 654 -776
769 -160 50 -774 181 -1153 246 -1011 172 -2133 244 -3125 199z m1175 -749
c408 -18 1130 -78 1130 -95 0 -15 -125 -363 -174 -483 -138 -342 -376 -801
-544 -1051 -8 -11 -28 -8 -113 17 -564 164 -1133 163 -1692 -5 -53 -16 -91
-23 -97 -17 -70 70 -414 724 -535 1018 -71 171 -191 514 -183 521 19 19 809
84 1198 98 207 8 803 6 1010 -3z m-215 -2265 c997 -153 1748 -906 1901 -1905
40 -256 21 -602 -47 -872 -313 -1244 -1599 -1968 -2839 -1598 -1198 357 -1868
1657 -1475 2858 282 859 1039 1451 1965 1536 88 8 397 -4 495 -19z"/>
<path d="M5845 5986 c-354 -82 -595 -380 -595 -736 0 -334 214 -620 540 -722
168 -52 401 -28 560 59 255 139 395 373 395 663 0 290 -140 524 -395 663 -141
76 -356 107 -505 73z"/>
</g>
</svg>
