<?xml version="1.0" standalone="no"?>
<!DOCTYPE svg PUBLIC "-//W3C//DTD SVG 20010904//EN"
 "http://www.w3.org/TR/2001/REC-SVG-20010904/DTD/svg10.dtd">
<svg version="1.0" xmlns="http://www.w3.org/2000/svg"
 width="1200.000000pt" height="1200.000000pt" viewBox="0 0 1200.000000 1200.000000"
 preserveAspectRatio="xMidYMid meet">
<g transform="translate(0.000000,1200.000000) scale(0.100000,-0.100000)"
fill="#000000" stroke="none">
<path d="M2540 10434 c-14 -2 -59 -9 -100 -15 -680 -97 -1164 -470 -1351
-1040 -191 -582 -318 -2191 -280 -3539 31 -1089 118 -1874 292 -2640 49 -215
71 -265 148 -338 32 -31 78 -88 101 -127 169 -278 452 -522 793 -686 105 -49
105 -49 112 -96 33 -225 217 -516 447 -709 329 -276 737 -447 1353 -568 2151
-422 4718 -266 6700 406 281 95 314 125 414 375 204 514 367 1198 450 1888
117 972 90 2060 -74 2950 -118 642 -351 1374 -484 1517 -67 73 -232 144 -632
272 l-175 56 -43 138 c-24 75 -63 193 -88 262 -142 394 -180 444 -416 531
-1001 373 -2010 569 -3397 660 -604 39 -1753 17 -2425 -46 -338 -32 -299 -39
-328 51 -14 44 -42 135 -62 204 -99 341 -196 429 -540 485 -81 14 -345 19
-415 9z m215 -772 c50 -7 50 -7 87 -82 254 -518 417 -1742 369 -2760 -43 -905
-164 -1549 -371 -1977 -57 -117 -61 -123 -97 -131 -21 -6 -119 -29 -218 -52
-316 -75 -572 -167 -744 -270 -46 -28 -85 -49 -86 -48 -9 14 -78 742 -99 1048
-39 555 -47 1470 -17 1965 59 974 162 1676 283 1925 123 254 534 429 893 382z
m3150 -672 c1053 -35 2026 -177 2880 -421 210 -60 562 -178 573 -192 17 -21
100 -270 146 -440 184 -674 260 -1312 261 -2197 0 -765 -49 -1307 -176 -1945
-70 -352 -221 -867 -257 -878 -9 -3 -114 -34 -232 -70 -1440 -436 -3199 -605
-4850 -466 -531 44 -1169 144 -1474 229 -518 146 -882 417 -916 684 -21 163
24 258 173 367 223 164 535 279 1027 379 180 37 235 71 327 207 246 363 414
938 513 1753 102 843 93 1988 -21 2759 -24 158 -23 160 36 161 17 0 102 7 190
15 613 54 1242 73 1800 55z m4622 -1850 c502 -1415 487 -3863 -31 -5279 -27
-76 -13 -69 -351 -167 -1837 -534 -4111 -641 -5956 -278 -282 55 -487 118
-671 208 -109 52 -216 120 -178 112 134 -27 736 -98 1030 -120 718 -55 1505
-55 2215 0 1101 85 2145 290 3068 603 258 87 293 120 392 371 437 1112 617
2672 474 4120 -11 113 -31 282 -45 377 -29 204 -28 185 -8 181 11 -2 31 -44
61 -128z"/>
<path d="M8495 7445 c-209 -79 -300 -95 -565 -102 -118 -2 -265 0 -325 5 -181
16 -281 -13 -371 -110 -74 -79 -99 -145 -99 -258 0 -121 34 -200 120 -279 82
-74 139 -92 312 -100 l143 -6 -159 -170 c-277 -298 -581 -585 -871 -826 -135
-112 -285 -229 -294 -229 -9 0 -204 166 -347 296 -150 137 -254 247 -378 402
-141 176 -266 242 -458 242 -189 0 -311 -75 -589 -362 -173 -179 -431 -489
-461 -555 -122 -266 111 -567 404 -521 107 17 162 56 308 223 73 82 182 201
242 264 l108 114 137 -154 c240 -272 586 -598 742 -700 150 -99 356 -109 521
-27 101 50 568 422 855 682 196 177 534 516 709 713 80 89 146 161 147 160 2
-1 10 -46 18 -99 42 -261 128 -388 298 -439 239 -73 477 102 478 352 0 59 -7
98 -34 181 -90 277 -117 499 -96 795 15 216 12 243 -30 330 -82 167 -286 245
-465 178z"/>
</g>
</svg>
