<?xml version="1.0" standalone="no"?>
<!DOCTYPE svg PUBLIC "-//W3C//DTD SVG 20010904//EN"
 "http://www.w3.org/TR/2001/REC-SVG-20010904/DTD/svg10.dtd">
<svg version="1.0" xmlns="http://www.w3.org/2000/svg"
 width="1200.000000pt" height="1200.000000pt" viewBox="0 0 1200.000000 1200.000000"
 preserveAspectRatio="xMidYMid meet">
<g transform="translate(0.000000,1200.000000) scale(0.100000,-0.100000)"
fill="#000000" stroke="none">
<path d="M5540 10494 c-995 -46 -1739 -142 -2610 -335 -402 -89 -538 -151
-728 -333 -190 -181 -270 -346 -356 -732 -238 -1067 -340 -1999 -340 -3094 0
-1102 103 -2039 344 -3110 85 -379 162 -535 357 -721 185 -176 327 -241 718
-327 1959 -432 3865 -456 5815 -71 708 140 869 204 1086 431 175 183 245 331
324 684 464 2062 467 4107 9 6188 -90 410 -166 566 -369 760 -180 172 -321
237 -695 320 -774 173 -1492 273 -2335 326 -162 11 -1073 21 -1220 14z m920
-754 c876 -33 1751 -150 2588 -346 203 -47 298 -138 342 -326 463 -1991 477
-3973 39 -5958 -92 -418 -121 -447 -534 -538 -1974 -433 -3908 -427 -5875 19
-317 72 -359 117 -440 475 -438 1955 -438 3913 1 5868 82 370 115 402 490 486
1115 251 2284 361 3389 320z"/>
<path d="M5930 8620 c-428 -54 -619 -576 -328 -895 293 -321 823 -185 923 237
86 364 -224 705 -595 658z"/>
<path d="M5181 6824 c-132 -47 -228 -160 -248 -294 -32 -212 96 -388 315 -435
50 -10 333 -45 368 -45 2 0 4 -443 4 -984 l0 -984 -107 -8 c-66 -4 -143 -3
-198 4 -110 13 -177 3 -258 -40 -224 -119 -264 -433 -77 -601 70 -63 124 -85
289 -117 545 -107 1036 -102 1534 16 163 39 244 100 303 228 109 237 -77 525
-336 518 -36 -1 -138 -3 -227 -5 l-163 -3 0 988 c0 554 4 988 9 988 4 0 75 7
157 15 263 27 364 65 444 167 151 191 83 474 -138 576 -84 38 -172 41 -308 9
-354 -83 -718 -84 -1079 -2 -124 28 -220 31 -284 9z"/>
</g>
</svg>
