<?xml version="1.0" standalone="no"?>
<!DOCTYPE svg PUBLIC "-//W3C//DTD SVG 20010904//EN"
 "http://www.w3.org/TR/2001/REC-SVG-20010904/DTD/svg10.dtd">
<svg version="1.0" xmlns="http://www.w3.org/2000/svg"
 width="1200.000000pt" height="1200.000000pt" viewBox="0 0 1200.000000 1200.000000"
 preserveAspectRatio="xMidYMid meet">
<g transform="translate(0.000000,1200.000000) scale(0.100000,-0.100000)"
fill="#000000" stroke="none">
<path d="M5530 10494 c-36 -2 -159 -8 -275 -14 -765 -39 -1571 -151 -2365
-330 -363 -81 -503 -147 -688 -324 -184 -176 -267 -342 -347 -691 -177 -776
-283 -1530 -337 -2395 -17 -271 -17 -1209 0 -1480 54 -862 154 -1577 332
-2370 85 -379 162 -535 357 -721 185 -176 327 -241 718 -327 1959 -432 3865
-456 5815 -71 717 142 872 204 1094 440 179 190 240 328 330 739 453 2069 448
4103 -14 6160 -84 374 -164 536 -352 716 -174 166 -326 242 -623 310 -776 179
-1557 291 -2405 345 -160 10 -1109 20 -1240 13z m955 -754 c823 -33 1584 -131
2410 -311 406 -89 441 -121 524 -495 436 -1944 439 -3871 9 -5829 -90 -412
-121 -443 -533 -533 -1974 -433 -3908 -427 -5875 19 -317 72 -359 117 -440
475 -165 737 -262 1436 -312 2234 -16 263 -16 1152 0 1405 55 854 161 1584
342 2362 33 140 99 230 213 289 15 8 126 37 245 64 1130 254 2305 364 3417
320z"/>
<path d="M3792 8230 c-381 -100 -542 -565 -304 -879 283 -374 877 -258 992
195 107 418 -270 793 -688 684z"/>
<path d="M3785 6734 c-169 -38 -282 -109 -303 -189 -54 -203 -104 -921 -104
-1480 0 -561 53 -1323 104 -1484 46 -148 375 -247 621 -187 74 17 210 76 240
104 39 35 56 89 76 243 105 816 107 1770 6 2591 -32 259 -42 281 -153 337
-145 73 -337 99 -487 65z"/>
<path d="M5663 6735 c-201 -36 -289 -92 -312 -195 -81 -371 -125 -1526 -81
-2155 29 -421 72 -779 99 -834 105 -205 761 -238 929 -47 45 52 47 91 18 357
-118 1073 -16 1570 359 1749 375 178 697 49 850 -340 124 -318 138 -828 39
-1481 -36 -238 -24 -286 85 -340 191 -96 493 -97 721 -5 130 53 149 85 179
296 90 630 95 1198 16 1629 -128 694 -470 1156 -973 1315 -453 142 -1058 -7
-1310 -324 -39 -49 -39 -49 -44 83 -7 184 -25 219 -127 258 -128 48 -300 61
-448 34z"/>
</g>
</svg>
