<?xml version="1.0" standalone="no"?>
<!DOCTYPE svg PUBLIC "-//W3C//DTD SVG 20010904//EN"
 "http://www.w3.org/TR/2001/REC-SVG-20010904/DTD/svg10.dtd">
<svg version="1.0" xmlns="http://www.w3.org/2000/svg"
 width="1200.000000pt" height="1200.000000pt" viewBox="0 0 1200.000000 1200.000000"
 preserveAspectRatio="xMidYMid meet">
<g transform="translate(0.000000,1200.000000) scale(0.100000,-0.100000)"
fill="#000000" stroke="none">
<path d="M2950 10160 c-206 -14 -407 -39 -453 -57 -89 -35 -167 -104 -208
-184 -22 -43 -140 -498 -184 -709 -14 -69 -28 -132 -31 -141 -4 -14 -33 -17
-212 -23 -545 -17 -806 -42 -896 -84 -151 -71 -187 -140 -265 -512 -300 -1426
-348 -3283 -125 -4830 72 -500 161 -914 285 -1317 80 -263 120 -329 237 -391
80 -43 74 -42 642 -46 367 -2 538 -7 660 -20 1107 -111 1945 -368 3400 -1042
102 -47 108 -49 200 -49 95 0 95 0 265 79 1532 707 2677 987 4195 1025 377 10
402 14 498 91 96 75 122 140 221 551 465 1918 504 4188 105 6019 -65 298 -109
376 -249 441 -91 43 -435 69 -916 69 l-186 0 -28 133 c-56 270 -173 716 -202
768 -52 97 -154 168 -269 188 -201 35 -897 39 -1224 6 -792 -78 -1477 -287
-2121 -645 l-106 -59 -284 143 c-662 332 -1262 511 -1959 581 -189 19 -606 27
-790 15z m950 -804 c402 -49 770 -141 1130 -283 151 -59 479 -214 558 -263 32
-20 32 -20 32 -2975 l0 -2955 -172 86 c-810 405 -1640 641 -2483 704 -237 18
-210 3 -228 123 -259 1667 -226 3554 87 5103 31 152 89 411 102 456 7 24 52
26 479 23 260 -2 397 -7 495 -19z m5162 2 c27 -21 128 -494 202 -943 212
-1291 234 -2807 61 -4190 -23 -181 -74 -529 -78 -531 -1 0 -88 -6 -194 -13
-869 -54 -1634 -269 -2471 -693 -107 -54 -196 -98 -198 -98 -2 0 -4 1329 -4
2953 l0 2953 123 66 c531 288 1153 457 1842 501 159 10 702 6 717 -5z m-7126
-1105 c-34 -211 -95 -815 -116 -1148 -76 -1220 -9 -2535 189 -3676 40 -231 78
-307 189 -377 77 -49 135 -60 372 -66 783 -23 1427 -160 2085 -443 293 -127
775 -383 1075 -572 124 -78 184 -100 266 -101 79 0 150 22 216 66 251 170 787
467 1088 604 681 308 1250 434 2025 446 350 6 393 12 477 66 115 73 148 140
192 390 256 1440 292 3103 101 4607 -14 106 -25 200 -25 207 0 15 132 17 365
5 137 -7 117 31 180 -336 106 -616 153 -1169 162 -1905 14 -1160 -96 -2225
-334 -3240 -25 -107 -46 -196 -47 -197 0 -1 -98 -6 -216 -12 -1436 -74 -2686
-376 -3994 -965 -93 -42 -175 -76 -182 -76 -7 0 -93 36 -191 81 -1517 688
-2790 998 -4109 999 l-131 0 -56 228 c-359 1465 -398 3624 -96 5277 27 147 25
144 62 150 33 5 296 21 400 24 59 1 59 1 53 -36z"/>
</g>
</svg>
