<?xml version="1.0" standalone="no"?>
<!DOCTYPE svg PUBLIC "-//W3C//DTD SVG 20010904//EN"
 "http://www.w3.org/TR/2001/REC-SVG-20010904/DTD/svg10.dtd">
<svg version="1.0" xmlns="http://www.w3.org/2000/svg"
 width="1200.000000pt" height="1200.000000pt" viewBox="0 0 1200.000000 1200.000000"
 preserveAspectRatio="xMidYMid meet">
<g transform="translate(0.000000,1200.000000) scale(0.100000,-0.100000)"
fill="#000000" stroke="none">
<path d="M8585 11238 c-398 -45 -806 -230 -1115 -506 l-68 -61 -196 49 c-759
193 -1520 206 -2265 40 -1840 -411 -3292 -1863 -3700 -3700 -441 -1985 393
-4028 2099 -5142 1931 -1262 4472 -997 6105 637 1386 1386 1806 3443 1076
5272 -40 102 -40 102 28 245 171 355 251 669 288 1132 3 35 -1 85 -11 125 -8
36 -23 118 -32 181 -151 1078 -1137 1850 -2209 1728z m475 -763 c516 -103 918
-514 1011 -1035 19 -104 17 -353 -4 -465 -98 -539 -491 -1164 -969 -1547 -247
-196 -277 -203 -440 -96 -438 286 -812 743 -992 1210 -271 706 -101 1367 449
1738 172 116 344 180 580 214 56 8 289 -4 365 -19z m-2679 -370 c149 -14 395
-52 509 -78 65 -15 64 -9 15 -141 -86 -236 -117 -418 -116 -691 0 -576 181
-1110 551 -1625 336 -469 901 -937 1245 -1032 117 -32 335 -31 455 1 218 58
483 237 786 534 l121 118 31 -113 c107 -389 148 -737 139 -1176 -9 -416 -59
-726 -183 -1129 l-35 -113 -138 69 c-601 302 -1162 436 -1811 435 -1624 -2
-3005 -1045 -3612 -2728 -34 -94 -63 -173 -65 -176 -5 -6 -131 58 -282 142
-653 364 -1192 896 -1566 1548 -80 139 -155 284 -155 298 0 5 55 19 123 32
1141 211 1762 747 2128 1834 19 54 38 100 44 101 1440 375 2202 1838 1601
3072 -140 286 -354 552 -620 770 -39 32 -39 32 -5 38 152 27 609 32 840 10z
m-1895 -294 c5 -6 71 -37 148 -70 556 -241 872 -580 972 -1041 28 -128 25
-398 -5 -540 -139 -651 -628 -1120 -1315 -1261 -257 -53 -326 -114 -395 -349
-288 -984 -732 -1386 -1701 -1539 -202 -32 -182 -35 -197 29 -89 391 -108 555
-108 965 0 363 9 468 61 752 242 1322 1137 2457 2368 3004 134 60 155 66 172
50z m3859 -5416 c369 -50 718 -160 1078 -342 168 -85 168 -85 146 -121 -348
-576 -748 -1004 -1264 -1351 -717 -483 -1505 -714 -2380 -698 -351 7 -455 20
-882 109 -64 13 -63 7 -12 154 446 1300 1459 2152 2689 2264 135 12 483 4 625
-15z"/>
<path d="M8682 9736 c-356 -87 -542 -507 -362 -821 291 -509 1058 -301 1052
285 -3 353 -346 619 -690 536z"/>
</g>
</svg>
