<?xml version="1.0" standalone="no"?>
<!DOCTYPE svg PUBLIC "-//W3C//DTD SVG 20010904//EN"
 "http://www.w3.org/TR/2001/REC-SVG-20010904/DTD/svg10.dtd">
<svg version="1.0" xmlns="http://www.w3.org/2000/svg"
 width="1200.000000pt" height="1200.000000pt" viewBox="0 0 1200.000000 1200.000000"
 preserveAspectRatio="xMidYMid meet">
<g transform="translate(0.000000,1200.000000) scale(0.100000,-0.100000)"
fill="#000000" stroke="none">
<path d="M5770 10869 c-1857 -106 -3443 -1491 -3813 -3329 -58 -288 -71 -435
-72 -825 0 -464 30 -746 124 -1169 325 -1453 1269 -2842 2621 -3858 619 -464
927 -600 1365 -601 350 0 633 87 943 292 1234 816 2278 2096 2797 3432 352
905 465 1823 324 2649 -347 2044 -2215 3528 -4289 3409z m675 -773 c1768 -249
3034 -1793 2916 -3556 -103 -1530 -1111 -3241 -2556 -4335 -396 -300 -567
-374 -839 -362 -205 9 -308 50 -581 232 -1487 992 -2515 2530 -2715 4060 -103
793 -5 1457 309 2085 529 1056 1537 1761 2701 1889 135 15 625 6 765 -13z"/>
<path d="M5855 8619 c-790 -65 -1355 -687 -1355 -1494 0 -865 633 -1497 1500
-1497 867 0 1500 632 1500 1497 0 817 -562 1428 -1375 1495 -132 11 -128 11
-270 -1z m343 -765 c336 -69 546 -350 546 -729 0 -318 -161 -588 -411 -690
-180 -73 -477 -75 -657 -4 -256 101 -420 372 -420 694 -1 376 208 657 540 728
95 21 304 21 402 1z"/>
</g>
</svg>
