<?xml version="1.0" standalone="no"?>
<!DOCTYPE svg PUBLIC "-//W3C//DTD SVG 20010904//EN"
 "http://www.w3.org/TR/2001/REC-SVG-20010904/DTD/svg10.dtd">
<svg version="1.0" xmlns="http://www.w3.org/2000/svg"
 width="1200.000000pt" height="1200.000000pt" viewBox="0 0 1200.000000 1200.000000"
 preserveAspectRatio="xMidYMid meet">
<g transform="translate(0.000000,1200.000000) scale(0.100000,-0.100000)"
fill="#000000" stroke="none">
<path d="M2740 11989 c-1673 -170 -2759 -1849 -2229 -3444 330 -992 1249
-1707 2299 -1787 35 -3 35 -3 48 -93 84 -594 125 -1069 142 -1670 10 -360 26
-512 76 -725 138 -588 413 -1082 843 -1511 475 -473 995 -740 1664 -854 37 -6
37 -6 37 -577 l0 -571 -177 7 c-708 26 -1210 67 -1823 147 -319 42 -385 32
-504 -81 -194 -184 -131 -510 119 -615 47 -19 277 -53 650 -95 1523 -170 2987
-158 4525 36 314 39 355 49 430 101 237 167 205 520 -60 647 -86 41 -158 41
-475 -1 -521 -70 -1097 -116 -1737 -139 l-188 -6 0 570 c0 571 0 571 38 577
443 72 793 195 1133 400 426 257 807 649 1056 1086 l49 86 67 -63 c674 -639
1757 -519 2271 251 175 261 250 514 250 835 0 209 -12 292 -70 468 -167 509
-593 889 -1127 1004 -138 29 -429 32 -557 5 -113 -24 -256 -71 -359 -118 l-84
-39 7 92 c62 834 344 2262 627 3173 56 180 63 209 63 290 2 182 -102 315 -285
364 -185 51 -697 143 -1137 206 -129 18 -235 35 -238 37 -2 2 113 256 255 564
289 626 284 613 284 704 2 303 -336 478 -590 304 -80 -55 -101 -95 -434 -817
-313 -678 -313 -678 -358 -673 -204 25 -772 46 -1268 46 l-451 0 -33 98 c-381
1156 -1536 1904 -2749 1781z m441 -749 c570 -58 1069 -359 1382 -835 55 -83
184 -332 176 -339 -2 -2 -69 -9 -149 -15 -636 -52 -1667 -209 -2049 -312 -168
-45 -277 -173 -289 -338 -5 -72 -1 -90 73 -330 68 -224 184 -660 249 -936 63
-270 135 -599 131 -603 -6 -7 -211 44 -314 80 -556 191 -996 638 -1174 1193
-126 394 -116 845 28 1226 303 795 1100 1293 1936 1209z m3469 -1891 c146 -7
272 -14 281 -18 14 -5 -92 -242 -627 -1401 -354 -767 -649 -1412 -655 -1432
-12 -47 -21 -47 -255 -18 -598 74 -1151 242 -1654 502 -194 100 -185 93 -194
157 -43 318 -234 1189 -372 1699 -36 134 -63 246 -60 249 19 19 702 128 1081
172 760 89 1678 123 2455 90z m1325 -114 c338 -43 880 -130 905 -145 9 -6 -3
-64 -49 -231 -132 -485 -263 -1072 -352 -1574 -16 -93 -32 -180 -34 -192 -4
-17 -56 -47 -238 -136 -516 -256 -1008 -403 -1587 -477 -85 -10 -156 -17 -158
-15 -10 10 1283 2795 1298 2795 9 0 105 -11 215 -25z m-4110 -3135 c1365 -562
2938 -556 4310 15 75 31 138 55 141 53 2 -3 -5 -101 -16 -219 -29 -321 -40
-516 -50 -924 -6 -240 -15 -407 -25 -475 -252 -1675 -2192 -2489 -3533 -1482
-493 370 -826 934 -917 1553 -9 62 -20 244 -25 449 -11 398 -39 835 -66 1054
-7 58 -25 61 181 -24z m6070 -874 c202 -53 389 -205 478 -386 65 -132 81 -201
81 -340 0 -344 -228 -638 -564 -727 -88 -24 -272 -24 -360 0 -264 70 -477 283
-547 547 -24 88 -24 272 0 360 106 400 520 648 912 546z"/>
</g>
</svg>
