<?xml version="1.0" standalone="no"?>
<!DOCTYPE svg PUBLIC "-//W3C//DTD SVG 20010904//EN"
 "http://www.w3.org/TR/2001/REC-SVG-20010904/DTD/svg10.dtd">
<svg version="1.0" xmlns="http://www.w3.org/2000/svg"
 width="1200.000000pt" height="1200.000000pt" viewBox="0 0 1200.000000 1200.000000"
 preserveAspectRatio="xMidYMid meet">
<g transform="translate(0.000000,1200.000000) scale(0.100000,-0.100000)"
fill="#000000" stroke="none">
<path d="M5770 10869 c-2000 -115 -3650 -1693 -3872 -3704 -20 -184 -17 -788
5 -985 141 -1250 668 -2392 1596 -3455 569 -652 1533 -1406 1995 -1560 492
-164 1006 -84 1472 230 2087 1407 3383 3858 3118 5894 -278 2130 -2173 3703
-4314 3580z m700 -778 c966 -146 1775 -649 2313 -1438 628 -920 750 -2043 352
-3248 -413 -1250 -1350 -2504 -2467 -3301 -299 -213 -429 -264 -671 -264 -221
0 -323 40 -632 248 -1784 1197 -2865 3150 -2724 4923 124 1561 1375 2878 2929
3083 180 24 179 24 480 21 225 -2 314 -7 420 -24z"/>
<path d="M6619 8222 c-155 -63 -244 -192 -243 -352 1 -102 13 -138 94 -274 84
-139 177 -262 288 -378 l94 -98 -1358 0 c-774 0 -1386 -4 -1423 -10 -360 -52
-447 -541 -124 -703 94 -48 77 -47 1530 -47 l1376 0 -71 -74 c-198 -209 -377
-485 -401 -622 -29 -158 57 -324 206 -400 88 -44 241 -43 328 3 79 41 134 100
191 203 182 331 467 611 814 798 174 94 274 211 315 369 59 226 -66 479 -290
587 -346 166 -641 437 -835 766 -110 186 -188 242 -350 247 -75 3 -105 -1
-141 -15z"/>
</g>
</svg>
