<?xml version="1.0" standalone="no"?>
<!DOCTYPE svg PUBLIC "-//W3C//DTD SVG 20010904//EN"
 "http://www.w3.org/TR/2001/REC-SVG-20010904/DTD/svg10.dtd">
<svg version="1.0" xmlns="http://www.w3.org/2000/svg"
 width="1200.000000pt" height="1200.000000pt" viewBox="0 0 1200.000000 1200.000000"
 preserveAspectRatio="xMidYMid meet">
<g transform="translate(0.000000,1200.000000) scale(0.100000,-0.100000)"
fill="#000000" stroke="none">
<path d="M8470 10874 c-980 -89 -2093 -536 -3250 -1305 -1238 -823 -2156
-1767 -2944 -3027 -1055 -1687 -1414 -3237 -961 -4143 317 -632 1225 -1162
2175 -1269 151 -17 475 -15 581 4 773 139 1631 1266 1729 2271 43 440 -139
950 -515 1446 -35 46 -35 46 144 203 632 549 1151 1073 1636 1649 40 48 40 48
130 -19 394 -292 766 -449 1150 -485 853 -80 2134 705 2456 1505 210 522 20
1524 -420 2221 -355 562 -759 842 -1341 930 -101 15 -473 28 -570 19z m540
-779 c249 -55 405 -151 573 -354 333 -400 541 -980 542 -1511 0 -195 0 -195
-36 -270 -260 -536 -1233 -1091 -1754 -1001 -284 50 -624 246 -961 555 -130
120 -186 149 -296 154 -159 8 -231 -36 -398 -243 -617 -765 -1311 -1459 -2100
-2099 -213 -173 -257 -245 -248 -405 6 -108 36 -167 143 -282 392 -422 588
-817 572 -1149 -27 -551 -547 -1364 -1012 -1582 -60 -27 -78 -31 -193 -35
-712 -29 -1623 399 -1857 872 -118 240 -139 657 -54 1103 247 1303 1332 3091
2544 4191 1203 1092 2750 1912 3897 2066 143 19 534 13 638 -10z"/>
</g>
</svg>
