<?xml version="1.0" standalone="no"?>
<!DOCTYPE svg PUBLIC "-//W3C//DTD SVG 20010904//EN"
 "http://www.w3.org/TR/2001/REC-SVG-20010904/DTD/svg10.dtd">
<svg version="1.0" xmlns="http://www.w3.org/2000/svg"
 width="1200.000000pt" height="1200.000000pt" viewBox="0 0 1200.000000 1200.000000"
 preserveAspectRatio="xMidYMid meet">
<g transform="translate(0.000000,1200.000000) scale(0.100000,-0.100000)"
fill="#000000" stroke="none">
<path d="M5755 11259 c-616 -41 -1041 -209 -1406 -557 -397 -378 -589 -852
-589 -1458 l0 -132 -132 -32 c-215 -53 -400 -109 -444 -135 -164 -96 -588
-776 -857 -1375 -647 -1442 -954 -3183 -791 -4490 61 -489 202 -997 369 -1330
71 -140 117 -170 490 -320 1034 -416 2063 -651 3117 -711 305 -17 969 -7 1266
20 1005 91 1986 337 2955 742 260 109 296 138 380 306 262 521 392 1137 404
1909 13 842 -111 1704 -382 2656 -296 1035 -782 2033 -1222 2508 -90 98 -151
123 -520 215 l-153 38 0 137 c0 597 -189 1068 -581 1445 -450 433 -1078 619
-1904 564z m695 -778 c230 -38 373 -92 538 -203 295 -199 473 -517 489 -874
l6 -131 -84 13 c-886 142 -1786 146 -2693 15 l-189 -28 6 131 c21 483 336 879
817 1031 74 23 246 54 375 68 120 13 614 -1 735 -22z m-130 -1841 c338 -17
1017 -94 1042 -118 11 -11 -77 -237 -153 -391 -83 -168 -100 -238 -81 -327 62
-295 403 -410 621 -209 84 78 217 345 321 643 23 67 45 122 49 122 3 0 65 -15
136 -33 149 -38 152 -40 301 -265 539 -811 988 -2096 1138 -3259 66 -505 74
-1158 20 -1583 -45 -355 -121 -665 -232 -938 -37 -92 -37 -92 -217 -163 -898
-354 -1695 -545 -2645 -631 -195 -17 -1020 -18 -1225 0 -946 81 -1785 282
-2695 645 -158 63 -143 44 -220 274 -266 795 -293 1851 -73 2942 207 1031 620
2072 1115 2808 72 106 95 134 121 142 57 18 239 62 243 59 2 -2 20 -51 39
-108 90 -258 228 -548 301 -629 142 -158 405 -159 547 -1 82 91 117 204 98
312 -6 37 -37 114 -79 201 -66 135 -146 329 -154 372 -3 18 9 21 142 42 331
51 621 80 965 96 151 7 397 6 575 -3z"/>
</g>
</svg>
