<svg width="1600" height="1600" viewBox="0 0 1200 1200" xmlns="http://www.w3.org/2000/svg"><path fill="currentColor" d="M2341 10870c-296-40-575-263-816-650 -76-124-200-364-214-415 -13-52-34-269-66-685 -13-184-30-358-35-386 -55-265-404-589-921-855 -237-121-289-190-289-388 0-132 25-196 107-272 89-82 246-122 349-89 104 33 386 188 587 322l117 78 -5-77c-8-108-25-846-25-1065 0-166-1-179-17-174 -10 2-83 19-163 36s-224 51-320 75c-223 55-243 57-314 45 -306-51-424-438-196-643 27-25 71-55 97-67 41-19 552-151 816-211l97-21v-212c0-741 54-1973 126-2865 14-173 21-318 17-322 -5-5-63-40-131-78 -301-173-318-191-356-368 -33-159-33-174 3-248 64-133 187-210 336-210 105 0 137 12 270 100 328 216 961 528 1240 611 149 44 212 40 315-20 125-72 238-149 445-306 217-164 351-245 490-299 419-162 778-100 1292 225 460 291 733 434 824 434 78 0 378-153 694-353 475-302 699-389 1000-389 309 0 538 97 930 397 283 215 494 345 561 345 87 0 550-175 822-310 204-102 527-285 631-358 232-163 526-64 599 201 9 32 6 63-15 169 -27 131-27 131-82 188 -49 49-204 149-391 253 -33 18-33 18-26 90 79 889 146 2331 146 3133v191l103 22c254 56 769 191 820 214 228 104 282 422 102 602 -53 53-127 90-210 106 -66 12-85 10-245-31 -155-39-562-131-565-128 -1 2-7 273-14 603 -6 330-15 626-18 659 -6 58-6 58 113-21 151-101 301-187 461-266 127-62 127-62 222-62 151 0 261 64 330 194 30 56 31 64 31 172 0 197-52 267-287 387 -516 265-869 591-922 852 -6 30-18 145-26 255 -65 834-60 800-139 960 -368 742-820 1049-1310 887 -300-99-586-411-825-902 -71-145-64-105-106-655 -47-618-55-666-139-818 -235-429-880-786-1636-906 -416-66-879-62-1280 10 -743 134-1355 483-1579 901 -81 151-90 205-137 818 -41 548-35 515-128 697 -330 643-722 949-1145 893Zm186-812c70-68 156-192 247-357 58-105 58-105 77-310 37-414 89-1108 119-1616 39-657 89-1905 77-1905 -56 0-1154 174-1164 184 -6 5 15 1063 27 1386 27 743 64 1345 126 2075 14 162 307 605 400 605 18 0 45-19 91-62Zm7089 34c75-54 178-198 286-398 55-101 55-101 66-230 51-563 96-1297 122-2001 13-358 33-1403 27-1409 -12-13-1092-184-1158-184 -9 0-10 58-5 218 31 993 91 2058 167 2972 48 583 36 518 119 667 96 171 158 258 235 332 72 69 86 72 141 33ZM4035 7217c201-110 438-207 705-287l125-38 3-596 2-596 -57 5c-32 3-166 12-298 21 -237 15-697 52-702 57 -3 3-10 180-23 547 -13 345-37 886-45 993l-7 79 89-60c48-32 142-89 208-125Zm4215 7c-14-248-39-827-50-1153 -5-156-11-285-13-288 -6-6-278-29-602-52 -159-11-327-23-373-26l-82-6 2 596 3 597 160 48c335 102 676 259 895 413 36 25 66 44 67 43s-2-78-7-172Zm-2441-455c145-24 238-24 392 1 68 11 134 22 147 24 22 3 22 3 22-570v-574h-370 -370v573c0 574 0 574 33 569 17-2 83-12 146-23ZM2210 5211c237-42 470-79 805-129 50-7 50-7 53-472 4-611-15-1450-44-1906 -7-101-7-101-48-93 -83 16-293 10-399-12 -121-24-292-80-450-147 -138-59-120-88-142 233 -53 768-85 1541-98 2383 -3 201-3 203 17 198 12-3 149-28 306-55Zm7906-93c-3-84-8-286-11-448 -12-632-43-1307-101-2135 -9-138 7-131-155-63 -260 108-445 150-659 150 -69 0-144-4-166-10 -41-9-41-9-48 92 -29 464-48 1262-44 1881l3 489 225 33c237 34 623 99 825 138 66 12 124 23 128 24 4 0 5-68 3-151Zm-6016-158c248-21 570-44 870-61 308-17 1422-23 1781-10 371 14 858 44 1163 71 120 11 229 20 243 20 26 0 26 0 19-212 -16-497 21-1796 71-2497 6-87 6-87-93-158 -230-165-356-227-454-227 -115 0-387 129-708 335 -529 341-679 401-997 401 -275-1-485-77-825-298 -474-309-765-453-886-441 -89 9-223 79-423 221 -114 81-114 81-107 168 49 700 85 2006 69 2511 -6 197-6 197 23 197 16 0 130-9 254-20Z" transform="matrix(.1 0 0-.1 0 1200)"/></svg>