<svg width="1600" height="1600" viewBox="0 0 1200 1200" xmlns="http://www.w3.org/2000/svg"><g transform="matrix(.1 0 0-.1 0 1200)"><g fill="currentColor"><path d="M4850 11984c-767-51-1307-136-1862-293 -406-116-554-194-748-397 -171-179-251-334-315-614 -158-688-263-1523-317-2530 -17-312-17-1616 0-1960 53-1092 193-2520 277-2840 101-380 418-711 805-838 86-29 350-83 585-121 519-84 1025-127 1601-138l340-6 12-192c35-551 144-1133 258-1383 122-268 356-465 639-537 108-27 541-73 945-100 1346-88 2776-9 3820 211 378 79 550 173 713 386 264 345 441 1380 388 2268 -42 705-193 1379-366 1640 -95 142-256 275-414 341 -297 124-1520 278-2208 279 -67 0-123 3-125 8 -2 4-1 70 3 147 92 1940-63 4122-386 5400 -82 328-233 562-478 743 -305 226-1110 428-2027 508 -173 15-989 28-1140 18Zm910-754c584-36 1124-132 1586-281 327-106 372-170 478-679 265-1275 378-2954 316-4690 -5-146-12-300-16-342 -7-92 28-81-334-98 -415-18-970-67-1419-124 -185-23-185-23-234 31 -67 73-116 99-249 132 -217 55-325 66-638 65 -589 0-878-86-988-292 -112-210-174-1316-105-1866 6-48 6-48-68-41 -406 37-869 108-1114 170 -186 47-318 167-364 330 -13 45-68 467-105 800 -250 2231-209 4389 114 5985 67 333 82 372 182 467 72 68 124 93 308 147 526 154 1083 249 1680 285 189 12 784 12 970 1Zm3470-6830c561-26 1053-82 1480-166 221-43 231-47 273-93 36-40 57-94 101-261 226-847 215-1937-26-2668 -52-158-76-177-305-227 -1136-248-2885-305-4298-140 -175 21-195 27-243 79 -87 95-184 560-234 1126 -18 197-17 1014 0 1215 16 186 46 423 72 577 64 371 73 383 342 418 522 69 1095 117 1708 143 181 8 942 6 1130-3Z"/><path d="M3515 9771c-138-25-166-81-173-341 -7-297 16-384 113-434 36-18 62-21 240-24 300-6 373 12 428 105 34 59 41 489 9 574 -16 40-63 90-102 107s-438 27-515 13Z"/><path d="M5015 9771c-138-25-166-81-173-341 -7-297 16-384 113-434 36-18 62-21 240-24 300-6 373 12 428 105 34 59 41 489 9 574 -16 40-63 90-102 107s-438 27-515 13Z"/><path d="M6515 9771c-138-25-166-81-173-341 -7-297 16-384 113-434 36-18 62-21 240-24 300-6 373 12 428 105 34 59 41 489 9 574 -16 40-63 90-102 107s-438 27-515 13Z"/><path d="M3515 8271c-138-25-166-81-173-341 -7-297 16-384 113-434 36-18 62-21 240-24 300-6 373 12 428 105 34 59 41 489 9 574 -16 40-63 90-102 107s-438 27-515 13Z"/><path d="M5015 8271c-138-25-166-81-173-341 -7-297 16-384 113-434 36-18 62-21 240-24 300-6 373 12 428 105 34 59 41 489 9 574 -16 40-63 90-102 107s-438 27-515 13Z"/><path d="M6515 8271c-138-25-166-81-173-341 -7-297 16-384 113-434 36-18 62-21 240-24 300-6 373 12 428 105 34 59 41 489 9 574 -16 40-63 90-102 107s-438 27-515 13Z"/><path d="M3515 6771c-138-25-166-81-173-341 -7-297 16-384 113-434 36-18 62-21 240-24 300-6 373 12 428 105 34 59 41 489 9 574 -16 40-63 90-102 107s-438 27-515 13Z"/><path d="M5015 6771c-138-25-166-81-173-341 -7-297 16-384 113-434 36-18 62-21 240-24 300-6 373 12 428 105 34 59 41 489 9 574 -16 40-63 90-102 107s-438 27-515 13Z"/><path d="M6515 6771c-138-25-166-81-173-341 -7-297 16-384 113-434 36-18 62-21 240-24 300-6 373 12 428 105 34 59 41 489 9 574 -16 40-63 90-102 107s-438 27-515 13Z"/><path d="M8470 3816c-405-113-547-610-262-917 302-326 845-180 947 255 68 287-114 586-402 661 -68 18-220 18-283 1Z"/><path d="M8388 2344c-408-64-774-246-864-430 -51-104-15-243 85-337 280-262 1340-318 1878-99 169 69 263 191 263 342 0 310-789 614-1362 524Z"/></g></g></svg>