<svg width="1600" height="1600" viewBox="0 0 1200 1200" xmlns="http://www.w3.org/2000/svg"><g transform="matrix(.1 0 0-.1 0 1200)"><g fill="currentColor"><path d="M5535 10883c-871-42-1663-157-2460-359 -338-86-551-228-724-482 -140-207-191-411-216-872 -10-178-27-365-34-373 -4-4-68-16-143-27 -319-47-452-142-491-352 -50-270 228-504 491-414 33 11 57 15 63 9 5-5-3-125-21-304 -16-161-32-345-36-407 -4-61-12-116-18-121 -6-4-67-16-136-26 -260-36-371-97-447-245 -43-85-42-239 3-325 83-158 245-236 416-200 40 8 79 15 86 15 9 0 12-85 12-390v-390l-132 2c-164 2-217-14-306-97 -90-83-117-146-117-270 0-117 23-181 94-258 89-97 192-127 402-119l126 4 7-98c8-104 61-655 72-736 6-48 6-48-88-41 -117 7-178-6-256-57 -194-125-228-395-71-565 79-86 155-116 359-141 68-8 126-17 128-19 7-7 21-151 32-325 33-549 75-726 221-942 187-275 386-399 809-502 1438-350 2871-435 4300-255 527 66 1336 225 1610 316 286 96 524 309 656 587 56 119 76 195 124 466 400 2265 400 4595 0 6860 -74 418-139 568-339 773 -182 188-320 256-696 347 -768 186-1502 292-2290 330 -186 9-829 11-990 3Zm1155-762c674-49 1311-147 1945-301 221-53 264-71 329-130 90-83 101-120 175-570 347-2103 347-4137 0-6240 -74-450-85-487-175-570 -65-59-108-77-327-130 -653-157-1281-254-1972-302 -240-17-1093-17-1330 0 -718 51-1308 142-1972 302 -232 56-281 78-351 154 -86 95-109 198-133 586 -6 102-14 216-19 255 -5 38-8 71-7 72 2 1 45 8 97 16 157 23 262 94 318 215 40 86 40 242-1 322 -38 73-99 135-172 173 -59 31-63 32-187 31 -71 0-128 3-128 7s-9 90-19 191c-18 165-39 391-56 600 -7 76-7 76 112 80 139 4 202 27 277 101 196 197 127 516-135 619 -47 18-73 21-191 19l-138-2v392c0 439-14 402 143 370 156-32 326 60 400 217 89 190-8 426-205 500 -29 11-100 27-157 35 -57 9-104 17-106 19 -4 5 23 329 50 589 14 136 25 248 25 250s48 4 108 4c98 0 112 2 163 29 71 35 139 104 176 176 42 83 42 237-1 324 -58 119-153 185-295 207 -83 13-83 13-77 42 3 16 13 131 21 256 30 451 49 540 137 637 81 88 126 105 539 198 655 149 1257 229 2019 270 129 7 979-3 1120-13Z"/><path d="M5770 8650c-1585-165-2672-1738-2334-3379 305-1482 1701-2438 3101-2125 267 60 542 167 628 246 154 141 166 379 26 531 -113 122-289 152-456 77 -597-268-1271-195-1793 194 -651 485-952 1359-755 2191 247 1044 1215 1698 2191 1479 782-175 1368-856 1478-1716 30-237 9-621-42-779 -46-144-231-190-349-87 -77 68-75 44-75 838 0 570-3 705-14 744 -50 164-217 278-389 264 -75-6-173-47-213-89 -34-35-34-35-86-3 -441 279-1052 256-1464-55 -641-482-703-1541-124-2112 438-433 1174-478 1669-102 35 26 70 52 77 57 9 7 26-5 59-42 450-500 1269-376 1577 239 129 257 179 825 113 1276 -147 998-801 1843-1700 2196 -329 129-784 192-1125 157Zm372-2181c239-50 401-291 401-594 0-291-139-520-358-588 -99-31-271-31-370 0 -485 151-474 1047 14 1175 77 20 235 23 313 7Z"/></g></g></svg>