<svg width="1600" height="1600" viewBox="0 0 1200 1200" xmlns="http://www.w3.org/2000/svg"><path fill="currentColor" d="M5822 11235c-712-129-1238-920-1506-2265 -49-248-110-656-128-868 -3-33-3-33-213-121 -1007-419-1940-958-2682-1548 -481-382-781-705-867-935 -86-227-41-713 89-970 110-218 245-321 490-373 400-84 1791 12 3163 219 152 23 152 23 157 2 3-12 21-104 41-206 59-309 189-866 244-1050 16-55 13-63-43-102 -88-61-207-164-321-276 -391-386-546-846-446-1332 48-236 115-305 398-415 853-329 2633-326 3602 7 283 97 351 166 400 408 99 490-51 939-446 1334 -88 88-312 277-360 304 -21 11-24-8 49 272 66 253 121 498 182 803 30 148 55 270 57 272 2 1 120-15 263-36 1509-222 2788-293 3161-175 302 96 480 413 509 906 9 151-8 320-41 408 -166 442-1132 1231-2314 1891 -339 190-911 463-1290 617 -154 62-155 63-158 96 -59 685-240 1466-456 1973 -356 835-930 1269-1534 1160Zm336-781c434-214 801-1234 916-2544 142-1615-9-3207-451-4739 -105-365-78-450 206-645 406-279 588-483 637-716 26-125 30-120-121-158 -589-150-1523-192-2225-101 -178 23-420 70-524 102 -84 27-89 39-62 161 53 235 251 454 657 724 257 171 288 277 186 632 -416 1444-577 2968-472 4478 90 1296 373 2278 773 2681 170 172 312 209 480 125ZM4126 6733c0-572 14-854 65-1376 12-115 19-210 16-213 -7-7-502-78-827-118 -446-55-863-97-1280-128 -171-12-913-18-924-7 -14 14-37 164-39 255 -2 123 6 135 226 351 573 560 1580 1204 2587 1655 96 43 175 78 175 78s0-224 1-497Zm3900 431c1028-453 2108-1151 2665-1721 177-181 174-176 172-298 -2-91-25-240-39-254 -11-12-545-12-749-1 -588 31-1618 144-2244 246 -44 7-44 7-37 68 63 587 92 1200 82 1714 -3 171-4 312-2 312s70-30 152-66Z" transform="matrix(.1 0 0-.1 0 1200)"/></svg>