<svg width="1600" height="1600" viewBox="0 0 1200 1200" xmlns="http://www.w3.org/2000/svg"><path fill="currentColor" d="M5893 11986c-66-21-103-47-261-179 -240-201-603-495-1197-972 -1223-981-1675-1353-2229-1840 -1140-998-1846-1796-2153-2430 -46-96-48-103-48-190 0-145 73-268 196-330 197-100 1055-393 1583-541l99-28 -6-126c-12-244 17-583 74-877 193-995 786-1893 1649-2501 457-321 1047-576 1583-682 59-12 59-12-90-163 -161-164-183-193-207-276 -83-283 182-549 464-465 88 26 125 56 393 322l257 256 258-256c267-266 304-296 392-322 281-84 548 183 464 464 -24 82-55 124-211 281 -144 146-144 146-86 158 837 180 1545 562 2133 1150 521 521 858 1099 1044 1791 91 339 144 801 129 1123 -6 123-6 123 77 146 473 129 1397 444 1590 541 132 66 205 187 205 335 0 87-2 94-48 190 -307 634-1017 1436-2161 2438 -522 458-964 823-2066 1707 -709 569-1149 927-1389 1128 -152 128-206 155-316 159 -49 2-96-3-122-11Zm354-1049c137-112 550-446 918-742 1607-1292 2083-1697 2679-2275 428-416 958-1025 1140-1311 20-32 52-17-254-120 -1873-633-3819-884-5785-744 -1087 78-2173 279-3230 600 -207 63-677 219-703 234 -29 16 332 479 636 814 648 715 1240 1236 3177 2794 391 314 814 657 940 761 127 105 231 191 232 191 2 1 114-90 250-202ZM2945 5225c2043-412 4119-407 6190 15 110 22 209 43 219 46 18 6 19 0 13-177 -37-1201-747-2312-1827-2858 -1790-907-3948-91-4683 1770 -139 350-227 797-227 1145 0 126 0 126 23 120 12-3 144-31 292-61Z" transform="matrix(.1 0 0-.1 0 1200)"/></svg>