<svg width="1600" height="1600" viewBox="0 0 1200 1200" xmlns="http://www.w3.org/2000/svg"><g transform="matrix(.1 0 0-.1 0 1200)"><g fill="currentColor"><path d="M5305 9949c-1118-14-2923-101-3208-155 -526-100-941-510-1057-1044 -46-209-122-1050-161-1765 -29-549-22-1606 16-2245 33-547 103-1276 141-1473 99-504 497-921 996-1042 165-40 1222-107 1331-84 147 32 237 121 302 301 54 153 256 229 407 155 85-42 133-102 164-206 63-209 166-294 383-314 159-15 2612-15 2772 0 137 13 204 40 275 111 45 44 104 149 104 183 0 39 36 113 76 158 60 67 126 95 224 95 141 0 234-69 290-216 56-148 139-227 275-263 54-14 89-14 355 0 781 40 905 51 1070 101 455 137 835 568 919 1039 22 126 78 661 105 1000 45 567 57 854 63 1510 9 930-28 1693-122 2560 -38 348-50 393-124 478 -16 18-44 69-61 113 -180 455-530 771-941 849 -43 8-203 23-356 34 -1363 98-2779 139-4238 120Zm2215-768c1111-42 2141-102 2275-132 130-29 262-121 338-236 80-120 104-207 137-498 171-1512 171-3140 0-4645 -39-341-69-430-188-554 -147-152-220-171-770-201 -429-23-421-23-457 28 -130 184-344 341-550 403 -116 35-326 40-440 10 -223-58-449-226-595-443 -55-81-55-81-220-89 -214-10-1876-10-2090 0 -165 8-165 8-219 87 -150 223-369 386-596 445 -112 30-323 25-438-10 -204-61-405-206-537-386 -45-61-45-61-225-55 -213 7-631 32-695 41 -150 22-304 124-389 259 -70 110-88 184-121 482 -144 1309-167 2525-75 3818 35 476 95 1044 121 1134 54 188 198 340 374 395 147 47 1448 123 2660 156 400 11 2348 4 2700-9Z"/><path d="M4175 8234c-315-47-535-151-726-344 -213-214-325-483-336-810 -15-460 176-842 534-1062l71-44 -116-28c-649-156-1117-450-1288-809 -133-280-56-639 190-896 299-311 929-476 1821-475 550 0 904 49 1290 181 254 87 268 96 517 346 289 291 322 686 84 1004 -214 284-700 543-1249 664l-57 12 52 30c702 399 755 1505 97 1997 -136 101-307 177-489 216 -73 15-333 27-395 18Zm245-754c226-36 362-226 347-485 -10-196-116-346-280-397 -72-22-248-27-319-8 -223 60-356 318-293 565 65 252 262 369 545 325Zm25-2201c448-39 943-212 1138-397 87-83 9-153-263-235 -578-175-1373-179-1988-11 -198 54-295 107-321 176 -9 23-6 30 25 62 195 201 776 393 1254 414 19 1 89-3 155-9Z"/><path d="M7290 7125c-275-76-368-425-167-627 86-86 175-112 537-157 529-66 1101-52 1615 40 241 44 360 169 360 379 0 124-30 195-116 274 -113 105-187 118-449 77 -496-77-990-78-1450-4 -207 33-264 36-330 18Z"/><path d="M7271 5244c-222-78-319-328-208-537 62-117 146-167 341-203 579-108 1210-110 1811-7 188 32 240 51 310 114 161 148 165 405 9 549 -109 101-208 117-454 76 -494-82-1012-82-1499 0 -166 28-247 30-310 8Z"/></g></g></svg>