<svg width="1600" height="1600" viewBox="0 0 1200 1200" xmlns="http://www.w3.org/2000/svg"><path fill="currentColor" d="M9255 10860c-164-54-263-203-253-379 7-122 66-221 286-481l81-95 -107-107c-59-60-109-108-112-108 -8 1-165 198-204 255 -170 254-526 236-658-33 -45-91-48-225-7-312 29-61 135-206 257-350l81-95 -364-364 -363-364 -104 70c-658 440-1474 594-2373 447 -270-44-648-146-741-199 -56-33-121-106-152-173 -26-56-27-61-24-227 4-255-25-410-108-580 -202-414-597-650-1060-632 -189 8-280 30-465 116 -97 44-103 46-195 46 -166 0-226-42-430-296C1034 5490 779 3603 1614 2360l84-125 -253-255c-207-208-259-266-280-311 -151-332 171-656 502-504 46 21 103 72 312 279l256 254 125-84c756-507 1786-624 2836-323 643 184 1254 508 1818 962 241 194 281 254 281 417 0 92-1 98-46 195 -96 207-124 341-116 557 10 302 122 555 335 760 242 233 490 322 877 316 170-3 170-3 237 30 134 66 173 129 254 412 303 1051 176 2092-349 2863l-60 89 549 549c302 302 551 549 554 549 3 0 61-48 130-106 273-230 383-285 534-263 244 34 390 295 290 517 -35 79-75 123-161 182 -43 29-119 87-170 129l-92 76 107 108c59 59 109 107 112 107s61-48 130-106c273-230 383-285 534-263 244 34 390 295 290 517 -39 88-76 124-241 235 -183 122-276 195-426 335 -131 122-187 152-296 159 -124 8-206-26-324-136 -26-24-49-42-51-40 -1 2-37 45-79 96s-94 118-115 150c-111 164-279 229-447 173ZM6505 8215c287-52 544-146 768-281l79-47 -640-641c-351-353-648-657-660-676 -111-189-34-439 166-533 111-52 248-46 352 15 19 12 322 307 673 657 610 608 639 635 653 616 72-95 200-412 248-615 88-370 86-824-5-1270 -48-237-35-216-132-229 -923-129-1621-898-1629-1796 -1-159 10-218 86-442l44-132 -116-88c-1141-856-2399-1103-3357-658 -72 33-232 122-254 142 -3 2 285 295 640 651 740 742 704 697 704 867 0 213-157 370-370 370 -170-1-125 36-867-704 -356-355-649-643-651-640 -47 54-164 288-220 439 -164 443-182 1052-46 1595 130 520 396 1060 771 1562l98 132 147-50c203-68 273-81 426-80 909 5 1680 717 1802 1663 7 55-9 48 235 103 172 38 360 70 496 84 130 14 452 6 559-14Z" transform="matrix(.1 0 0-.1 0 1200)"/></svg>