<svg width="1600" height="1600" viewBox="0 0 1200 1200" xmlns="http://www.w3.org/2000/svg"><path fill="currentColor" d="M4335 10470c-954-43-1726-98-1911-135 -759-153-1350-743-1509-1505 -32-151-86-746-120-1305 -33-566-40-808-40-1525 0-806 11-1120 60-1825 18-252 61-739 76-850 102-789 660-1428 1422-1630 168-44 328-61 997-105 1423-92 3044-110 4450-50 547 24 1391 76 1625 101 904 95 1606 777 1724 1674 69 524 155 2049 137 2420 -54 1097-825 1925-1906 2044 -94 11-520 31-1094 51 -412 15-534 40-703 146 -216 134-386 349-728 919 -356 593-540 839-791 1058 -453 394-961 549-1689 517Zm585-775c282-63 478-174 687-388 178-182 292-345 574-818 442-744 711-1037 1134-1234 283-133 428-159 990-180 892-33 1004-40 1174-77 678-145 1057-691 1015-1460 -7-128-7-128-33-128 -14 0-87-5-161-10 -1882-134-4464-173-6560-100 -809 28-2205 102-2220 117 -11 11-11 1001-1 1358 23 755 90 1695 137 1921 91 444 440 795 894 898 100 23 710 68 1355 101 171 8 339 17 375 19 171 9 566-2 640-19ZM2180 4641l115-6 17-310c39-728 58-918 95-994 140-287 545-279 679 12 35 78 38 120 20 352 -22 289-57 907-52 912 2 3 117 0 255-6 139-6 298-11 356-11 57 0 106-4 110-9 3-6 12-189 20-408 34-917 34-916 158-1030 183-169 474-115 586 108 40 80 44 130 32 364 -14 277-36 934-30 939 5 5 521-11 636-20l72-6 3-621c3-622 3-622 31-683 120-259 477-299 643-72 74 101 74 97 74 762v593l283 6c155 4 424 13 597 21 173 8 375 18 449 21l134 6 -7-233c-3-128-11-343-17-478 -21-458-19-514 19-592 113-230 403-287 589-115 122 112 126 137 153 922 14 431 20 516 34 520 16 4 709 25 713 21 5-5-23-487-48-840 -23-317-21-345 20-432 109-231 421-285 601-105 66 67 99 139 110 247 15 141 38 472 56 824 10 179 20 328 23 332 7 9 739 33 747 25 23-22-84-1247-121-1394 -110-434-470-774-909-858 -154-29-1083-88-2006-126 -410-17-1956-23-2445-10 -953 26-2193 97-2400 137 -481 93-849 474-930 963 -22 136-62 604-100 1190l-7 103 263-7c145-4 316-10 379-14Z" transform="matrix(.1 0 0-.1 0 1200)"/></svg>