<svg width="1600" height="1600" viewBox="0 0 1200 1200" xmlns="http://www.w3.org/2000/svg"><g transform="matrix(.1 0 0-.1 0 1200)"><g fill="currentColor"><path d="M3877 11250c-188-32-350-249-441-590 -101-375-21-831 198-1127 209-285 641-171 682 180 9 76-17 166-76 263 -163 267-167 412-17 647 85 132 108 216 87 319 -32 162-146 278-305 307 -64 12-60 12-128 1Z"/><path d="M5740 11247c-123-28-201-93-286-239 -230-392-249-902-48-1300 125-248 229-332 409-333 310-1 478 326 305 593 -170 263-173 401-16 665 73 123 91 180 84 278 -16 221-233 384-448 336Z"/><path d="M7627 11250c-188-32-350-249-441-590 -101-375-21-831 198-1127 209-285 641-171 682 180 9 76-17 166-76 263 -163 267-167 412-17 647 85 132 108 216 87 319 -32 162-146 278-305 307 -64 12-60 12-128 1Z"/><path d="M5320 8993c-1041-56-1921-317-2625-778 -359-235-380-268-410-640 -142-1815 176-3779 900-5561 200-492 250-579 388-677 1105-784 3022-780 4117 9 105 75 136 119 226 321 77 172 264 634 264 652 0 16 12 20 152 56 772 195 1414 718 1793 1462 213 417 330 870 365 1413 23 346-23 550-177 783 -213 322-750 638-1254 737 -57 11-57 11-63 208 -16 496-43 817-75 903 -40 104-150 201-432 379 -818 515-2026 795-3169 733Zm610-753c595-34 1103-140 1590-332 254-100 535-251 652-350 36-31 48-187 55-723 22-1595-325-3317-963-4774 -69-156-85-171-279-265 -408-199-826-288-1350-289 -527-1-972 93-1369 289 -174 87-210 116-255 214 -149 322-334 822-469 1271 -363 1197-537 2396-519 3564 8 507 22 681 56 712 92 83 323 212 561 313 661 282 1486 415 2290 370Zm3175-2260c273-95 541-273 603-401 35-73 41-130 31-299 -56-961-435-1637-1119-1998 -146-77-143-77-119 5 245 840 393 1671 474 2656 4 42 8 77 10 77 1 0 55-18 120-40Z"/></g></g></svg>