<svg width="1600" height="1600" viewBox="0 0 1200 1200" xmlns="http://www.w3.org/2000/svg"><g transform="matrix(.1 0 0-.1 0 1200)"><g fill="currentColor"><path d="M5775 11243c-1219-109-2224-1069-2379-2274 -47-363-26-501 90-614 78-77 141-100 264-100 123 1 171 18 246 87 98 90 119 149 133 369 32 517 235 953 599 1289 919 847 2387 578 2947-540 123-247 179-462 194-755 10-178 25-234 83-309 168-219 513-187 634 59 50 104 51 313 3 603 -175 1051-1004 1917-2047 2136 -225 47-552 68-767 49Z"/><path d="M5854 10120c-994-114-1610-1114-1253-2035 388-1002 1684-1280 2448-525 296 292 446 655 445 1075 -1 408-148 760-440 1050 -316 315-782 484-1200 435Zm329-769c427-110 666-557 521-975 -144-416-635-617-1029-422 -271 135-419 371-420 671 0 351 219 635 560 725 98 26 267 26 368 1Z"/><path d="M5680 6739c-1421-140-2248-1099-2299-2664l-6-199 -235-48c-541-110-847-191-987-262 -305-154-547-462-634-805 -21-86-28-515-8-601 90-403 373-746 736-891 43-18 173-56 288-85 1858-466 3740-556 5610-268 467 72 1131 209 1474 306 345 96 612 322 772 653 100 205 111 264 109 560 0 138-5 268-11 290 -118 465-427 798-859 924 -139 41-522 130-791 183l-215 43 -12 250c-7 138-19 302-27 365 -171 1273-910 2050-2125 2231 -156 24-618 34-780 18Zm745-768c813-123 1268-625 1405-1546 19-131 39-425 28-425 -2 0-53 6-114 14 -1095 144-2429 145-3477 1 -59-8-115-15-123-15 -26 0 2 342 47 570 158 811 601 1273 1339 1395 241 40 655 43 895 6Zm190-2611c881-43 1784-176 2637-390 109-27 222-62 250-76 73-37 157-127 204-220 39-77 39-77 39-238 0-198-20-252-140-372 -97-97-115-104-500-195 -2038-482-4088-488-6121-19 -299 69-416 100-472 125 -78 36-170 132-218 229 -39 80-39 80-39 236s0 156 39 234c44 91 136 190 206 224 71 34 521 143 895 217 693 137 1268 206 2065 248 149 8 971 6 1155-3Z"/></g></g></svg>