<svg width="1600" height="1600" viewBox="0 0 1200 1200" xmlns="http://www.w3.org/2000/svg"><g transform="matrix(.1 0 0-.1 0 1200)"><g fill="currentColor"><path d="M5654 11619c-1164-69-2160-762-2737-1904 -69-137-71-142-75-230 -7-153 46-245 255-445 331-317 806-542 1260-599 199-25 318 39 434 233 213 359 496 609 763 676 438 110 818-204 819-675 1-278-132-497-374-614 -135-65-204-81-554-131 -1037-147-1524-281-2031-556 -225-123-246-152-391-549 -552-1512-524-4002 62-5520 89-231 131-285 280-358 987-485 2351-680 3575-511 570 78 1121 240 1587 464 238 114 270 147 352 365 445 1184 613 3460 415 5615 -90 983-251 1836-464 2465 -514 1515-1697 2363-3176 2274Zm484-760c786-85 1422-555 1807-1334 341-691 559-1850 657-3485 18-293 18-1638 0-1925 -64-1057-175-1787-365-2402 -48-158-27-139-262-235 -873-359-2044-448-3104-237 -332 66-661 163-943 278 -143 58-143 58-176 147 -299 797-441 2185-342 3334 51 585 162 1129 322 1576 53 147 53 147 158 196 426 201 741 280 1625 408 558 81 736 136 993 308 725 484 833 1567 219 2209 -278 290-584 418-1002 418 -377 0-668-105-980-353 -149-118-372-356-465-495 -29-44-25-44-170 10 -143 53-314 149-408 230 -32 28-32 28 33 131 444 704 1074 1127 1808 1216 137 17 463 20 595 5Z"/><path d="M4393 5236c-275-90-357-423-153-626 97-98 441-258 742-345 634-185 1396-185 2035-1 295 85 647 249 743 345 187 188 138 487-98 603 -61 30-74 33-162 33 -95 0-95 0-275-91 -395-199-716-269-1230-268 -510 0-809 66-1214 267 -180 89-185 91-265 94 -50 2-97-2-123-11Z"/><path d="M4430 3369c-331-65-414-496-131-683 186-123 524-261 815-332 478-116 1037-134 1536-48 378 65 813 222 1049 379 291 193 202 622-141 685 -92 17-150 1-352-100 -326-161-611-234-1028-262 -494-33-971 57-1383 262 -212 105-262 119-365 99Z"/></g></g></svg>