<svg width="1600" height="1600" viewBox="0 0 1200 1200" xmlns="http://www.w3.org/2000/svg"><g transform="matrix(.1 0 0-.1 0 1200)"><g fill="currentColor"><path d="M4056 11250c-163-29-293-176-304-344 -8-139 48-600 123-1013 44-241 44-233 0-233 -57 0-609-57-869-90 -554-70-1193-185-1293-232 -98-46-163-127-209-259 -375-1091-479-2730-263-4154 39-257 127-695 164-816 5-14-6-14-102-2 -60 7-133 15-163 19 -106 12-238-40-311-124 -161-183-105-473 111-582 126-64 1095-203 1940-279 124-12 255-23 293-27 37-3 67-7 67-9 0-1-49-103-109-226 -243-499-396-891-481-1233 -47-188-28-291 71-401 166-181 462-159 591 44 30 48 42 83 103 311 134 494 361 1042 609 1467 1 1 118-5 261-12 329-18 713-33 1062-41l272-7 3-796c3-796 3-796 26-853 98-242 415-314 605-139 60 55 104 142 117 227 6 41 10 374 10 815v745l423 12c232 7 562 19 732 27 171 8 339 16 374 17 65 3 65 3 108-72 229-398 447-938 582-1443 28-103 62-210 77-238 92-167 313-236 486-151 136 67 211 187 211 337 -1 205-206 768-509 1394 -57 118-103 215-102 217 2 1 136 14 298 29 872 79 1846 216 1989 280 224 101 286 401 121 589 -72 82-205 134-310 122 -30-4-103-12-162-19 -60-7-108-12-108-9 0 2 13 56 29 120 265 1052 325 2464 155 3641 -53 371-136 750-235 1079 -106 352-148 391-496 462 -492 101-1131 191-1755 247 -170 15-198 20-198 34 0 9 20 133 45 275 94 546 131 909 101 1014 -96 347-571 377-711 45 -10-25-23-115-36-245 -33-363-137-1041-162-1066 -3-3-111-1-239 6 -398 19-1390 25-1846 9 -643-22-572-35-599 111 -67 362-104 624-133 938 -16 177-23 222-43 266 -71 155-242 245-411 216Zm3044-2279c715-38 1192-79 1760-152 375-48 935-140 952-157 10-10 63-208 98-365 210-947 250-2265 100-3318 -44-306-138-748-197-929 -18-54-18-54-163-72 -791-96-1735-161-2765-189 -467-13-1752-7-2155 10 -893 38-1616 91-2225 162 -93 11-198 23-233 26 -76 7-69-5-126 209 -332 1236-330 3088 4 4352 36 134-9 113 390 182 732 126 1623 212 2600 250 287 11 1702 4 1960-9Z"/><path d="M3256 8229c-349-123-336-614 18-715 364-103 633 357 365 625 -98 98-256 135-383 90Z"/><path d="M6688 7870c-83-14-149-52-240-139 -171-162-392-427-647-775 -79-108-147-198-151-201 -4-2-44 48-90 113 -223 313-385 512-466 571 -123 91-320 91-439 0 -111-84-449-486-652-774 -256-365-589-997-623-1184 -28-155 60-326 204-396 54-26 176-48 477-85 1395-170 2649-168 3944 6 393 52 427 63 523 169 66 72 94 145 94 245 0 96-15 136-152 405 -338 664-741 1222-1279 1769 -251 255-340 304-503 276Zm148-1031c200-220 402-480 571-734 93-140 216-345 210-351 -8-8-331-41-577-58 -636-46-1315-48-1970-6 -239 16-623 50-643 58 -16 6-9 22 54 132 125 219 393 611 417 610 15-1 291-348 377-473 132-193 208-242 370-242 149 1 232 56 348 230 160 239 336 457 615 758 80 86 149 156 153 155 4-2 38-37 75-79Z"/></g></g></svg>