<svg width="1600" height="1600" viewBox="0 0 1200 1200" xmlns="http://www.w3.org/2000/svg"><path fill="currentColor" d="M5695 11243c-624-31-1301-146-1874-320 -104-31-118-33-175-25 -120 19-244-22-321-105 -25-26-133-149-242-273 -304-348-607-677-950-1031 -178-184-186-198-241-414 -266-1038-386-1987-386-3065 -1-603 17-916 79-1445 66-551 227-1400 290-1530 14-27 106-147 206-265 321-381 696-854 1035-1303 184-245 191-253 231-286 82-68 194-98 297-80 58 10 69 8 216-35 1410-410 2942-406 4319 11 107 32 118 34 176 24 79-14 160 0 238 41 75 40 106 75 315 355 296 395 685 886 1011 1273 100 118 192 238 206 265 60 123 219 950 284 1482 107 865 118 1834 30 2698 -63 625-194 1351-347 1920 -43 162-52 174-296 428 -417 435-725 774-1105 1218 -77 90-217 139-336 118 -57-10-68-8-180 26 -771 234-1720 356-2480 318Zm645-753c299-18 936-103 963-129 4-4-40-44-98-90 -222-174-439-404-580-616 -124-185-179-323-200-497 -4-32-8-58-9-58 -2 0-36 12-77 28 -74 27-74 27-339 27 -263-1-266-1-339-28 -41-15-76-27-77-27s-6 26-9 58c-21 174-76 311-200 497 -141 211-352 435-578 615 -59 46-104 87-99 91 14 12 369 70 602 98 78 9 292 27 415 34 126 8 476 6 625-3Zm-2567-456c585-295 1000-696 1130-1094 50-150 50-150-38-216 -48-36-125-113-208-208 -159-183-394-440-538-591 -58-61-108-117-110-124 -7-20-160 57-299 150 -303 204-633 551-918 967l-71 104 233 246c230 244 465 501 641 700 49 56 93 102 98 102 4 0 40-16 80-36Zm4724-169c205-229 403-444 610-662l145-152 -64-93c-347-507-773-926-1125-1104 -75-39-75-39-182 71 -132 137-365 392-539 592 -85 97-158 171-203 203 -86 63-85 61-60 162 83 327 404 704 829 971 127 80 384 218 399 215 6-2 92-93 190-203ZM6295 8386c167-44 269-121 477-359 171-195 396-443 571-627 231-242 264-307 296-581 61-532 61-1106 0-1638 -32-275-64-338-301-587 -177-186-368-395-570-624 -293-333-379-374-768-374 -376 0-479 46-729 329 -213 242-438 489-595 655 -242 254-281 325-310 555 -69 557-69 1178 0 1730 28 226 69 302 291 535 175 184 400 431 574 630 296 338 394 383 814 375 130-2 209-9 250-19Zm3284-506c177-1073 206-2141 86-3175 -26-221-91-664-99-672 -1-1-49 55-106 124 -304 367-653 659-1018 849 -71 36-73 39-68 68 84 465 64 1863-29 2020 -24 40-24 40 68 86 372 186 715 469 1046 863 40 48 75 86 76 85 2-2 21-113 44-248Zm-7087 164c242-320 672-677 1034-860 142-71 142-71 123-102 -55-92-97-930-70-1417 11-206 35-498 46-562 6-32 4-33-74-72 -367-185-731-481-1031-839 -52-62-96-110-97-105 -8 26-56 358-77 533 -59 483-80 835-80 1370 0 646 42 1189 139 1790 56 349 46 318 87 264Zm1469-3742c25-77 54-118 176-246 133-139 407-440 562-619 52-59 125-130 163-158 38-27 71-56 74-64 11-29-38-183-91-290 -183-362-509-661-1017-929l-126-67 -98 128c-262 344-544 701-772 976l-114 138 47 72c290 437 731 873 1084 1073 84 47 92 46 112-14Zm4202-30c253-152 544-419 812-747 107-131 267-354 273-379 2-7-42-68-98-135 -161-194-512-638-689-869l-163-213 -116 62c-600 316-1001 726-1103 1127 -25 101-26 99 59 161 45 33 125 115 238 243 182 208 371 414 524 573 78 81 101 112 119 160 34 91 23 90 144 17ZM5661 2873c73-27 76-27 339-27s266 0 339 27c41 15 75 27 77 27 1 0 5-26 9-57 21-175 76-313 200-498 141-212 345-429 572-609 62-49 111-91 110-93 -6-6-207-40-357-62 -687-98-1362-90-2055 24 -235 39-225 25-93 130 228 181 432 398 573 610 124 186 179 323 200 498 3 31 8 57 9 57s36-12 77-27Z" transform="matrix(.1 0 0-.1 0 1200)"/></svg>