<svg width="1600" height="1600" viewBox="0 0 1200 1200" xmlns="http://www.w3.org/2000/svg"><path fill="currentColor" d="M5420 10489c-825-36-1664-147-2490-330 -410-91-549-156-741-348 -188-188-258-334-343-717 -462-2074-461-4134 4-6204 69-310 117-427 236-586 166-221 386-357 691-429 1704-403 3511-482 5238-229 523 76 1212 216 1394 283 308 113 553 360 666 671 87 240 257 1153 329 1770 68 576 91 980 91 1630 0 650-23 1054-91 1630 -74 630-243 1535-333 1779 -112 306-356 550-662 662 -210 77-979 228-1547 304 -804 107-1667 147-2442 114Zm1035-749c840-30 1653-135 2476-320 239-53 280-70 349-140 70-69 87-110 140-349 437-1948 437-3914 0-5862 -53-239-70-280-140-349 -69-70-110-87-349-140 -450-101-1386-259-1407-237 -3 2 4 92 15 198 42 402 61 760 61 1140v236l78 7c187 17 521 106 612 164 113 72 278 289 374 493 127 271 191 547 203 879 13 370-41 519-217 602 -147 69-707 184-993 204 -98 7-98 7-91 38 12 56 62 141 104 180 69 62 95 69 295 76 226 9 270 23 360 114 108 109 233 400 287 667 27 137 33 497 10 629 -52 290-185 621-294 731 -93 93-130 103-378 107 -517 9-924-76-1335-278 -729-358-1215-999-1384-1825 -23-113-51-328-51-392 0-40-2-42-32-47 -299-43-424-70-623-137 -250-85-305-127-390-304 -235-487-258-897-75-1355 69-174 136-295 188-341 115-102 475-212 833-254 56-6 56-6 62-368 7-406 44-943 84-1199 5-36 5-36-33-32 -22 2-106 8-189 14 -133 10-368 32-480 45 -505 58-988 140-1452 244 -245 55-283 71-353 141 -71 70-86 110-141 354 -434 1937-435 3899-4 5832 59 265 74 304 145 374 68 68 109 86 308 131 1161 261 2292 369 3427 329Zm1393-1757c56-209 56-411 1-599 -21-71-21-71-92-78 -408-38-765-334-897-744 -50-156-62-261-58-519 3-220 4-230 29-283 47-100 138-179 242-212 18-5 140-13 272-18 268-10 439-28 636-68 133-27 133-27 130-77 -11-193-107-486-199-612 -52-70-188-98-546-114 -197-9-249-14-293-31 -109-40-195-134-228-251 -15-52-15-86-5-365 16-409 4-825-36-1267 -18-201-50-464-56-471 -6-6-746-29-752-23 -3 2-16 101-30 219 -68 575-90 1103-66 1580 14 269-4 343-106 443 -92 91-133 102-421 117 -201 10-341 28-483 62 -114 27-114 27-143 105 -77 208-75 361 5 586 21 57 21 57 102 82 171 51 322 73 583 83 219 9 282 29 367 117 95 97 100 120 125 570 43 753 384 1317 983 1625 249 128 579 213 854 219 62 1 62 1 82-76Z" transform="matrix(.1 0 0-.1 0 1200)"/></svg>