<svg width="1600" height="1600" viewBox="0 0 1200 1200" xmlns="http://www.w3.org/2000/svg"><path fill="currentColor" d="M5300 10163c-960-29-1963-118-2880-253 -466-69-744-211-1085-554 -260-262-380-472-466-819 -337-1363-396-2848-168-4242 40-245 105-568 135-673 199-688 940-1371 1668-1537 143-33 695-101 1206-149 1814-172 3650-138 5480 100 340 44 498 88 735 204 463 227 896 645 1115 1078 98 194 132 304 194 617 213 1080 258 2165 136 3260 -62 548-223 1363-314 1590 -187 462-663 903-1138 1054 -296 94-1560 240-2563 296 -554 31-1533 44-2055 28Zm1700-763c1158-56 2515-205 2742-299l77-33 -49-98c-464-924-1568-1855-2935-2475 -314-142-694-284-805-300 -100-14-501 139-970 371 -1274 629-2314 1493-2820 2344 -93 157-96 146 45 199 82 32 178 49 520 95 858 116 1604 176 2595 210 196 7 1393-3 1600-14Zm3424-1141c286-1241 337-2456 155-3699 -52-361-119-686-164-796 -165-411-619-815-1048-934 -121-34-691-105-1247-155 -1759-158-3576-117-5309 121 -412 56-821 326-1088 716 -119 173-162 283-212 533 -241 1211-259 2416-56 3610 55 322 158 796 173 795 4-1 32-40 62-88 552-872 1665-1784 2989-2446 603-302 1103-486 1321-486 346 0 1381 440 2160 918 978 600 1751 1338 2166 2064 26 46 41 64 46 55 4-8 27-101 52-208Z" transform="matrix(.1 0 0-.1 0 1200)"/></svg>