<svg width="1600" height="1600" viewBox="0 0 1200 1200" xmlns="http://www.w3.org/2000/svg"><g transform="matrix(.1 0 0-.1 0 1200)"><g fill="currentColor"><path d="M4655 11164c-595-91-1030-503-1141-1080 -126-659 320-1324 993-1479 59-14 140-33 178-42 84-21 175-21 241 0 27 9 81 21 119 27 373 60 747 334 928 678 103 198 142 359 141 592 0 368-124 664-388 925 -193 191-396 302-659 360 -70 16-349 28-412 19Zm270-759c212-45 385-219 430-433 114-534-535-893-934-517 -407 384-45 1066 504 950Z"/><path d="M4540 8160c-1247-128-1972-994-1983-2366l-2-203 -110-26c-60-14-411-95-778-179 -392-91-685-164-709-176 -205-107-269-354-141-547 40-60 82-94 159-130 89-41 157-41 328-3 80 19 148 31 150 29 3-2-4-43-14-90 -143-640-187-1495-114-2214 23-233 61-477 115-748 27-136 52-289 55-340 13-209 94-339 245-393 55-19 398-103 589-143 1896-399 4544-451 6615-131 197 31 219 34 450 76 338 62 824 177 901 215 127 61 192 177 206 367 5 70 20 185 34 257 123 646 158 1002 158 1580 0 546-40 980-135 1453 -11 57-18 106-15 110 3 3 70-9 149-27 166-37 215-39 300-10 264 89 343 428 144 621 -75 74-114 86-624 203 -18 4-22 14-28 67 -62 574-488 1098-1023 1258 -79 24-82 26-82 56 0 52-21 146-42 191 -110 234-439 284-611 93 -60-66-86-125-100-227 -13-85-13-85-107-118 -361-124-652-367-832-693 -40-74-40-74-82-68 -22 3-124 12-226 21 -102 8-217 17-256 21 -72 5-72 5-79 92 -93 1198-739 1936-1845 2107 -123 19-530 28-660 15Zm485-751c728-62 1134-471 1250-1256 28-189 79-168-418-169 -774-1-1588-73-2373-209 -78-14-149-25-159-25 -17 0-17 9-11 136 36 682 283 1165 710 1381 241 122 618 176 1001 142Zm1730-2189c719-42 1340-121 2030-256 268-52 969-215 976-226 3-5 9-54 13-108 3-55 22-179 40-277 174-897 179-1735 16-2618 -21-115-40-228-42-249 -3-45 19-38-328-110 -1503-313-3735-393-5580-200 -605 63-1052 135-1634 263 -33 7-31 0-110 446 -140 793-128 1624 36 2430 22 110 46 252 52 315l11 115 335 78c1112 258 1913 368 3010 411 163 7 996-3 1175-14Z"/></g></g></svg>