<svg width="1600" height="1600" viewBox="0 0 1200 1200" xmlns="http://www.w3.org/2000/svg"><path fill="currentColor" d="M5710 11994c-301-20-397-28-535-45 -1978-241-3377-1343-3634-2862 -276-1624 910-3993 2544-5084 214-142 533-312 723-384l62-24v-641c0-629 0-641-20-659 -30-27-111-157-165-264 -215-429-222-953-19-1400 111-242 200-345 360-416 634-278 1314-278 1946 0 54 23 116 58 139 76 80 63 221 308 284 494 111 326 115 701 10 1020 -58 178-190 431-255 490 -20 18-20 30-20 659v641l88 34c1556 611 3034 2669 3258 4536 244 2048-1366 3603-3951 3815 -132 11-714 21-815 14Zm438-900c928-521 1493-1239 1685-2139 56-263 45-638-28-1040 -153-833-582-1809-1210-2755 -192-289-564-770-595-770 -11 0-236 269-345 414 -444 587-907 1419-1168 2101 -324 845-429 1591-302 2131 180 766 656 1410 1401 1897 148 97 392 237 413 237 8 0 75-34 149-76Zm-1741-166c-560-594-879-1220-995-1953 -89-559 4-1277 264-2055 273-812 845-1880 1330-2481 102-127 102-127 41-102 -568 230-1186 737-1667 1368 -616 806-1051 1853-1121 2695 -99 1200 684 2164 2121 2614 80 25 146 45 148 46 2 0-53-60-121-132Zm3293 60c1377-449 2138-1414 2041-2588 -93-1122-814-2530-1716-3353 -354-323-777-600-1112-728 -13-5 16 39 81 119 335 418 750 1118 1043 1762 467 1024 669 2037 551 2775 -119 753-456 1400-1047 2008 -87 88-96 88 159 5ZM5851 3380c144-9 377-1 482 16 37 6 37 6 37-427 0-432 0-432-52-425 -202 25-434 25-635 0 -53-7-53-7-53 426 0 432 0 432 33 426 17-3 102-10 188-16Zm364-1525c90-19 202-53 315-96 76-29 76-29 109-97 119-240 122-454 8-682 -42-85-42-85-117-112 -340-126-694-128-1040-6 -95 33-95 33-138 120 -113 230-110 440 9 680 33 67 33 67 126 102 288 111 504 137 728 91Z" transform="matrix(.1 0 0-.1 0 1200)"/></svg>