<svg width="1600" height="1600" viewBox="0 0 1200 1200" xmlns="http://www.w3.org/2000/svg"><g transform="matrix(.1 0 0-.1 0 1200)"><g fill="currentColor"><path d="M5400 10489c-864-39-1842-174-2627-365 -276-67-435-155-607-334 -172-180-238-322-320-691 -442-1992-461-3934-60-5914 135-661 190-796 424-1019 180-172 322-238 691-320 2097-465 4175-462 6244 11 351 80 501 157 688 353 176 184 239 321 326 716 459 2087 456 4111-10 6194 -77 346-147 494-316 670 -187 196-337 273-688 353 -1221 279-2532 400-3745 346Zm1110-749c863-37 1736-156 2538-345 210-50 297-137 347-347 172-732 282-1488 337-2333 16-251 16-1179 0-1430 -55-845-165-1601-337-2333 -50-210-137-297-347-347 -1980-468-4103-470-6077-4 -238 57-314 132-370 371 -329 1384-430 2923-285 4343 55 544 168 1222 285 1713 56 239 132 314 370 371 1125 265 2410 389 3539 341Z"/><path d="M8292 8980c-385-101-542-565-299-885 278-369 872-248 987 201 107 418-270 793-688 684Z"/><path d="M5790 8243c-1051-101-1800-766-1994-1771 -207-1072 303-2123 1223-2522 999-434 2143-145 2777 700 802 1068 508 2578-637 3277 -394 239-915 360-1369 316Zm402-758c1032-136 1612-1237 1142-2167 -277-550-851-862-1485-810 -381 32-654 145-891 370 -655 624-595 1810 119 2346 285 214 714 314 1115 261Z"/></g></g></svg>