<svg width="1600" height="1600" viewBox="0 0 1200 1200" xmlns="http://www.w3.org/2000/svg"><path fill="currentColor" d="M2555 10678c-669-67-1154-472-1291-1078 -158-698 128-1361 711-1646 272-133 681-208 868-159 32 8 102 20 155 26 279 30 551 122 753 255 317 209 528 613 555 1062 8 122-23 108 324 147 754 85 1653 99 2470 39 549-40 1314-136 1518-189 620-164 1065-698 1124-1349 70-775-456-1480-1221-1636 -110-22-473-60-861-89 -1248-94-2398-82-3730 40 -600 56-888 16-1285-176 -1268-613-1550-2278-554-3266 327-324 692-501 1215-589 1461-244 2987-292 4471-140 257 27 230 32 283-51 91-144 294-311 491-403 278-130 641-192 865-148 60 12 162 28 227 37 215 29 456 112 623 215 717 443 815 1627 185 2232 -355 343-944 485-1523 368 -689-140-1113-643-1145-1361 -6-136-6-136-87-143 -45-3-155-13-246-21 -1207-107-2594-66-3730 111 -608 95-728 133-970 309 -430 314-615 909-444 1432 138 424 499 745 944 841 162 35 265 37 565 8 533-50 946-77 1480-97 362-13 1489-7 1780 10 579 34 1156 81 1433 116 961 123 1756 866 1946 1817 235 1172-479 2340-1620 2653 -278 76-1133 184-1824 230 -975 64-1941 30-2850-101 -35-5-35-4-90 83 -277 438-868 676-1515 611Zm354-749c216-20 342-71 456-184 253-251 256-764 6-1014 -133-134-269-181-548-188 -397-11-618 75-748 292 -167 279-111 742 113 935 155 132 408 189 721 159Zm6571-6469c127-14 210-35 298-76 452-215 450-1022-3-1235 -130-62-198-73-440-73 -312-1-467 42-602 168 -252 233-267 748-29 1013 150 166 429 239 776 203Z" transform="matrix(.1 0 0-.1 0 1200)"/></svg>