<svg width="1600" height="1600" viewBox="0 0 1200 1200" xmlns="http://www.w3.org/2000/svg"><g transform="matrix(.1 0 0-.1 0 1200)"><g fill="currentColor"><path d="M5843 11295c-1918-408-3590-1390-4684-2750 -188-233-359-463-382-512 -22-48-22-49-22-603 0-555 0-555 28-611 74-151 138-187 472-264 132-31 245-58 252-60 9-3 8-17-2-57 -24-90-82-414-109-598 -119-830-108-1646 35-2508 17-101 29-186 26-188 -2-3-96-13-208-23 -255-24-287-35-402-136 -563-492-598-1231-83-1764 158-163 210-190 401-211 1182-126 2178-196 3470-242 463-16 2147-16 2615 0 1191 42 2222 110 3200 213 162 17 348 34 412 38 170 12 262 66 420 247 464 533 412 1232-128 1716 -126 114-212 136-524 138 -123 1-117-12-81 196 169 981 170 1919 1 2850 -16 89-38 198-49 243 -13 59-16 84-7 86 6 2 112 27 236 56 358 82 415 114 494 279 33 71 33 1129-1 1201 -22 49-166 243-358 484 -1039 1307-2601 2265-4422 2714 -395 97-432 101-600 66Zm407-800c1744-427 3150-1309 4148-2602l102-132v-239 -239l-237-52c-2005-441-4052-567-6133-375 -777 71-1614 203-2418 381l-212 47v238 239l122 157c467 603 960 1061 1598 1484 767 509 1633 878 2610 1113 171 41 169 41 420-20ZM2580 6286c146-24 304-50 352-57 64-9 89-16 92-28 20-69 84-447 106-626 61-494 66-1131 14-1635 -24-233-92-672-107-686 -2-2-125-11-273-19 -148-9-330-19-404-25 -74-5-137-7-139-4 -18 18-102 567-126 834 -31 332-36 906-10 1202 32 362 72 643 141 971 13 64 24 120 24 123 0 4 15 4 33 0 17-4 151-26 297-50Zm7170 51c0-2 14-71 30-153 194-949 200-1903 19-2853l-32-163 -86 6c-47 3-223 13-391 22 -168 8-308 18-311 22 -3 4-18 75-32 157 -149 844-165 1576-51 2375 22 152 66 406 79 450 4 12 55 23 217 49 117 18 283 45 368 61 159 28 190 32 190 27Zm-5670-247c287-26 591-50 649-50 75 0 75 2 51-158 -52-361-64-549-65-1052 0-484 5-591 46-965 18-163 63-478 75-531 5-20 1-21-143-27 -318-14-873-30-877-26 -2 2 0 27 5 54 143 760 150 1740 18 2589 -16 105-29 191-29 193 0 1 12 0 28-2 15-3 124-14 242-25Zm4106-3c-142-759-139-1796 10-2681 13-82 23-150 22-152 -2-1-174 8-383 21 -209 13-447 26-528 30 -148 7-148 7-143 34 22 110 61 386 80 571 37 352 41 440 41 910 -1 507-8 626-61 1019 -15 115-21 187-15 190 5 4 126 15 268 25 197 13 631 53 707 65 4 0 5-14 2-32Zm-1743-109c4-13 17-102 31-198 106-737 96-1470-32-2260l-27-165h-415 -414l-13 75c-142 825-157 1589-47 2350 14 96 27 185 31 198 5 22 5 22 443 22 438 0 438 0 443-22Zm912-3377c1169-44 2007-102 3215-222 141-14 150-20 218-133 86-142 77-253-33-396 -71-92-48-85-380-119 -973-99-1776-154-2940-202 -690-28-2403-22-3210 11 -964 40-1658 90-2790 202 -136 13-140 16-216 133 -100 151-82 299 54 447 42 46 42 46 257 67 1368 133 2285 190 3635 225 252 7 1933-4 2190-13Z"/><path d="M5855 9744c-593-87-978-528-978-1119 0-562 341-982 898-1106 79-18 369-18 450-1 552 120 898 546 898 1107 0 638-454 1106-1088 1120 -82 2-163 1-180-1Zm295-765c297-104 293-607-5-710 -24-8-82-14-145-14 -194 0-300 72-352 237 -72 233 47 460 262 502 42 8 203-2 240-15Z"/></g></g></svg>