<svg width="1600" height="1600" viewBox="0 0 1200 1200" xmlns="http://www.w3.org/2000/svg"><g transform="matrix(.1 0 0-.1 0 1200)"><g fill="currentColor"><path d="M5710 10870c-2663-99-4408-1457-4859-3780 -119-613-132-1335-35-1970 296-1943 1511-3295 3399-3780 988-254 2208-286 3225-84 2202 437 3551 1934 3787 4204 24 233 24 847 0 1080 -238 2291-1610 3795-3844 4214 -504 95-1110 137-1673 116Zm785-760c1492-97 2571-623 3262-1590 992-1388 987-3668-11-5055 -658-915-1654-1424-3061-1562 -226-22-1049-25-1265-5 -1390 131-2334 558-3009 1362 -935 1114-1183 2980-594 4470 580 1466 1856 2274 3763 2383 143 8 773 6 915-3Z"/><path d="M3284 9000c-169-34-248-122-324-359 -186-577-274-1127-275-1701 0-519 53-807 211-1139 211-445 556-700 1114-825l105-23 5-829c5-826 5-829 27-883 134-326 574-328 705-3 23 57 23 57 28 886l5 829 103 23c644 144 1014 466 1206 1048 95 289 121 485 121 916 -1 562-81 1075-261 1658 -73 238-122 309-252 370 -126 59-299 30-405-67 -125-116-147-250-77-481 258-852 318-1665 159-2152 -99-305-244-456-527-552l-72-25 -2 1507c-3 1507-3 1507-25 1561 -134 327-573 329-705 3 -23-57-23-57-26-1564l-2-1507 -71 24c-284 97-430 249-528 552 -158 487-100 1301 155 2139 72 240 65 336-37 465 -75 95-235 153-355 129Z"/><path d="M7598 8981c-154-49-229-152-267-364 -267-1485-271-3399-10-5017 43-265 83-335 264-455 255-170 555-190 816-54 205 107 433 336 508 513 171 399 101 897-212 1510 -60 118-69 140-56 150 512 387 694 628 730 966 10 101-4 454-27 650 -112 977-529 1640-1249 1990 -259 126-371 151-497 111Z"/></g></g></svg>