<svg width="1600" height="1600" viewBox="0 0 1200 1200" xmlns="http://www.w3.org/2000/svg"><g transform="matrix(.1 0 0-.1 0 1200)"><g fill="currentColor"><path d="M5400 10489c-864-39-1842-174-2627-365 -276-67-435-155-607-334 -172-180-238-322-320-691 -442-1992-461-3934-60-5914 135-661 190-796 424-1019 180-172 322-238 691-320 2097-465 4175-462 6244 11 351 80 501 157 688 353 176 184 239 321 326 716 459 2087 456 4111-10 6194 -77 346-147 494-316 670 -187 196-337 273-688 353 -1221 279-2532 400-3745 346Zm1110-749c863-37 1736-156 2538-345 210-50 297-137 347-347 172-732 282-1488 337-2333 16-251 16-1179 0-1430 -55-845-165-1601-337-2333 -50-210-137-297-347-347 -1980-468-4103-470-6077-4 -238 57-314 132-370 371 -329 1384-430 2923-285 4343 55 544 168 1222 285 1713 56 239 132 314 370 371 1125 265 2410 389 3539 341Z"/><path d="M5640 8339c-513-13-1162-71-1567-139 -448-76-801-404-912-845 -202-810-214-1795-31-2572 67-285 252-550 527-756 219-164 382-225 713-266 1045-130 2114-134 3145-10 94 11 207 24 253 30 434 50 919 456 1073 899 43 122 102 459 136 770 38 357 24 953-33 1350 -92 643-172 850-418 1088 -216 208-365 277-699 327 -665 99-1448 143-2187 124Zm905-759c413-22 1132-93 1153-115 6-6-123-171-205-261 -317-349-909-725-1411-895 -84-28-84-28-212 22 -564 220-1197 662-1518 1060l-61 76 122 17c665 91 1502 129 2132 96ZM4184 6484c447-385 1103-762 1616-929 144-48 274-42 458 19 675 224 1404 682 1814 1140 50 55 94 102 98 104 4 1 14-53 23-120 80-593 72-1044-29-1613 -28-159-56-226-131-320 -113-139-264-226-433-250 -823-112-1799-135-2650-59 -308 27-603 64-670 84 -188 56-382 258-424 441 -98 420-128 1039-75 1514 13 123 39 307 44 323 3 8 55-39 127-114 68-70 172-169 232-220Z"/></g></g></svg>