<svg width="1600" height="1600" viewBox="0 0 1200 1200" xmlns="http://www.w3.org/2000/svg"><path fill="currentColor" d="M5934 11620c-73-15-110-36-517-296 -2020-1292-2610-1663-3422-2149 -443-266-867-511-1150-665 -93-51-204-111-245-133 -128-70-197-158-219-283 -26-140 100-641 249-995 129-307 357-706 471-824 39-40 39-40-7-150 -396-958-416-2071-53-3057 22-60 38-112 36-115 -3-2-162 8-354 22 -384 30-418 29-508-14 -200-93-251-264-172-575 114-445 310-856 585-1225 189-255 196-259 532-316 2752-462 4682-568 6870-374 792 69 1756 197 2750 364 298 50 315 54 374 89 142 83 453 547 614 916 115 261 218 604 229 760 13 181-102 341-278 387 -65 17-77 16-415-10 -191-14-349-25-351-24 -1 2 18 58 42 125 246 675 312 1435 189 2149 -52 305-125 565-246 871 -60 154-60 154-30 185 114 122 376 592 487 877 137 350 248 806 225 928 -28 152-93 223-306 336 -896 477-2079 1201-4599 2816 -286 183-545 344-575 356 -65 26-148 36-206 24Zm303-961c1163-740 2634-1642 3611-2214 111-65 201-119 200-121 -9-9-807-144-1168-198 -1064-159-1918-227-2880-227 -1098 0-2072 89-3385 307 -247 41-659 115-663 118 -1 2 105 65 235 141 932 545 2862 1730 3668 2253 77 49 141 91 142 91 1 1 109-67 240-150ZM1628 7606c1387-263 2345-388 3522-458 286-17 1409-17 1705 0 1177 68 2252 210 3665 486 96 19 177 32 179 30 7-7-119-375-171-495 -66-154-136-279-163-290 -29-13-497-99-940-174 -2531-428-4295-429-6820-5 -420 70-942 167-972 180 -48 20-171 286-269 578 -71 214-71 215-46 208 9-3 149-30 310-60Zm362-1551c47-8 213-35 370-60s295-47 307-50c17-4 32-31 71-132 167-430 238-773 249-1215 11-442-40-791-176-1198 -77-228-230-567-256-564 -6 1-153 12-327 25l-317 23 -55 116c-453 954-462 2004-25 2972 27 60 50 98 59 98 8 0 53-7 100-15Zm8183-74c361-790 419-1662 165-2496 -39-129-126-349-193-490l-53-110 -308-23c-170-12-319-22-332-22 -20 0-34 21-97 153 -240 499-348 973-347 1527 0 452 77 859 244 1282 50 127 50 127 97 134 25 3 199 32 386 64 444 75 395 77 438-19Zm-1739-243c-129-441-169-725-169-1213 0-630 99-1121 335-1674 17-40 30-74 28-75 -14-12-527-42-923-56 -170-5-349-13-397-16 -87-6-87-6-63 72 302 966 308 1925 18 2906 -7 24-8 24 242 43 214 16 734 66 865 84 36 5 70 9 76 10 8 1 3-29-12-81Zm-4729 47c203-22 442-41 750-61 149-9 274-20 278-24 5-4-8-63-27-130 -254-881-240-1883 38-2764l34-108 -101 6c-56 3-239 11-407 16 -359 12-904 45-918 55 -2 2 19 56 47 121 144 344 248 742 298 1144 25 207 25 743 0 950 -34 269-118 661-174 807 -4 10 1 13 18 9 13-3 87-12 164-21Zm2813-267c152-472 209-868 199-1388 -10-503-103-975-276-1397l-28-68h-417c-477 0-417-31-516 265 -276 822-273 1741 9 2600l41 125 473-2 472-1 43-134ZM1320 2180c885-58 1156-80 1985-155 1058-97 1559-124 2440-132 928-9 1699 21 2560 97 293 26 712 59 1515 120 366 28 780 59 921 70 141 11 261 20 267 20 25 0-158-418-239-546 -39-61-39-61-237-93 -1944-313-3138-425-4537-425 -1354 0-2618 116-4373 401 -353 57-353 57-391 118 -95 150-263 545-233 545 10 0 154-9 322-20Z" transform="matrix(.1 0 0-.1 0 1200)"/></svg>