<svg width="1600" height="1600" viewBox="0 0 1200 1200" xmlns="http://www.w3.org/2000/svg"><g transform="matrix(.1 0 0-.1 0 1200)"><g fill="currentColor"><path d="M8535 10874c-494-53-874-376-1003-852 -23-87-26-115-26-272s3-185 26-272c138-511 574-851 1093-851 519 0 955 340 1093 851 38 143 38 401 0 544 -116 431-455 752-877 832 -84 16-244 26-306 20Zm257-792c344-169 232-685-152-700 -419-17-541 552-153 714 88 37 213 31 305-14Z"/><path d="M3705 10489c-720-121-1503-1046-2131-2517 -556-1302-830-2751-811-4282 9-705 35-883 164-1120 131-240 321-400 620-519 721-286 1739-459 3148-533 317-17 1491-17 1810 0 1692 88 3102 314 4295 688 267 84 321 113 383 207 168 253-3 582-303 582 -77 0-104-6-280-62 -199-63-440-133-459-133 -8 0-11 119-11 389 0 390 0 390 48 396 383 51 807 159 913 233 65 45 124 127 146 202 26 89 6 577-37 895 -106 785-355 1519-684 2020 -540 822-1132 745-1661-215 -254-459-462-1131-550-1769 -47-347-69-837-42-931 22-75 81-157 146-202 108-75 495-173 929-234 32-5 32-5 30-487l-3-482 -165-32c-187-37-517-93-725-123 -194-29-598-80-601-77 -1 1-7 83-13 182 -108 1761-715 3865-1603 5549 -874 1658-1784 2505-2553 2375Zm270-763c356-113 863-667 1339-1463 98-164 296-521 296-534 0-14-130-89-189-109 -137-46-242-24-496 100 -266 131-404 168-585 157 -194-12-357-81-575-244 -329-245-534-333-774-333 -224 0-400 81-591 270 -136 135-131 117-70 257 424 964 1024 1762 1429 1900 84 29 123 29 216-1Zm640-2691c253-124 383-166 578-184 228-22 474 33 686 153 35 20 65 35 66 34 1-2 34-78 74-171 565-1325 939-2724 1060-3968 23-227 45-578 38-585 -6-6-351-30-672-45 -509-26-1541-15-2080 22 -1117 75-2029 243-2580 475 -157 66-227 161-245 331 -95 880 17 2205 270 3216 66 261 160 588 176 606 2 2 43-26 91-61 627-462 1379-411 2093 140 205 159 199 158 445 37Zm5188-392c354-461 624-1308 682-2144 7-96 7-96-51-108 -471-98-875-101-1319-10 -55 12-102 23-104 25 -8 7 20 300 45 472 74 520 216 999 414 1395 91 181 253 427 282 427 4 0 27-26 51-57Z"/></g></g></svg>