<svg width="1600" height="1600" viewBox="0 0 1200 1200" xmlns="http://www.w3.org/2000/svg"><g transform="matrix(.1 0 0-.1 0 1200)"><g fill="currentColor"><path d="M3607 10869c-438-48-852-330-1097-748 -39-67-39-67-132-104 -431-171-748-574-851-1082 -32-159-32-461 1-621 102-510 415-907 853-1084 88-35 88-35 143-123 195-311 462-536 766-647l75-28v-418 -418l-100-17c-805-135-1626-654-2333-1474 -189-219-204-272-157-550 79-474 191-928 321-1292 104-293 122-311 434-426 2036-754 4808-921 7213-436 98 20 186 31 251 32 105 2 188 28 241 76 13 12 115 40 290 80 693 160 1066 272 1192 357 101 69 127 124 208 439 206 799 341 1962 324 2792 -5 199-26 263-119 346 -115 103-163 111-613 97 -1436-43-2391-248-3792-814 -160-65-160-65-195-44 -744 442-1526 732-2210 822 -69 9-140 19-158 22 -32 5-32 5-30 415l3 410 85 32c303 115 577 350 764 659 45 74 45 74 128 106 525 200 888 771 888 1397 0 633-376 1215-908 1405 -60 22-64 26-108 98 -315 519-836 800-1377 741Zm308-764c243-52 437-225 545-487 57-140 144-213 296-250 413-101 619-677 406-1132 -88-185-232-313-399-352 -153-35-246-112-303-251 -130-315-358-485-672-500 -339-16-602 155-739 480 -67 160-148 230-313 271 -289 71-479 365-479 741 0 178 17 259 87 400 95 190 223 299 406 344 156 39 231 107 300 271 152 359 494 543 865 465Zm190-5250c1371-145 2893-1079 3979-2443 173-218 258-340 238-346 -19-5-222-36-397-61 -1579-218-3395-151-4845 180 -432 98-1150 306-1260 365 -32 17-165 495-234 840 -52 259-62 216 89 381 566 617 1194 995 1799 1084 125 18 460 18 631 0Zm6361-192c-23-575-96-1216-191-1688 -59-292-90-416-106-426 -58-36-1008-289-1040-277 -3 2-47 64-97 138 -404 607-934 1185-1545 1689 -109 90-135 116-123 123 58 32 536 195 786 267 658 190 1573 329 2234 340l89 1 -7-167Z"/><path d="M8497 9370c-591-55-1116-468-1295-1020 -235-721 95-1500 773-1825 1163-559 2444 525 2090 1767 -193 676-872 1142-1568 1078Zm296-766c470-103 715-630 498-1069 -233-471-912-548-1242-141 -337 416-155 1036 351 1195 113 35 273 41 393 15Z"/></g></g></svg>