<svg width="1600" height="1600" viewBox="0 0 1200 1200" xmlns="http://www.w3.org/2000/svg"><g transform="matrix(.1 0 0-.1 0 1200)"><g fill="currentColor"><path d="M5770 10869c-2000-115-3650-1693-3872-3704 -20-184-17-788 5-985 141-1250 668-2392 1596-3455 569-652 1533-1406 1995-1560 492-164 1006-84 1472 230 2087 1407 3383 3858 3118 5894 -278 2130-2173 3703-4314 3580Zm700-778c966-146 1775-649 2313-1438 628-920 750-2043 352-3248 -413-1250-1350-2504-2467-3301 -299-213-429-264-671-264 -221 0-323 40-632 248C3581 3285 2500 5238 2641 7011c124 1561 1375 2878 2929 3083 180 24 179 24 480 21 225-2 314-7 420-24Z"/><path d="M6619 8222c-155-63-244-192-243-352 1-102 13-138 94-274 84-139 177-262 288-378l94-98H5494c-774 0-1386-4-1423-10 -360-52-447-541-124-703 94-48 77-47 1530-47h1376l-71-74c-198-209-377-485-401-622 -29-158 57-324 206-400 88-44 241-43 328 3 79 41 134 100 191 203 182 331 467 611 814 798 174 94 274 211 315 369 59 226-66 479-290 587 -346 166-641 437-835 766 -110 186-188 242-350 247 -75 3-105-1-141-15Z"/></g></g></svg>