<svg width="1600" height="1600" viewBox="0 0 1200 1200" xmlns="http://www.w3.org/2000/svg"><g transform="matrix(.1 0 0-.1 0 1200)"><g fill="currentColor"><path d="M6840 10489c-1191-104-2297-867-3415-2354 -410-546-752-1070-1322-2025 -538-901-743-1240-860-1423 -153-239-157-250-158-362 0-80 3-97 31-155 114-238 420-296 601-113 75 76 285 413 996 1603 534 894 813 1332 1137 1785 1159 1621 2223 2344 3385 2301 1373-50 2452-826 2511-1803 48-793-724-1386-1476-1133 -455 152-730 523-769 1035 -9 112-14 136-41 191 -138 281-544 273-678-14 -27-57-27-59-26-272 7-964 385-2008 1042-2870 387-508 906-995 1435-1348 422-282 545-335 693-299 275 68 381 391 200 611 -22 27-80 69-167 120 -676 400-1241 939-1674 1596 -144 219-343 579-313 568 680-261 1426-108 1951 401 885 857 734 2263-338 3146 -709 584-1771 899-2745 814Z"/><path d="M5394 6750c-165-23-303-167-320-336 -8-73 13-163 98-418 238-719 582-1328 1058-1876 261-301 688-677 830-731 233-89 486 79 498 332 8 157-37 237-208 370 -709 554-1227 1339-1511 2287 -47 158-66 198-121 258 -82 89-201 131-324 114Z"/><path d="M664 3366c-107-27-202-104-251-204 -42-85-41-241 0-322 158-308 503-676 845-902 743-490 1640-534 2695-132 88 34 88 34 175-54 196-199 616-415 1012-521 465-123 1013-142 1501-51 480 90 979 321 1233 571l90 88 130-49c829-309 1590-338 2208-84 484 198 888 530 1190 979 118 175 133 210 133 320 0 223-175 387-399 373 -137-9-220-65-321-220 -399-608-956-904-1660-885 -372 11-702 93-1129 282 -257 113-367 97-541-80 -419-427-1056-645-1741-596 -604 43-1054 236-1424 612 -104 106-160 132-285 132 -69 0-91-4-155-32 -304-133-445-184-645-236 -254-67-353-79-620-80 -191 0-260 4-340 19 -531 98-944 376-1255 844 -43 65-93 132-112 147 -87 74-228 108-334 81Z"/></g></g></svg>