<svg width="1600" height="1600" viewBox="0 0 1200 1200" xmlns="http://www.w3.org/2000/svg"><g transform="matrix(.1 0 0-.1 0 1200)"><g fill="currentColor"><path d="M7810 10500c-113-20-219-101-272-208 -33-66-33-66-36-283 -3-218-3-218-40-212 -20 3-140 25-267 48 -416 78-507 82-620 26 -234-116-280-435-88-612 72-66 129-86 293-104 135-15 205-27 540-91 69-13 137-24 152-24 27 0 27 0 30-258s3-258 36-324c141-287 544-281 680 10 26 55 27 65 30 251 4 193 4 193 45 187 23-3 177-24 342-46 765-104 827-140 954-565 205-687 320-1295 383-2030 17-203 17-1077 0-1280 -63-733-178-1345-383-2030 -62-206-95-273-168-345 -96-94-185-124-701-238 -1923-428-3863-401-5773 79 -231 58-299 88-377 168 -70 73-96 127-159 336 -256 855-401 1773-401 2530 0 236-23 319-115 410 -181 182-488 129-602-103 -28-56-28-60-31-267 -13-850 171-1996 469-2915 126-387 366-655 716-796 320-129 1443-347 2183-423 674-70 1565-91 2140-51 915 63 1715 188 2522 395 326 83 499 175 680 361 183 190 241 311 383 804 267 931 379 1736 380 2725 0 959-106 1743-357 2643 -158 570-223 706-430 909 -262 256-495 335-1293 438 -110 14-246 33-302 42l-102 15 -3 277c-3 273-3 277-29 331 -74 158-243 249-409 220Z"/><path d="M3540 10493c-1051-101-1800-766-1994-1771 -206-1069 298-2115 1214-2518 999-440 2150-152 2786 696 860 1146 449 2780-854 3392 -336 158-786 237-1152 201Zm400-757c625-84 1119-523 1264-1126 195-805-285-1610-1080-1811 -352-89-776-49-1088 101 -943 453-1062 1934-207 2575 282 212 715 313 1111 261Z"/><path d="M3692 9089c-113-15-231-101-278-204 -42-89-46-136-42-483 5-467-4-451 390-707 278-181 317-198 433-193 139 6 248 76 316 200 33 60 34 68 34 168 0 179-40 237-260 381l-155 102v171c-1 291-22 370-130 469 -88 82-186 112-308 96Z"/><path d="M8187 7120c-296-50-413-422-201-634 215-215 585-95 634 207 40 249-183 468-433 427Z"/><path d="M6687 5620c-296-50-413-422-201-634 215-215 585-95 634 207 40 249-183 468-433 427Z"/><path d="M8187 5620c-296-50-413-422-201-634 215-215 585-95 634 207 40 249-183 468-433 427Z"/><path d="M3687 4120c-296-50-413-422-201-634 215-215 585-95 634 207 40 249-183 468-433 427Z"/><path d="M5187 4120c-296-50-413-422-201-634 215-215 585-95 634 207 40 249-183 468-433 427Z"/><path d="M6687 4120c-296-50-413-422-201-634 215-215 585-95 634 207 40 249-183 468-433 427Z"/></g></g></svg>