<svg width="1600" height="1600" viewBox="0 0 1200 1200" xmlns="http://www.w3.org/2000/svg"><g transform="matrix(.1 0 0-.1 0 1200)"><g fill="currentColor"><path d="M5760 10869c-527-27-1084-155-1558-358 -1710-732-2701-2379-2702-4492 -1-1929 1234-3890 2897-4598 464-198 921-293 1413-294 1182-2 2026 712 2320 1963 75 319 120 433 229 577 115 153 253 264 450 363 378 189 635 373 896 641 624 641 884 1481 770 2484 -197 1724-1451 3116-3213 3566 -473 121-1012 174-1502 148Zm770-773c931-114 1666-452 2250-1036 513-512 825-1133 931-1854 102-697-2-1302-299-1747 -204-304-449-507-879-725 -629-319-957-720-1105-1348 -121-516-273-835-519-1090 -284-296-603-416-1099-416 -459 0-872 101-1305 320 -1259 635-2201 2187-2251 3710 -30 889 189 1810 589 2475 575 958 1589 1594 2732 1714 55 6 116 13 135 15 93 11 692-3 820-18Z"/><path d="M5902 9370c-386-53-670-397-649-785 16-303 212-565 498-666 407-144 839 79 971 501 33 108 33 302 0 410 -114 363-458 589-820 540Z"/><path d="M3965 8234c-108-23-258-101-338-174 -440-404-281-1102 293-1282 108-33 302-33 410 0 240 76 421 246 501 473 144 404-78 838-496 969 -93 29-271 36-370 14Z"/><path d="M7715 8234c-108-23-258-101-338-174 -440-404-281-1102 293-1282 108-33 302-33 410 0 240 76 421 246 501 473 144 404-78 838-496 969 -93 29-271 36-370 14Z"/><path d="M3965 5984c-108-23-258-101-338-174 -440-404-281-1102 293-1282 108-33 302-33 410 0 240 76 421 246 501 473 144 404-78 838-496 969 -93 29-271 36-370 14Z"/><path d="M5465 4484c-108-23-258-101-338-174 -440-404-281-1102 293-1282 108-33 302-33 410 0 240 76 421 246 501 473 144 404-78 838-496 969 -93 29-271 36-370 14Z"/></g></g></svg>