<svg width="1600" height="1600" viewBox="0 0 1200 1200" xmlns="http://www.w3.org/2000/svg"><path fill="currentColor" d="M3540 10869c-842-73-1719-525-2115-1089 -285-406-371-990-249-1700 243-1423 1380-3366 2681-4582 1570-1466 3662-2466 4977-2378 531 35 863 177 1196 510 335 335 586 785 739 1325 119 423 150 909 77 1199 -185 728-1281 1536-2221 1637 -447 48-942-118-1430-481l-90-66 -147 170c-438 510-984 1055-1523 1520 -88 76-166 144-173 151 -11 10-4 25 39 81 361 476 540 983 500 1419 -74 795-650 1719-1321 2119 -257 153-530 201-940 165Zm493-781c94-44 204-126 321-238 459-443 765-1137 682-1548 -57-280-249-608-542-923 -139-150-159-191-159-324 0-164 32-215 234-378 789-636 1577-1428 2159-2169 99-125 178-175 300-185 129-11 207 24 345 154 331 314 717 530 999 561 335 37 850-161 1261-485 195-153 408-400 469-543 45-107 31-446-29-720 -131-600-488-1162-838-1321 -941-427-3218 545-4852 2070 -1024 955-1990 2473-2348 3685 -103 350-144 585-152 873 -8 286 20 469 96 638 160 352 749 717 1356 840 186 38 245 43 450 42 184-2 192-3 248-29Z" transform="matrix(.1 0 0-.1 0 1200)"/></svg>