<svg width="1600" height="1600" viewBox="0 0 1200 1200" xmlns="http://www.w3.org/2000/svg"><g transform="matrix(.1 0 0-.1 0 1200)"><g fill="currentColor"><path d="M10854 10869c-240-14-437-65-629-162 -100-50-100-50-1456-1404 -1356-1355-1356-1355-1392-1297 -132 220-194 419-257 826 -59 375-119 534-254 673 -237 242-628 307-1041 174 -269-87-630-317-1005-638 -170-146-269-239-779-738 -460-451-606-582-770-693 -151-101-135-96-616-176 -636-104-1014-265-1306-554 -306-302-487-690-563-1205C439 3326 2623 820 5075 753c1029-28 1783 340 2109 1028 123 261 188 496 265 959 85 513 82 506 450 895 327 346 431 482 546 720 149 308 197 566 176 956 -42 776-280 1474-691 2027 -24 33-24 33 790 847l814 814 341 3c397 3 378-2 676 197 283 189 495 372 686 595 181 211 363 520 383 652 18 112-23 237-103 318 -113 112-233 131-663 105ZM6332 8925c10-38 32-146 48-240 91-509 218-856 423-1160l75-110 -594-595c-516-518-596-602-619-652 -151-331 172-654 503-503 50 23 132 101 628 596l570 570 76-128c276-465 428-1014 428-1543 0-413-64-538-505-990 -482-493-537-604-675-1350 -82-444-129-616-212-770 -194-363-487-506-1106-542 -629-37-1253 123-1878 482 -937 537-1654 1472-1903 2480 -140 565-113 1235 63 1605 150 314 404 466 960 575 110 21 298 58 416 81 577 111 660 168 1605 1100 531 523 735 706 986 885 254 182 493 287 639 281 54-2 54-2 72-72Z"/><path d="M4050 5574c-109-29-199-106-248-212 -23-49-27-70-27-154 0-96 0-96 57-210 200-394 499-741 843-980 184-127 408-240 502-253 149-20 310 70 380 213 41 84 41 239 0 323 -37 76-119 152-210 193 -360 165-640 446-854 858 -96 187-263 270-443 222Z"/><path d="M3031 4574c-185-67-293-262-247-444 40-154 327-552 581-805 256-255 622-516 763-546 299-62 537 220 430 508 -28 75-93 142-208 212 -346 213-604 474-844 853 -76 121-124 169-205 206 -71 34-201 41-270 16Z"/></g></g></svg>