<svg width="1600" height="1600" viewBox="0 0 1200 1200" xmlns="http://www.w3.org/2000/svg"><path fill="currentColor" d="M657 10870c-248-63-366-362-226-574 32-48 51-64 207-177 311-224 603-663 743-1117 104-338 134-607 123-1122 -36-1857 402-3239 1504-4742 178-242 216-268 445-294 31-3 57-8 57-10 0-3-11-26-24-52 -174-346-138-833 87-1167 314-467 964-626 1492-366 498 246 736 825 569 1390 -7 24-7 24 47 18 115-14 1110-19 1488-8 211 6 385 10 387 9 1-2-6-33-16-69 -94-339-19-743 189-1020 402-533 1249-597 1733-131 346 334 446 865 249 1322 -43 100-47 93 49 105 152 20 228 81 358 288 591 945 931 2057 1034 3387 29 376 15 1187-27 1604 -22 210-83 316-218 379 -113 53-653 164-1202 248 -44 6-81 13-83 14 -1 1 9 69 23 151 57 342 89 663 89 919 1 175 0 182-26 237 -59 126-165 199-326 223 -674 101-1377 155-2056 158 -395 2-407 0-512-95 -106-97-118-141-139-493 -9-148-18-271-19-272 -1-2-65 56-142 128 -422 396-848 724-1295 996 -211 129-279 152-396 133 -105-17-145-46-335-237 -492-497-992-1139-1373-1763 -49-80-94-151-101-159s-94-27-211-47c-109-19-280-50-381-70 -101-20-184-35-186-33 -1 2-12 69-24 149 -128 845-538 1568-1147 2027 -165 125-285 164-408 133Zm4416-972c220-150 508-371 742-572 168-144 375-338 369-347 -3-5-67-9-142-9 -421 0-1642-78-1981-126 -55-8-60-19 115 217 258 347 736 919 767 919 4 0 63-37 130-82Zm2907-219c338-19 927-75 952-90 15-10-56-686-75-705 -1-1-65 3-142 11 -256 25-706 52-1177 71 -166 6-166 6-162 38 2 17 10 162 19 321 9 160 18 310 21 334 6 44 6 44 197 37 106-4 271-11 367-17Zm-665-1469c1120-35 2093-139 2912-311l151-32 9-116c13-181 9-1014-5-1186 -86-1022-299-1834-678-2585 -75-149-193-362-209-378 -2-2-124-19-272-37 -1679-211-3598-216-5293-14 -344 41-306 27-387 139 -759 1044-1119 1980-1233 3202 -27 286-44 888-26 888 2 0 90 18 197 41 1393 291 3233 439 4834 389ZM4670 2669c257-58 352-447 164-675 -106-130-390-157-547-53 -232 153-199 602 51 710 77 34 226 42 332 18Zm4083 7c375-42 415-676 50-782 -91-26-273-16-345 19 -272 133-273 600-2 733 51 25 165 44 224 38 14-2 47-5 73-8Z" transform="matrix(.1 0 0-.1 0 1200)"/></svg>