<svg width="1600" height="1600" viewBox="0 0 1200 1200" xmlns="http://www.w3.org/2000/svg"><path fill="currentColor" d="M5937 11250c-114-20-228-105-274-207 -35-76-43-145-43-369v-201l-347-7c-1102-21-1830-100-2512-271 -452-114-525-156-634-365 -308-589-338-1597-68-2270 138-343 201-390 696-514 651-163 1408-249 2300-261 209-3 422-8 473-11l92-6v-402 -403l-187-12c-1864-120-3246-613-4094-1460 -197-197-234-272-210-422 18-107 42-142 220-319 800-794 2046-1265 3746-1419 121-11 265-23 320-26 231-13 205 86 205-788 0-792 3-850 40-931 112-237 440-289 613-96 108 120 107 109 107 1022v768h118c1139 2 2108 104 2847 302 353 94 425 140 528 338 308 589 338 1597 68 2270 -141 352-219 405-781 535 -664 153-1358 229-2210 241 -201 2-411 7-467 10l-103 6v402 403l183 12c1880 124 3237 606 4088 1451 178 176 198 207 218 316 8 43 8 76 0 119 -20 109-41 139-218 315 -843 837-2255 1339-4066 1445 -226 13-202-17-207 263 -4 221-6 253-25 299 -69 173-241 273-416 243Zm203-1510c1537-63 2796-419 3633-1028 118-86 118-86 95-104 -750-580-1882-955-3233-1072 -1030-89-2431-18-3345 170 -155 32-458 109-504 128 -79 33-145 340-153 713 -8 320 18 541 88 759 29 91 29 91 137 123 785 228 2150 357 3282 311Zm1125-4514c822-61 1445-157 1893-292 100-30 103-36 152-235 92-385 80-898-30-1250 -30-96-30-96-137-128 -933-270-2599-390-3838-275 -1152 106-2141 398-2855 842 -141 87-342 234-333 242 34 29 186 138 268 191 795 519 1956 840 3320 919 243 13 1316 4 1560-14Z" transform="matrix(.1 0 0-.1 0 1200)"/></svg>