<svg width="1600" height="1600" viewBox="0 0 1200 1200" xmlns="http://www.w3.org/2000/svg"><g transform="matrix(.1 0 0-.1 0 1200)"><g fill="currentColor"><path d="M5435 10490c-916-43-1821-167-2660-365 -484-115-777-402-896-880 -112-453-233-1147-293-1685 -66-590-81-878-81-1560s15-970 81-1560c73-659 257-1645 350-1876 121-303 377-545 684-647 205-69 959-215 1470-286 1084-151 2222-172 3320-61 655 67 1672 246 1979 350 280 94 532 327 654 604 49 111 89 270 177 706 385 1917 373 3773-35 5716 -106 504-166 647-350 842 -173 184-341 273-652 346 -730 171-1533 288-2353 342 -275 18-1128 26-1395 14Zm1025-750c804-30 1555-124 2340-291 358-77 388-87 473-168 68-64 93-120 132-291 439-1909 455-3831 50-5755 -71-335-89-399-133-463 -59-87-136-134-269-165 -1885-440-3766-472-5653-97 -731 146-730 145-825 570 -346 1548-417 3129-210 4665 73 541 229 1337 284 1442 67 130 138 170 417 232 1130 254 2282 363 3394 321Z"/><path d="M5893 8226c-108-35-205-124-245-224 -23-57-23-57-23-1072 0-1015 0-1015 23-1072 33-81 97-147 228-233 325-215 613-503 828-828 130-197 211-252 366-251 294 2 465 288 330 551 -150 289-530 702-915 993l-110 84 -5 896c-5 895-5 895-38 962 -38 78-102 139-182 176 -68 30-193 39-257 18Z"/></g></g></svg>