<svg width="1600" height="1600" viewBox="0 0 1200 1200" xmlns="http://www.w3.org/2000/svg"><path fill="currentColor" d="M5740 10123c-1171-12-2456-145-3660-378 -339-65-426-97-553-205 -133-112-195-218-276-470 -669-2076-669-4064 0-6140 70-219 115-305 211-405 139-147 245-197 538-254 2632-517 5206-526 7850-30 442 83 512 111 665 264 120 120 151 177 235 433 433 1317 586 2689 449 4022 -73 717-221 1410-449 2102 -84 256-115 313-235 433 -153 153-221 181-665 264 -1382 261-2712 379-4110 364Zm-120-1355v-593l-138-27c-735-144-1253-539-1527-1165 -460-1052-119-2322 767-2852 215-129 554-249 821-291l77-13v-595 -595l-251 7c-1024 27-2163 155-3199 359 -164 32-164 32-198 137 -60 186-158 540-206 745 -26 110-49 207-52 216 -4 14 11 17 102 23 59 4 137 13 175 21 376 79 752 434 897 847 149 420 149 1596 0 2016 -146 414-521 768-898 848 -36 7-113 17-173 20 -92 6-107 9-103 23 3 9 21 86 41 171 51 221 125 496 192 710l58 185 190 37c903 176 1873 295 2760 338 121 6 243 12 270 13 28 2 128 4 223 5l172 2v-592Zm1455 572c909-50 1887-171 2730-338l189-37 34-105c83-261 183-632 240-892 20-88 20-88-32-88 -96 0-231-22-320-51 -403-134-762-548-850-981 -85-417-85-1279 0-1696 96-472 513-916 943-1007 38-8 116-17 173-21l105-7 -19-86c-59-265-160-638-241-891l-34-105 -189-37c-1032-204-2461-358-3311-358h-113v593 593l88 18c758 154 1430 744 1670 1467 346 1044-131 2163-1133 2655 -160 78-393 161-537 190l-88 18v595 594l253-6c138-4 338-11 442-17ZM5620 6001V4571l-92 26c-424 116-667 303-847 652 -240 468-240 1034 0 1502 177 343 407 524 819 644 63 19 116 34 118 35 1 0 2-643 2-1429Zm866 1389c510-172 896-611 990-1130 24-128 24-391 1-516 -82-451-377-842-792-1049 -93-47-270-115-297-115 -4 0-8 639-8 1420 0 781 4 1420 8 1420 5 0 48-14 98-30Zm-4620-286c151-62 294-242 329-413 63-305 63-1077 0-1382 -34-167-157-326-312-403 -46-24-62-26-176-26 -147 0-127-34-157 265 -30 307-40 516-40 855 0 339 10 548 40 855 30 298 11 265 155 265 90 0 133-4 161-16Zm8558-16c12-66 46-448 56-628 22-397 10-892-30-1310 -30-304-10-270-155-270 -140 0-165 7-261 76 -105 74-203 225-229 353 -64 306-64 1076 0 1382 26 128 124 278 229 353 96 69 115 74 257 75 127 1 127 1 133-31Z" transform="matrix(.1 0 0-.1 0 1200)"/></svg>