<svg width="1600" height="1600" viewBox="0 0 1200 1200" xmlns="http://www.w3.org/2000/svg"><g transform="matrix(.1 0 0-.1 0 1200)"><g fill="currentColor"><path d="M5695 11244c-403-30-526-48-612-90 -257-125-280-484-42-643 99-66 139-70 487-45l92 7v-181c0-180 0-182-22-186 -13-2-86-12-163-21 -1805-214-3345-1573-3795-3350 -613-2424 863-4878 3297-5480 362-90 631-120 1073-120 359 0 475 9 750 56 1940 331 3456 1913 3704 3864 153 1204-190 2429-941 3363 -46 57-83 106-83 110s57 63 126 132l125 125 56-60c30-33 86-97 124-141 124-148 193-187 334-187 150 0 270 75 337 211 45 91 48 225 7 312 -113 241-853 995-1204 1226 -248 164-577-13-578-311 -1-140 39-210 187-334 44-38 109-95 144-127l63-59 -128-128 -129-127 -104 83c-651 520-1463 859-2270 947 -58 6-115 13-127 16 -23 4-23 6-23 185v181l128-8c337-23 407-9 511 101 178 188 122 487-112 595 -64 30-112 38-367 66 -136 14-725 27-845 18Zm635-1885c1118-102 2105-673 2747-1589 559-798 782-1798 618-2777 -169-1006-755-1912-1605-2480 -1688-1129-3976-709-5149 945 -964 1361-909 3208 135 4517 110 138 426 456 559 562 612 488 1261 747 2075 826 85 9 516 6 620-4Z"/><path d="M5893 8616c-143-46-241-164-263-313 -6-41-10-462-10-1049v-982l-69-50c-411-300-395-934 32-1216 152-99 268-131 454-124 712 28 974 939 391 1357 -48 34-48 34-48 1031 0 1026-1 1065-41 1147 -77 160-284 252-446 199Z"/></g></g></svg>