<svg width="1600" height="1600" viewBox="0 0 1200 1200" xmlns="http://www.w3.org/2000/svg"><g transform="matrix(.1 0 0-.1 0 1200)"><g fill="currentColor"><path d="M5721 11619c-523-25-741-78-1140-279 -646-325-929-655-909-1059 9-165 73-302 220-471 43-49 78-91 78-94 0-2-15-7-32-11 -60-12-522-125-574-140 -70-21-152-77-194-133 -19-26-112-125-205-222 -785-808-1233-1679-1273-2477 -7-136-7-136-98-182 -265-137-468-329-578-548 -62-125-154-512-190-803 -80-639-25-1375 141-1905 55-176 180-352 338-478 50-40 50-40 51-361 2-613 65-930 235-1182 198-293 375-400 794-479 480-89 1117-60 1526 71 382 122 616 440 685 931 8 59 16 109 19 111 2 2 97-5 212-17 816-82 1564-82 2343 0 254 26 227 32 235-53 25-278 80-436 212-613 171-229 330-333 600-394 306-69 457-86 788-85 422 0 830 66 1025 164 225 113 447 389 520 645 49 170 92 650 89 999 -1 218-1 218 52 261 155 122 283 299 337 465 178 543 231 1373 131 2025 -46 302-118 583-179 704 -105 209-311 405-564 537 -106 55-106 55-106 138 0 253-85 640-211 955 -217 545-552 1040-1059 1568 -102 106-207 218-235 249 -27 31-70 66-95 79 -40 20-402 117-602 160 -43 9-78 19-78 21 0 3 35 45 78 94 147 169 211 306 220 471 21 406-266 738-918 1064 -319 160-512 220-800 250 -302 31-588 38-889 24Zm604-759c316-21 374-33 579-116 253-104 489-241 599-349 57-57 57-57 37-85 -35-49-183-211-300-329 -113-113-113-113-169-107 -703 83-1339 86-2045 9l-148-16 -125 124c-69 68-167 173-219 233 -108 125-108 110 3 206 197 169 641 376 873 405 253 33 635 43 915 25Zm25-1695c545-14 1157-101 1763-252 228-56 228-56 360-192 449-462 799-1025 972-1561 34-105 88-320 82-326 -1-2-153 35-337 80 -1782 444-3191 538-4765 320 -513-71-1047-177-1634-325 -173-43-316-77-318-76 -6 7 50 230 83 332 179 544 524 1095 971 1555 151 156 91 128 473 220 655 157 1502 253 2060 233 47-1 177-5 290-8Zm240-2575c630-40 1319-143 2010-301 431-99 1029-259 1153-309 41-16 108-34 148-40 143-20 302-121 389-246 76-109 158-606 167-1016 9-385-20-657-109-1031 -60-256-164-337-593-462 -1155-338-2070-516-3035-592 -279-22-1100-25-1365-5 -1025 76-1953 256-3165 613 -269 79-372 137-464 260 -40 53-48 73-79 206 -37 155-67 326-89 503 -17 142-17 689 0 835 37 307 107 624 152 689 88 127 247 226 394 247 43 6 104 21 134 35 86 38 664 196 1042 284 1225 287 2290 393 3310 330ZM2441 2355c435-119 973-245 1304-306 66-12 121-22 122-23s-5-51-13-111c-18-136-45-195-127-279 -62-63-62-63-164-85 -357-74-739-76-1092-5 -143 28-164 38-215 95 -95 104-146 349-146 696 0 111 0 111 48 97 26-8 153-44 283-79Zm7439-9c0-111-15-307-35-464 -26-200-90-285-244-321 -383-90-819-90-1203 0 -159 37-219 119-244 334 -8 70-13 129-12 130 2 1 77 16 168 34 395 76 919 202 1335 319 116 33 216 60 223 61 9 1 12-24 12-93Z"/><path d="M7280 4963c-14-2-104-22-200-43 -390-87-656-115-1080-115 -429 0-692 28-1080 116 -99 22-202 39-236 39 -274 0-452-288-330-534 63-129 136-177 339-226 830-197 1709-202 2550-14 212 47 255 64 326 130 86 79 116 150 116 274 0 138-50 234-160 310 -64 44-179 74-245 63Z"/><path d="M2867 4936c-349-146-297-643 76-717 157-32 330 59 405 210 42 87 40 230-5 322 -65 132-176 202-328 207 -77 2-99-1-148-22Z"/><path d="M8869 4937c-101-43-167-105-210-202 -35-78-34-220 3-297 137-293 544-299 686-9 42 87 40 230-5 322 -39 79-102 140-181 177 -82 39-213 42-293 9Z"/></g></g></svg>