<svg width="1600" height="1600" viewBox="0 0 1200 1200" xmlns="http://www.w3.org/2000/svg"><g transform="matrix(.1 0 0-.1 0 1200)"><g fill="currentColor"><path d="M4150 11624c-579-37-1043-146-1640-387 -394-158-861-381-930-443 -24-22-110-140-196-269 -499-754-823-1497-959-2204 -58-305-70-430-70-791 0-548 44-791 200-1108 320-647 1187-1433 2420-2192 105-64 260-161 345-215 144-91 378-215 408-215 16 0 32-42 32-87 0-189 142-555 318-818 375-559 1153-1255 2075-1854 64-42 239-155 388-253 496-323 691-392 1114-392 421 0 596 62 1124 394 967 610 1465 985 1962 1480 419 417 648 746 764 1094 120 363 136 1007 39 1556 -136 765-501 1575-1085 2406 -121 171-133 180-483 338 -639 290-1148 460-1616 541 -85 14-164 28-176 30 -18 4-24 22-48 137 -157 745-528 1531-1086 2303 -173 239-162 232-587 413 -833 356-1467 518-2103 535 -85 3-180 3-210 1Zm566-783c433-68 874-205 1453-452 230-99 213-86 309-221 431-610 728-1209 877-1772 19-72 34-131 32-132 -1-1-67-10-147-19 -573-65-1178-254-1980-618 -188-85-227-111-292-200 -41-55-55-67-72-63 -54 13-277 37-421 45 -653 34-1251-138-1793-516 -131-91-332-254-358-290 -172-235-44-557 239-603 114-18 210 13 322 104 383 313 677 469 1013 537 117 24 562 41 562 22 0-5-30-63-67-129 -324-579-576-1311-629-1828 -4-36-11-66-16-66 -11 0-389 233-616 380 -1083 700-1775 1368-1966 1898 -54 150-81 563-57 854 61 717 359 1490 883 2289 101 155 112 168 156 187 26 11 124 57 219 101 595 280 1134 452 1581 506 175 21 596 13 768-14Zm3334-3346c460-62 930-214 1603-517 177-80 177-80 276-227 539-801 824-1499 913-2236 31-255 8-728-43-877 -190-564-974-1301-2214-2080 -126-80-292-184-368-232 -235-149-336-181-567-180 -256 1-322 27-736 297 -145 95-303 197-351 229 -1182 762-1993 1609-2063 2153 -108 849 183 1819 843 2810 201 301 179 280 378 367 705 310 1209 460 1709 508 131 12 481 4 620-15Z"/><path d="M5340 9516c-276-40-593-158-694-260 -148-147-144-391 9-535 84-79 128-96 255-96 102 0 107 1 195 42 312 144 598 150 918 16 185-77 321-62 442 48 150 138 166 373 35 523 -86 97-305 190-586 247 -131 26-438 34-574 15Z"/><path d="M2810 9479c-281-27-639-152-754-264 -150-146-151-382-2-531 124-124 273-144 453-62 315 144 618 149 926 16 170-73 311-55 437 58 147 133 158 369 25 521 -152 174-680 301-1085 262Z"/><path d="M6165 6168c-258-29-584-142-689-238 -166-154-152-433 30-573 113-87 255-98 405-32 312 137 621 136 922-3 177-81 338-65 460 47 82 76 112 148 112 271 0 173-63 268-233 354 -293 147-670 212-1007 174Z"/><path d="M8702 6145c-179-27-387-92-532-165 -334-169-269-644 98-710 81-14 142-3 264 49 160 69 247 86 438 85 193 0 281-19 468-101 100-44 112-47 192-47 339 0 505 400 264 637 -85 85-343 190-579 237 -142 29-470 37-613 15Z"/><path d="M5652 4099c-282-48-409-399-220-614 49-56 287-236 430-324 712-444 1579-613 2408-470 454 78 907 258 1287 508 354 234 428 321 427 501 -1 119-28 186-108 266s-147 107-266 108c-105 1-161-23-282-117 -477-372-1033-561-1648-561 -622 0-1169 188-1655 569 -136 106-172 124-295 140 -14 1-49-1-78-6Z"/></g></g></svg>