<svg width="1600" height="1600" viewBox="0 0 1200 1200" xmlns="http://www.w3.org/2000/svg"><path fill="currentColor" d="M5420 9680c-1180-38-2319-170-3438-396 -254-51-341-78-462-140 -159-82-322-229-417-376 -158-245-483-1054-535-1335 -20-106 14-217 93-307 55-62 104-89 232-125 457-131 753-493 774-947 24-504-275-911-773-1055 -217-62-324-186-324-375 0-219 391-1191 579-1441 179-238 397-363 763-438 2688-554 5481-554 8180 1 454 93 696 272 889 657 158 313 311 694 405 1009 61 206 41 333-73 449 -66 69-132 97-265 114 -202 27-337 74-479 167 -618 403-619 1312-2 1715 143 93 280 141 481 167 183 24 284 89 346 220 63 133 42 256-117 686 -118 320-299 714-389 850 -147 222-394 393-664 460 -514 127-1646 298-2454 369 -722 64-1680 93-2350 71Zm1030-750c1171-31 2266-152 3364-371 388-78 413-95 535-371 55-125 206-527 199-533 -2-1-50-22-108-47 -900-379-1328-1405-951-2279 177-411 536-764 952-938l106-44 -62-171c-138-381-202-513-281-586 -71-64-115-79-394-134 -2557-501-5043-502-7594-5 -307 60-347 73-422 141 -57 53-87 104-165 279 -43 98-199 523-199 542 0 7 33 29 73 50 164 87 413 296 536 451 174 220 294 473 353 746 33 154 33 526 0 677 -110 505-428 936-879 1193l-92 52 46 132c73 210 136 372 198 509 101 223 155 262 447 321 1435 290 2928 423 4338 386Z" transform="matrix(.1 0 0-.1 0 1200)"/></svg>