<svg width="1600" height="1600" viewBox="0 0 1200 1200" xmlns="http://www.w3.org/2000/svg"><path fill="currentColor" d="M5670 10489c-1159-94-2172-641-3011-1624C1572 7590 865 5577 759 3455c-17-355-11-536 22-606 56-118 118-166 301-233 2639-956 6840-993 9598-83 410 136 471 171 539 317 26 55 26 55 25 320 -4 1102-242 2386-645 3468 -725 1946-1899 3202-3427 3666 -101 31-203 56-227 56 -24 0-101 13-171 29 -462 105-736 130-1104 100Zm579-774c68-14 134-25 147-25 30 0 34 18-36-169 -151-405-257-851-307-1292 -22-194-25-778-5-969 106-1015 474-1920 1269-3123 222-336 683-988 910-1286 18-25 30-48 26-52 -29-28-1101-120-1563-134 -102-3-217-8-255-10 -71-5-71-5-187 157C5046 4500 4661 5984 4991 7655c119 601 338 1235 655 1894 75 157 75 157 187 179 138 26 240 23 416-13Zm1111-256c1692-715 2906-3022 3090-5874 20-322 28-299-117-344 -285-89-614-172-1022-257 -206-43-215-44-231-27 -20 21-586 803-785 1083 -1100 1553-1530 2595-1529 3705 0 587 107 1097 356 1696 45 111 21 109 238 18Zm-2553 49c-377-888-582-1663-659-2498 -17-182-17-805 0-985 99-1066 463-2025 1203-3173l118-182h-82c-121 0-597 27-877 50 -1070 88-2111 280-2879 532l-94 31 6 171c23 619 134 1376 297 2028 506 2017 1542 3466 2858 3998 106 43 117 46 109 28Z" transform="matrix(.1 0 0-.1 0 1200)"/></svg>