<svg width="1600" height="1600" viewBox="0 0 1200 1200" xmlns="http://www.w3.org/2000/svg"><g transform="matrix(.1 0 0-.1 0 1200)"><g fill="currentColor"><path d="M4393 11615c-185-57-301-248-263-431 9-42 93-220 286-606 273-547 273-547 231-552 -696-93-1399-222-1910-351 -336-85-601-266-750-513 -94-155-129-303-172-727 -35-338-40-366-76-422 -59-94-74-200-43-317 17-60 16-67-14-291 -17-127-38-286-47-355 -27-218-18-196-81-203 -115-12-238-97-290-199 -77-151-144-596-144-953 0-371 69-784 155-930 52-89 165-166 266-180 46-7 46-7 53-168 31-743 108-1231 237-1504 39-82 39-82 44-385 14-827 71-1118 268-1363 236-293 584-409 1227-409 692 0 1077 158 1300 533 74 124 143 363 166 569 4 34 9 64 13 66 3 2 85-2 181-10 352-26 769-37 1190-31 375 6 509 11 836 33 101 7 101 7 108-57 52-479 242-785 589-954 332-161 972-201 1502-94 349 71 624 290 747 597 80 199 127 659 128 1235 0 147 0 147 44 235 78 156 112 285 160 608 41 277 76 640 92 961 7 132 7 132 56 142 96 21 194 92 243 176 86 145 155 559 155 924 0 362-67 808-144 959 -45 87-180 191-251 192 -38 1-42 14-54 160 -60 729-252 1811-365 2055 -122 264-372 474-701 588 -352 122-1275 313-1850 382 -71 9-145 18-162 21 -33 5-33 5 237 544 298 596 304 611 281 731 -24 122-104 223-219 277 -85 40-221 39-307-3 -123-59-119-54-493-801l-339-678 -434-1c-239-1-468-5-509-9 -75-8-75-8-414 670 -186 374-352 696-368 717 -87 109-263 164-395 122Zm2292-2256c713-41 1442-162 2232-370 247-65 333-100 400-162 72-66 85-108 103-322 6-66 13-145 16-176 6-55 6-55-157-27 -709 123-1443 213-2089 258 -971 67-1971 50-2960-50 -489-50-1472-190-1658-237 -16-4-21-1-17 8 2 8 14 102 25 209 24 237 30 260 83 317 82 89 145 114 467 188 1362 311 2481 426 3555 364Zm-25-1500c660-28 1351-103 2159-235 353-57 714-123 722-132 3-4 13-59 22-122s36-239 61-390c80-495 126-951 97-969 -6-4-123-27-259-50 -954-164-1708-251-2617-303 -290-17-1387-17-1680 0 -916 52-1725 147-2685 316l-185 32 2 150c0 82 11 241 22 354 25 244 128 971 139 981 8 7 480 93 762 138 1315 211 2328 279 3440 230ZM2543 5206c1788-305 3429-381 5117-236 583 50 1609 187 1993 266 28 6 28 6 22-153 -3-87-10-293-16-458 -20-618-57-1024-119-1305 -34-159-88-243-185-290 -138-68-1180-252-1835-324 -1492-166-3001-80-4675 264 -192 40-273 107-352 295 -79 187-134 778-148 1600 -3 176-8 332-10 348 -3 15-2 27 1 27s96-15 207-34Zm6813-3083c-10-192-35-393-55-438 -49-112-166-152-513-177 -183-13-397-1-562 33 -180 36-241 79-269 189 -20 77-50 260-44 267 3 3 124 22 269 43 341 50 690 110 953 164 116 24 214 44 219 45 5 1 6-52 2-126Zm-6536 86c229-45 761-133 1033-170 200-28 237-35 237-49 0-27-40-242-52-280 -38-122-170-174-512-201 -257-21-634 18-731 76 -90 52-108 94-129 300 -26 252-30 355-15 355 8 0 84-14 169-31Z"/><path d="M3643 4486c-327-106-361-547-55-698 92-45 225-48 314-6 293 137 293 552 0 686 -69 31-192 40-259 18Z"/><path d="M8143 4486c-327-106-361-547-55-698 92-45 225-48 314-6 293 137 293 552 0 686 -69 31-192 40-259 18Z"/></g></g></svg>