<svg width="1600" height="1600" viewBox="0 0 1200 1200" xmlns="http://www.w3.org/2000/svg"><g transform="matrix(.1 0 0-.1 0 1200)"><g fill="currentColor"><path d="M5955 10873c-94-14-462-119-707-202 -1552-530-2933-1423-3857-2496 -177-207-248-348-278-560 -59-403 168-837 532-1018 165-82 224-92 920-161 1970-196 3859-225 5810-90 808 55 1651 141 1814 185 421 113 747 585 706 1024 -23 245-94 398-291 625 -924 1070-2301 1962-3837 2485 -424 145-721 221-812 208Zm209-814c1462-400 2976-1326 3865-2363 132-155 157-224 112-322 -42-93-99-117-339-144 -2504-286-5028-286-7597 0 -249 27-303 50-346 144 -45 98-20 167 112 322 891 1039 2396 1958 3879 2368 156 43 139 44 314-5Z"/><path d="M5849 8986c-546-114-780-762-435-1203 142-182 344-278 586-278 242 0 444 96 586 278 113 145 159 278 159 467 0 188-45 319-156 464 -167 215-472 328-740 272Z"/><path d="M2143 5976c-99-32-189-110-231-199 -36-77-42-143-32-350 46-899 237-1892 534-2776 36-107 64-196 62-198s-129 38-282 88c-270 88-281 91-354 87 -277-16-438-305-307-551 69-131 170-181 702-346 1149-358 2211-542 3440-595 889-39 2048 82 3095 323 529 122 1282 347 1523 455 287 128 293 538 11 677 -125 62-169 57-498-50 -154-50-281-90-282-88 -2 2 32 111 76 243 296 898 474 1836 520 2736 13 261-3 333-97 438 -141 157-405 157-546 0 -78-87-107-177-107-339 -1-239-65-808-136-1205 -127-707-351-1478-586-2020 -43-100-43-100-218-138 -235-50-570-111-577-104 -3 2 13 98 36 213 191 971 309 1905 352 2783 19 381 7 451-92 563 -68 78-151 112-274 112 -121 0-186-25-263-102 -97-97-103-122-118-456 -47-1029-188-2068-433-3192 -6-27-12-31-55-37 -42-6-400-32-563-41l-63-3v1675c0 968-4 1700-9 1732 -20 122-98 226-209 281 -98 49-226 49-324 0 -111-55-189-159-209-281 -5-32-9-764-9-1734 0-1677 0-1677-22-1673 -13 3-84 7-158 11 -138 6-472 34-478 40 -8 7-107 490-157 765 -157 864-255 1678-299 2495 -12 236-15 253-40 306 -39 83-96 143-174 181 -93 46-234 48-324 6 -74-34-146-107-184-183 -44-90-41-248 17-895 68-769 204-1706 354-2439 14-68 25-129 25-136 0-13-240 29-525 91 -88 19-183 40-210 45 -50 11-50 11-89 102 -252 594-466 1332-590 2032 -75 424-136 963-136 1205 0 217-67 348-217 422 -76 37-196 48-270 24Z"/></g></g></svg>