<svg width="1600" height="1600" viewBox="0 0 1200 1200" xmlns="http://www.w3.org/2000/svg"><path fill="currentColor" d="M5893 11616c-139-45-235-156-262-301 -7-38-11-270-11-662 0-603 0-603-22-607 -188-38-298-66-423-107 -915-304-1596-1119-1730-2072 -5-39-10-47-23-43 -9 3-71 10-137 16s-157 18-202 26c-345 63-583-296-387-583 73-106 149-140 417-187 100-18 181-36 180-41 -90-550-213-1806-213-2186 0-50-4-80-12-86 -7-5-143-35-303-67 -479-94-978-215-1059-257 -96-50-161-129-192-234 -15-54-16-99-11-485 10-655 61-1342 136-1820 5-30 8-56 6-58s-37 2-79 8c-129 19-230-11-326-96 -186-169-146-483 78-602 49-26 91-37 238-62 2864-474 6038-474 8891 0 244 41 324 87 400 231 41 79 42 236 1 320 -77 155-234 235-410 209 -44-6-81-10-83-8s5 64 15 138c82 583 122 1172 124 1800 1 415 1 415-30 480 -35 73-106 150-168 179 -88 43-574 161-1075 261 -161 32-295 61-297 63 -2 2-11 127-19 278 -34 605-90 1181-171 1748 -19 135-31 248-27 251 5 4 80 19 168 34 254 42 310 63 388 141 266 265 28 700-346 631 -45-8-136-20-202-26s-128-13-137-16c-13-4-18 4-23 43 -101 731-547 1416-1181 1815 -276 173-569 283-971 364 -23 4-23 4-23 607 0 729-1 740-107 857 -89 99-258 146-380 106Zm295-2257c799-87 1452-680 1610-1464 37-182 47-160-76-178 -973-147-2050-165-3052-51 -136 15-493 64-497 67 -5 5 30 182 53 267 237 877 1074 1456 1962 1359ZM4293 6890c122-17 304-38 405-48 100-10 185-21 188-25 3-3-8-104-25-224 -63-440-118-969-141-1353 -6-102-13-199-16-215 -4-31-4-31-207-48 -173-15-368-35-599-63 -58-7-58-7-58 42 1 296 154 1830 195 1952 6 16 5 16 258-18Zm3667 23c0-5 13-102 29-218 39-278 75-589 105-925 30-326 66-860 58-860 -1 0-123 13-270 30 -147 16-337 34-422 41 -85 7-159 15-164 20 -4 4-14 99-22 211 -31 459-86 989-144 1392 -17 115-28 211-26 214 3 2 106 15 229 28 223 23 533 61 552 69 18 7 75 5 75-2Zm-1603-212c50-293 138-1143 159-1531l7-125h-528 -527l6 115c27 448 130 1414 171 1595 4 20 11 20 352 18l348-2 12-70Zm154-2417c37-6 37-6 44-122 12-198-10-938-40-1327 -31-395-83-804-145-1145 -17-91-30-168-30-172s-151-8-335-8c-184 0-335 2-335 4 0 3-15 85-34 183 -85 438-139 889-176 1458 -15 215-25 1125-14 1126 118 16 975 19 1065 3Zm-1831-331c0-761 71-1596 191-2248 16-88 29-164 29-169 0-12-853 33-866 46 -1 2-14 64-28 138 -117 621-173 1230-183 1981 -6 437-6 437 23 443 45 9 420 53 599 70 152 15 211 21 228 25 4 0 7-128 7-286Zm2870 262c173-17 555-62 603-71 27-6 27-6 27-182 -1-698-63-1491-161-2062 -17-96-36-207-42-247 -11-71-11-71-76-77 -108-10-485-34-647-42l-151-7 33 194c116 692 174 1414 174 2162 0 357 0 357 38 352 20-2 111-12 202-20Zm-4490-322c1-670 96-1782 190-2205 4-21 4-38 0-38 -31 0-811 91-818 95 -5 4-53 313-76 495 -51 403-84 844-92 1250 -2 146-6 282-8 302 -4 37-4 37 183 82 102 25 267 63 366 85 99 22 189 42 200 44 57 13 55 16 55-110Zm6068 81c92-19 269-60 393-90 227-55 227-55 223-92 -2-20-6-156-8-302 -8-407-41-850-92-1250 -23-183-71-491-76-495 -3-2-467-57-676-81 -79-8-146-13-148-11 -3 2 6 71 20 153 100 598 166 1394 166 2017 0 164 2 187 16 187 8 0 91-16 182-36Z" transform="matrix(.1 0 0-.1 0 1200)"/></svg>