<svg width="1600" height="1600" viewBox="0 0 1200 1200" xmlns="http://www.w3.org/2000/svg"><path fill="currentColor" d="M5878 11211c-108-43-191-123-230-219 -22-56-23-68-26-468l-3-411 -107-7c-488-31-1451-225-1689-340 -307-149-502-384-609-735 -188-617-251-1341-170-1964 12-97 12-97-63-138 -359-194-957-602-1030-704 -76-106-84-158-71-464 46-1078 339-2088 879-3022 33-59 61-110 61-113s-17-6-37-6c-66 0-250-48-371-96 -298-118-664-346-1052-655 -187-149-232-222-232-369 0-210 162-372 372-373 111 0 161 24 325 153 358 283 715 502 922 566 164 52 242 23 608-225 437-295 526-349 690-414 414-164 728-93 1295 296 458 314 545 362 660 362 104 0 189-43 508-259 139-94 294-197 345-229 429-271 748-317 1124-162 152 64 262 130 698 426 326 221 416 255 566 209 215-65 565-279 939-574 159-125 210-149 320-149 303 1 477 333 307 586 -56 83-438 376-727 557 -323 201-689 350-865 350 -19 0-35 3-35 6 0 4 29 57 64 118 561 977 867 2071 878 3141 2 212-3 237-68 331 -71 104-584 461-989 688l-120 68 18 151c24 193 29 774 9 967 -43 410-151 895-251 1121 -106 240-302 440-544 554 -247 117-1113 294-1649 337l-147 12 -3 411c-4 476-4 477-104 584 -99 108-271 152-396 102Zm682-1865c357-41 715-107 1069-196 365-91 389-119 496-553 39-156 78-384 97-562 13-123 18-708 6-720 -4-4-46 9-95 28 -533 211-1237 395-1935 507 -197 32-197 32-330 10 -749-118-1382-281-1982-509 -60-23-110-40-112-38s-7 98-10 213c-12 404 35 804 140 1184 86 313 128 355 425 430 438 110 823 178 1206 215 200 19 831 13 1025-9Zm-940-4544V2553l-122-61c-137-69-211-115-559-351 -343-232-467-286-572-252 -65 22-326 308-542 596 -710 944-1127 2068-1191 3210l-7 120 154 106c682 470 1402 790 2269 1008 218 55 510 119 548 120 22 1 22 1 22-2247Zm937 2218c1048-217 1894-566 2677-1108 138-96 138-96 132-216 -65-1145-481-2266-1191-3211 -214-285-477-574-542-596 -103-34-230 21-541 232 -337 229-459 305-589 371l-123 61v2249c0 1962 2 2248 15 2248 8 0 81-14 162-30Z" transform="matrix(.1 0 0-.1 0 1200)"/></svg>